SplineFontDB: 3.0
FontName: Kruk-Kalashn
FullName: Kruk Kalashn
FamilyName: Kruk
Weight: Book
Copyright: Copyright (c) Nikolaev Pyotor, 2000. All rights reserved.
Version: 2000; 1.0, initial release
ItalicAngle: 0
UnderlinePosition: -5
UnderlineWidth: 11
Ascent: 800
Descent: 200
InvalidEm: 0
sfntRevision: 0x00010000
LayerCount: 2
Layer: 0 1 "Back" 1
Layer: 1 1 "Fore" 0
XUID: [1021 457 -2135716751 9348]
StyleMap: 0x0040
FSType: 0
OS2Version: 0
OS2_WeightWidthSlopeOnly: 0
OS2_UseTypoMetrics: 0
CreationTime: 953859882
ModificationTime: 1503869756
PfmFamily: 81
TTFWeight: 400
TTFWidth: 5
LineGap: 30
VLineGap: 0
Panose: 0 0 0 0 0 0 0 0 0 0
OS2TypoAscent: 750
OS2TypoAOffset: 0
OS2TypoDescent: -170
OS2TypoDOffset: 0
OS2TypoLinegap: 30
OS2WinAscent: 965
OS2WinAOffset: 0
OS2WinDescent: 0
OS2WinDOffset: 0
HheadAscent: 750
HheadAOffset: 0
HheadDescent: -170
HheadDOffset: 0
OS2SubXSize: 100
OS2SubYSize: 100
OS2SubXOff: 0
OS2SubYOff: 140
OS2SupXSize: 100
OS2SupYSize: 100
OS2SupXOff: 0
OS2SupYOff: 140
OS2StrikeYSize: 50
OS2StrikeYPos: 250
OS2Vendor: 'pyrs'
OS2UnicodeRanges: 00000003.00000000.00000000.00000000
Lookup: 258 0 0 "'vkrn' Vertical Kerning in Latin lookup 0" { "'vkrn' Vertical Kerning in Latin lookup 0 subtable" (1) } ['vkrn' ('latn' <'dflt' > ) ]
DEI: 91125
TtTable: prep
PUSHW_4
 0
 3
 2
 0
CALL
CALL
PUSHW_4
 0
 42
 70
 5
CALL
PUSHW_4
 1
 39
 65
 5
CALL
PUSHW_4
 2
 16
 27
 5
CALL
PUSHW_3
 3
 2
 7
CALL
EndTTInstrs
TtTable: fpgm
PUSHW_1
 0
FDEF
MPPEM
PUSHW_1
 9
LT
IF
PUSHB_2
 1
 1
INSTCTRL
EIF
PUSHW_1
 511
SCANCTRL
PUSHW_1
 132
SCVTCI
ENDF
PUSHW_1
 1
FDEF
DUP
DUP
RCVT
ROUND[Black]
WCVTP
PUSHB_1
 1
ADD
ENDF
PUSHW_1
 2
FDEF
PUSHW_1
 1
LOOPCALL
POP
ENDF
PUSHW_1
 3
FDEF
DUP
GC[cur]
PUSHB_1
 3
CINDEX
GC[cur]
GT
IF
SWAP
EIF
DUP
ROLL
DUP
ROLL
MD[grid]
ABS
ROLL
DUP
GC[cur]
DUP
ROUND[Grey]
SUB
ABS
PUSHB_1
 4
CINDEX
GC[cur]
DUP
ROUND[Grey]
SUB
ABS
GT
IF
SWAP
NEG
ROLL
EIF
MDAP[rnd]
DUP
PUSHB_1
 0
GTEQ
IF
ROUND[Black]
DUP
PUSHB_1
 0
EQ
IF
POP
PUSHB_1
 64
EIF
ELSE
ROUND[Black]
DUP

StartChar: .0033
Encoding: 33 33 2
Width: 310
Flags: W
LayerCount: 2
Fore
SplineSet
63 172 m 1,0,1
 64 181 64 181 63 195 c 128,-1,2
 62 209 62 209 60 225 c 128,-1,3
 58 241 58 241 56 256.5 c 128,-1,4
 54 272 54 272 54 284 c 0,5,6
 55 292 55 292 69 308 c 128,-1,7
 83 324 83 324 105 344 c 128,-1,8
 127 364 127 364 153 385 c 128,-1,9
 179 406 179 406 204 424 c 128,-1,10
 229 442 229 442 249.5 453.5 c 128,-1,11
 270 465 270 465 281 466 c 1,12,13
 281 418 281 418 282.5 392.5 c 128,-1,14
 284 367 284 367 285.5 353.5 c 128,-1,15
 287 340 287 340 287.5 333.5 c 128,-1,16
 288 327 288 327 286 318 c 1,17,18
 271 320 271 320 249 310.5 c 128,-1,19
 227 301 227 301 203 285.5 c 128,-1,20
 179 270 179 270 155 251.5 c 128,-1,21
 131 233 131 233 111.5 216 c 128,-1,22
 92 199 92 199 78.5 186.5 c 128,-1,23
 65 174 65 174 63 172 c 1,0,1
EndSplineSet
EndChar

StartChar: .0034
Encoding: 34 34 3
Width: 2
Flags: W
LayerCount: 2
Fore
SplineSet
-442 362 m 1,0,1
 -432 380 -432 380 -412.5 400.5 c 128,-1,2
 -393 421 -393 421 -371 438 c 128,-1,3
 -349 455 -349 455 -328 467.5 c 128,-1,4
 -307 480 -307 480 -294 483 c 1,5,6
 -290 466 -290 466 -281.5 439.5 c 128,-1,7
 -273 413 -273 413 -260 394 c 1,8,9
 -279 384 -279 384 -301 366 c 128,-1,10
 -323 348 -323 348 -343.5 329.5 c 128,-1,11
 -364 311 -364 311 -381 296 c 128,-1,12
 -398 281 -398 281 -407 277 c 1,13,14
 -421 288 -421 288 -442 362 c 1,0,1
EndSplineSet
EndChar

StartChar: .0035
Encoding: 35 35 4
Width: 2
Flags: W
LayerCount: 2
Fore
SplineSet
-499 733 m 5,0,-1
 -499 734 l 5,1,-1
 -484 733 l 5,2,-1
 -516 394 l 5,3,-1
 -531 395 l 5,4,-1
 -499 733 l 5,0,-1
-427 757 m 5,5,-1
 -427 758 l 5,6,-1
 -412 757 l 5,7,-1
 -441 478 l 5,8,-1
 -456 479 l 5,9,-1
 -427 757 l 5,5,-1
EndSplineSet
EndChar

StartChar: .0036
Encoding: 36 36 5
Width: 2
Flags: W
LayerCount: 2
Fore
SplineSet
-39 14 m 1,0,-1
 -22 15 l 1,1,2
 -19 79 -19 79 -15.5 143 c 128,-1,3
 -12 207 -12 207 -15.5 258.5 c 128,-1,4
 -19 310 -19 310 -34.5 343 c 128,-1,5
 -50 376 -50 376 -84 378 c 0,6,7
 -109 379 -109 379 -124.5 358 c 128,-1,8
 -140 337 -140 337 -148.5 303 c 128,-1,9
 -157 269 -157 269 -160 226.5 c 128,-1,10
 -163 184 -163 184 -163.5 143 c 128,-1,11
 -164 102 -164 102 -163.5 66.5 c 128,-1,12
 -163 31 -163 31 -164 10 c 1,13,-1
 -152 10 l 1,14,15
 -151 39 -151 39 -150 84 c 128,-1,16
 -149 129 -149 129 -143 171 c 128,-1,17
 -137 213 -137 213 -123.5 243 c 128,-1,18
 -110 273 -110 273 -83 273 c 0,19,20
 -61 273 -61 273 -50.5 244.5 c 128,-1,21
 -40 216 -40 216 -36.5 175.5 c 128,-1,22
 -33 135 -33 135 -34.5 90.5 c 128,-1,23
 -36 46 -36 46 -39 14 c 1,0,-1
146 15 m 1,24,-1
 158 17 l 1,25,26
 161 81 161 81 165 146 c 128,-1,27
 169 211 169 211 165.5 264 c 128,-1,28
 162 317 162 317 147 351 c 128,-1,29
 132 385 132 385 97 387 c 0,30,31
 72 388 72 388 56.5 367 c 128,-1,32
 41 346 41 346 32.5 312 c 128,-1,33
 24 278 24 278 21 235.5 c 128,-1,34
 18 193 18 193 17.5 152 c 128,-1,35
 17 111 17 111 17.5 75 c 128,-1,36
 18 39 18 39 17 19 c 1,37,-1
 31 17 l 1,38,39
 32 36 32 36 32.5 63.5 c 128,-1,40
 33 91 33 91 34.5 120 c 128,-1,41
 36 149 36 149 40 178 c 128,-1,42
 44 207 44 207 51.5 230 c 128,-1,43
 59 253 59 253 71 267 c 128,-1,44
 83 281 83 281 101 281 c 0,45,46
 126 281 126 281 136 251.5 c 128,-1,47
 146 222 146 222 148.5 180 c 128,-1,48
 151 138 151 138 148.5 92.5 c 128,-1,49
 146 47 146 47 146 15 c 1,24,-1
EndSplineSet
EndChar

StartChar: .0037
Encoding: 37 37 6
Width: 2
Flags: W
LayerCount: 2
Fore
SplineSet
-624 568 m 1,0,1
 -611 580 -611 580 -594.5 595 c 128,-1,2
 -578 610 -578 610 -562 625 c 128,-1,3
 -546 640 -546 640 -531.5 652.5 c 128,-1,4
 -517 665 -517 665 -507 672 c 1,5,6
 -505 663 -505 663 -501.5 651.5 c 128,-1,7
 -498 640 -498 640 -493.5 627.5 c 128,-1,8
 -489 615 -489 615 -483 602.5 c 128,-1,9
 -477 590 -477 590 -471 581 c 1,10,11
 -503 561 -503 561 -530 534 c 128,-1,12
 -557 507 -557 507 -589 483 c 1,13,14
 -603 494 -603 494 -624 568 c 1,0,1
-489 681 m 1,15,16
 -466 702 -466 702 -445.5 717.5 c 128,-1,17
 -425 733 -425 733 -406.5 745 c 128,-1,18
 -388 757 -388 757 -371 767 c 128,-1,19
 -354 777 -354 777 -336 787 c 1,20,21
 -334 769 -334 769 -324.5 740.5 c 128,-1,22
 -315 712 -315 712 -301 692 c 1,23,24
 -325 683 -325 683 -349.5 669 c 128,-1,25
 -374 655 -374 655 -394.5 641 c 128,-1,26
 -415 627 -415 627 -429.5 615.5 c 128,-1,27
 -444 604 -444 604 -447 600 c 1,28,29
 -454 605 -454 605 -466 624.5 c 128,-1,30
 -478 644 -478 644 -489 681 c 1,15,16
-281 706 m 1,31,32
 -264 718 -264 718 -232.5 740 c 128,-1,33
 -201 762 -201 762 -158 781 c 1,34,35
 -169 795 -169 795 -178 819 c 128,-1,36
 -187 843 -187 843 -200 872 c 1,37,38
 -222 860 -222 860 -238 851.5 c 128,-1,39
 -254 843 -254 843 -267.5 834.5 c 128,-1,40
 -281 826 -281 826 -293 818 c 128,-1,41
 -305 810 -305 810 -317 800 c 1,42,43
 -313 775 -313 775 -305 751 c 128,-1,44
 -297 727 -297 727 -281 706 c 1,31,32
EndSplineSet
EndChar

StartChar: .0038
Encoding: 38 38 7
Width: 153
Flags: W
LayerCount: 2
Fore
SplineSet
12 500 m 1,0,1
 -15 490 -15 490 -32 474.5 c 128,-1,2
 -49 459 -49 459 -58.5 442 c 128,-1,3
 -68 425 -68 425 -71.5 407 c 128,-1,4
 -75 389 -75 389 -75 375 c 2,5,-1
 -75 347 l 1,6,-1
 -29 347 l 1,7,8
 -28 391 -28 391 -10 412.5 c 128,-1,9
 8 434 8 434 26.5 427 c 128,-1,10
 45 420 45 420 56.5 381.5 c 128,-1,11
 68 343 68 343 56 267 c 0,12,13
 49 213 49 213 41.5 160.5 c 128,-1,14
 34 108 34 108 26 54 c 1,15,-1
 57 54 l 1,16,17
 58 50 58 50 62.5 72.5 c 128,-1,18
 67 95 67 95 73 132 c 128,-1,19
 79 169 79 169 85.5 214 c 128,-1,20
 92 259 92 259 98 300 c 128,-1,21
 104 341 104 341 107.5 372 c 128,-1,22
 111 403 111 403 111 412 c 0,23,24
 111 422 111 422 110 437.5 c 128,-1,25
 109 453 109 453 100.5 467 c 128,-1,26
 92 481 92 481 71.5 491 c 128,-1,27
 51 501 51 501 12 500 c 1,0,1
EndSplineSet
EndChar

StartChar: .0039
Encoding: 39 39 8
Width: 186
Flags: W
LayerCount: 2
Fore
SplineSet
34 446 m 1,0,1
 34 446 34 446 37 452 c 128,-1,2
 40 458 40 458 48 466.5 c 128,-1,3
 56 475 56 475 69 484.5 c 128,-1,4
 82 494 82 494 102 502 c 1,5,-1
 117 654 l 1,6,-1
 137 655 l 1,7,-1
 126 511 l 2,8,9
 130 511 130 511 135 517.5 c 128,-1,10
 140 524 140 524 160 524 c 0,11,12
 166 524 166 524 169 501.5 c 128,-1,13
 172 479 172 479 172 451 c 0,14,15
 172 424 172 424 169 400 c 128,-1,16
 166 376 166 376 160 374 c 1,17,18
 160 374 160 374 157 368.5 c 128,-1,19
 154 363 154 363 148 356.5 c 128,-1,20
 142 350 142 350 133 343 c 128,-1,21
 124 336 124 336 113 332 c 1,22,23
 111 299 111 299 109.5 281.5 c 128,-1,24
 108 264 108 264 107 249.5 c 128,-1,25
 106 235 106 235 104.5 217.5 c 128,-1,26
 103 200 103 200 101 167 c 1,27,-1
 80 169 l 1,28,-1
 89 324 l 1,29,-1
 37 304 l 2,30,31
 28 299 28 299 24.5 312 c 128,-1,32
 21 325 21 325 21.5 347.5 c 128,-1,33
 22 370 22 370 25.5 396.5 c 128,-1,34
 29 423 29 423 34 446 c 1,0,1
EndSplineSet
EndChar

StartChar: .0040
Encoding: 40 40 9
Width: 2
Flags: W
LayerCount: 2
Fore
SplineSet
-575 652 m 1,0,1
 -554 578 -554 578 -540 567 c 1,2,3
 -531 571 -531 571 -519 583.5 c 128,-1,4
 -507 596 -507 596 -492 611 c 128,-1,5
 -477 626 -477 626 -460 641.5 c 128,-1,6
 -443 657 -443 657 -424 667 c 1,7,8
 -430 676 -430 676 -435 688.5 c 128,-1,9
 -440 701 -440 701 -444.5 714.5 c 128,-1,10
 -449 728 -449 728 -452.5 740 c 128,-1,11
 -456 752 -456 752 -459 761 c 1,12,13
 -468 759 -468 759 -483.5 748 c 128,-1,14
 -499 737 -499 737 -516.5 721 c 128,-1,15
 -534 705 -534 705 -550 686.5 c 128,-1,16
 -566 668 -566 668 -575 652 c 1,0,1
-424 777 m 1,17,18
 -406 706 -406 706 -389 692 c 1,19,20
 -386 697 -386 697 -374 707.5 c 128,-1,21
 -362 718 -362 718 -344 731 c 128,-1,22
 -326 744 -326 744 -303.5 756.5 c 128,-1,23
 -281 769 -281 769 -257 778 c 1,24,25
 -269 798 -269 798 -279 824.5 c 128,-1,26
 -289 851 -289 851 -293 869 c 1,27,28
 -311 861 -311 861 -328 853 c 128,-1,29
 -345 845 -345 845 -361 835 c 128,-1,30
 -377 825 -377 825 -393 812.5 c 128,-1,31
 -409 800 -409 800 -426 782 c 1,32,-1
 -424 777 l 1,17,18
EndSplineSet
EndChar

StartChar: .0041
Encoding: 41 41 10
Width: 93
Flags: W
LayerCount: 2
Fore
SplineSet
61 629 m 1,0,1
 53 511 53 511 46.5 397 c 128,-1,2
 40 283 40 283 32 165 c 1,3,-1
 47 165 l 1,4,-1
 76 630 l 1,5,-1
 61 630 l 1,6,-1
 61 629 l 1,0,1
EndSplineSet
EndChar

StartChar: .0042
Encoding: 42 42 11
Width: 2
Flags: W
LayerCount: 2
Fore
SplineSet
-526 696 m 1,0,1
 -517 712 -517 712 -503 727.5 c 128,-1,2
 -489 743 -489 743 -472.5 757 c 128,-1,3
 -456 771 -456 771 -438.5 782 c 128,-1,4
 -421 793 -421 793 -406 800 c 1,5,6
 -400 783 -400 783 -391 759.5 c 128,-1,7
 -382 736 -382 736 -374 717 c 1,8,9
 -408 690 -408 690 -440.5 662 c 128,-1,10
 -473 634 -473 634 -491 611 c 1,11,12
 -505 622 -505 622 -526 696 c 1,0,1
-236 799 m 1,13,14
 -260 790 -260 790 -277.5 780.5 c 128,-1,15
 -295 771 -295 771 -308.5 762 c 128,-1,16
 -322 753 -322 753 -333 745 c 128,-1,17
 -344 737 -344 737 -354 730 c 1,18,-1
 -406 889 l 1,19,-1
 -391 893 l 1,20,21
 -386 875 -386 875 -380.5 861 c 128,-1,22
 -375 847 -375 847 -370 830 c 1,23,24
 -356 841 -356 841 -345.5 849 c 128,-1,25
 -335 857 -335 857 -324 864 c 128,-1,26
 -313 871 -313 871 -300.5 876.5 c 128,-1,27
 -288 882 -288 882 -270 889 c 1,28,29
 -266 871 -266 871 -257 845 c 128,-1,30
 -248 819 -248 819 -236 799 c 1,13,14
EndSplineSet
EndChar

StartChar: .0043
Encoding: 43 43 12
Width: 2
Flags: W
LayerCount: 2
Fore
SplineSet
-17 330 m 1,0,-1
 -417 330 l 1,1,-1
 -417 313 l 1,2,-1
 -17 313 l 1,3,-1
 -17 330 l 1,0,-1
EndSplineSet
EndChar

StartChar: .0044
Encoding: 44 44 13
Width: 141
Flags: W
LayerCount: 2
Fore
SplineSet
23 352 m 1,0,1
 21 352 21 352 33 365 c 128,-1,2
 45 378 45 378 75 389 c 1,3,-1
 86 490 l 1,4,-1
 102 491 l 1,5,-1
 93 396 l 2,6,7
 96 396 96 396 100.5 400 c 128,-1,8
 105 404 105 404 119 404 c 0,9,10
 124 404 124 404 126 389 c 128,-1,11
 128 374 128 374 128 355 c 0,12,13
 128 337 128 337 125.5 321 c 128,-1,14
 123 305 123 305 119 304 c 0,15,16
 119 303 119 303 109.5 291.5 c 128,-1,17
 100 280 100 280 83 275 c 1,18,19
 81 254 81 254 80 242 c 128,-1,20
 79 230 79 230 78 220.5 c 128,-1,21
 77 211 77 211 76 199 c 128,-1,22
 75 187 75 187 74 165 c 1,23,-1
 58 167 l 1,24,-1
 65 270 l 1,25,-1
 25 256 l 2,26,27
 18 253 18 253 15 261.5 c 128,-1,28
 12 270 12 270 12 285 c 256,29,30
 12 300 12 300 15 318 c 128,-1,31
 18 336 18 336 23 352 c 1,0,1
EndSplineSet
EndChar

StartChar: .0045
Encoding: 45 45 14
Width: 2
Flags: W
LayerCount: 2
Fore
SplineSet
403 475 m 1,0,-1
 403 465 l 1,1,-1
 50 465 l 1,2,-1
 50 475 l 1,3,-1
 403 475 l 1,0,-1
EndSplineSet
EndChar

StartChar: .0046
Encoding: 46 46 15
Width: 2
Flags: W
LayerCount: 2
Fore
SplineSet
-417 347 m 1,0,1
 -422 327 -422 327 -425.5 304.5 c 128,-1,2
 -429 282 -429 282 -429.5 264 c 128,-1,3
 -430 246 -430 246 -426.5 235 c 128,-1,4
 -423 224 -423 224 -415 227 c 2,5,-1
 -368 243 l 1,6,-1
 -376 115 l 1,7,-1
 -356 113 l 1,8,9
 -355 141 -355 141 -354.5 156 c 128,-1,10
 -354 171 -354 171 -353 183 c 128,-1,11
 -352 195 -352 195 -350.5 209 c 128,-1,12
 -349 223 -349 223 -346 250 c 1,13,14
 -333 255 -333 255 -323 264 c 128,-1,15
 -313 273 -313 273 -308.5 279.5 c 128,-1,16
 -304 286 -304 286 -303 287 c 0,17,18
 -298 289 -298 289 -295 308.5 c 128,-1,19
 -292 328 -292 328 -292 351 c 256,20,21
 -292 374 -292 374 -294.5 393 c 128,-1,22
 -297 412 -297 412 -303 412 c 0,23,24
 -320 412 -320 412 -325 407.5 c 128,-1,25
 -330 403 -330 403 -334 403 c 2,26,-1
 -324 520 l 1,27,-1
 -342 519 l 1,28,-1
 -355 393 l 1,29,30
 -373 387 -373 387 -385.5 379 c 128,-1,31
 -398 371 -398 371 -405.5 364 c 128,-1,32
 -413 357 -413 357 -415.5 352 c 128,-1,33
 -418 347 -418 347 -417 347 c 1,0,1
EndSplineSet
EndChar

StartChar: .0047
Encoding: 47 47 16
Width: 2
Flags: W
LayerCount: 2
Fore
SplineSet
-187 380 m 1,0,1
 -188 349 -188 349 -188.5 326.5 c 128,-1,2
 -189 304 -189 304 -188.5 285.5 c 128,-1,3
 -188 267 -188 267 -185 250 c 128,-1,4
 -182 233 -182 233 -177 214 c 0,5,6
 -163 182 -163 182 -146 190.5 c 128,-1,7
 -129 199 -129 199 -119 229 c 0,8,9
 -117 234 -117 234 -111.5 257.5 c 128,-1,10
 -106 281 -106 281 -100.5 309 c 128,-1,11
 -95 337 -95 337 -90.5 363 c 128,-1,12
 -86 389 -86 389 -86 400 c 1,13,-1
 -68 397 l 1,14,15
 -69 382 -69 382 -72 358.5 c 128,-1,16
 -75 335 -75 335 -79 308.5 c 128,-1,17
 -83 282 -83 282 -88 254 c 128,-1,18
 -93 226 -93 226 -98.5 203 c 128,-1,19
 -104 180 -104 180 -109 164 c 128,-1,20
 -114 148 -114 148 -119 144 c 0,21,22
 -132 133 -132 133 -140 128.5 c 128,-1,23
 -148 124 -148 124 -159 124 c 0,24,25
 -163 124 -163 124 -167.5 124.5 c 128,-1,26
 -172 125 -172 125 -178 126 c 0,27,28
 -189 128 -189 128 -196.5 146.5 c 128,-1,29
 -204 165 -204 165 -207.5 192 c 128,-1,30
 -211 219 -211 219 -212 250 c 128,-1,31
 -213 281 -213 281 -212.5 308.5 c 128,-1,32
 -212 336 -212 336 -209.5 356 c 128,-1,33
 -207 376 -207 376 -204 380 c 1,34,-1
 -187 380 l 1,0,1
EndSplineSet
EndChar

StartChar: .0048
Encoding: 48 48 17
Width: 62
Flags: W
LayerCount: 2
Fore
SplineSet
42 854 m 1,0,-1
 42 855 l 1,1,-1
 57 855 l 1,2,-1
 29 392 l 1,3,-1
 14 392 l 1,4,-1
 42 854 l 1,0,-1
EndSplineSet
EndChar

StartChar: one
Encoding: 49 49 18
Width: 197
Flags: W
LayerCount: 2
Fore
SplineSet
20 186 m 1,0,-1
 20 189 l 1,1,-1
 19 327 l 2,2,3
 19 332 19 332 28.5 341.5 c 128,-1,4
 38 351 38 351 52.5 361 c 128,-1,5
 67 371 67 371 84 380.5 c 128,-1,6
 101 390 101 390 115.5 394 c 128,-1,7
 130 398 130 398 139.5 396 c 128,-1,8
 149 394 149 394 149 382 c 2,9,-1
 149 306 l 2,10,11
 149 286 149 286 148.5 275 c 128,-1,12
 148 264 148 264 146.5 257.5 c 128,-1,13
 145 251 145 251 142.5 247 c 128,-1,14
 140 243 140 243 136 237 c 0,15,16
 118 228 118 228 100.5 219 c 128,-1,17
 83 210 83 210 67.5 202.5 c 128,-1,18
 52 195 52 195 39.5 190.5 c 128,-1,19
 27 186 27 186 20 186 c 1,0,-1
EndSplineSet
EndChar

StartChar: .0050
Encoding: 50 50 19
Width: 199
Flags: W
LayerCount: 2
Fore
SplineSet
21 690 m 1,0,1
 40 706 40 706 66 720.5 c 128,-1,2
 92 735 92 735 117 745 c 128,-1,3
 142 755 142 755 161.5 758.5 c 128,-1,4
 181 762 181 762 186 756 c 1,5,6
 178 735 178 735 172 714.5 c 128,-1,7
 166 694 166 694 166 679 c 0,8,9
 166 670 166 670 171 665 c 1,10,11
 139 659 139 659 114.5 648.5 c 128,-1,12
 90 638 90 638 71.5 627.5 c 128,-1,13
 53 617 53 617 40 608.5 c 128,-1,14
 27 600 27 600 19 598 c 1,15,16
 19 602 19 602 18.5 614 c 128,-1,17
 18 626 18 626 17.5 640.5 c 128,-1,18
 17 655 17 655 17.5 668.5 c 128,-1,19
 18 682 18 682 21 690 c 1,0,1
EndSplineSet
EndChar

StartChar: .0051
Encoding: 51 51 20
Width: -2
Flags: W
LayerCount: 2
Fore
SplineSet
-744 563 m 2,0,1
 -744 576 -744 576 -728 602 c 128,-1,2
 -712 628 -712 628 -691 652.5 c 128,-1,3
 -670 677 -670 677 -649.5 692 c 128,-1,4
 -629 707 -629 707 -620 698 c 1,5,-1
 -620 531 l 1,6,7
 -634 531 -634 531 -649.5 519 c 128,-1,8
 -665 507 -665 507 -680.5 487.5 c 128,-1,9
 -696 468 -696 468 -712 444.5 c 128,-1,10
 -728 421 -728 421 -744 397 c 1,11,-1
 -744 563 l 2,0,1
EndSplineSet
EndChar

StartChar: .0052
Encoding: 52 52 21
Width: 5
Flags: W
LayerCount: 2
Fore
SplineSet
-232 272 m 2,0,-1
 -212 455 l 1,1,-1
 -223 454 l 1,2,3
 -235 378 -235 378 -243.5 342 c 128,-1,4
 -252 306 -252 306 -265 298 c 128,-1,5
 -278 290 -278 290 -293 292 c 128,-1,6
 -308 294 -308 294 -314 320 c 0,7,8
 -318 336 -318 336 -319 351 c 128,-1,9
 -320 366 -320 366 -320 382 c 256,10,11
 -320 398 -320 398 -319 415.5 c 128,-1,12
 -318 433 -318 433 -317 455 c 1,13,-1
 -327 455 l 1,14,15
 -339 371 -339 371 -341 312.5 c 128,-1,16
 -343 254 -343 254 -325 240 c 0,17,18
 -312 230 -312 230 -297.5 227.5 c 128,-1,19
 -283 225 -283 225 -270 229 c 128,-1,20
 -257 233 -257 233 -247 244 c 128,-1,21
 -237 255 -237 255 -232 272 c 2,0,-1
EndSplineSet
EndChar

StartChar: .0053
Encoding: 53 53 22
Width: 2
Flags: W
LayerCount: 2
Fore
SplineSet
-26 400 m 0,0,1
 -7 400 -7 400 3.5 413.5 c 128,-1,2
 14 427 14 427 19 447.5 c 128,-1,3
 24 468 24 468 24.5 492 c 128,-1,4
 25 516 25 516 25 537 c 1,5,-1
 13 537 l 1,6,7
 12 528 12 528 11 513 c 128,-1,8
 10 498 10 498 6 483.5 c 128,-1,9
 2 469 2 469 -5.5 458 c 128,-1,10
 -13 447 -13 447 -28 447 c 0,11,12
 -53 447 -53 447 -60.5 474 c 128,-1,13
 -68 501 -68 501 -63 540 c 1,14,-1
 -74 538 l 1,15,16
 -86 458 -86 458 -77 428.5 c 128,-1,17
 -68 399 -68 399 -26 400 c 0,0,1
EndSplineSet
EndChar

StartChar: .0054
Encoding: 54 54 23
Width: 177
Flags: W
LayerCount: 2
Fore
SplineSet
71 440 m 1,0,1
 62 392 62 392 55 351.5 c 128,-1,2
 48 311 48 311 61 271 c 0,3,4
 64 254 64 254 71 248.5 c 128,-1,5
 78 243 78 243 86 246 c 128,-1,6
 94 249 94 249 102 259.5 c 128,-1,7
 110 270 110 270 115 285 c 0,8,9
 117 290 117 290 122.5 313.5 c 128,-1,10
 128 337 128 337 133.5 365 c 128,-1,11
 139 393 139 393 143.5 419 c 128,-1,12
 148 445 148 445 148 456 c 1,13,-1
 166 453 l 1,14,15
 165 438 165 438 162 414.5 c 128,-1,16
 159 391 159 391 155 364.5 c 128,-1,17
 151 338 151 338 146 310 c 128,-1,18
 141 282 141 282 135.5 259 c 128,-1,19
 130 236 130 236 125 220 c 128,-1,20
 120 204 120 204 115 200 c 0,21,22
 102 189 102 189 94 184.5 c 128,-1,23
 86 180 86 180 75 180 c 0,24,25
 71 180 71 180 66.5 180.5 c 128,-1,26
 62 181 62 181 56 182 c 0,27,28
 45 184 45 184 39.5 203 c 128,-1,29
 34 222 34 222 33 249 c 128,-1,30
 32 276 32 276 34 308 c 128,-1,31
 36 340 36 340 39.5 368 c 128,-1,32
 43 396 43 396 47 416 c 128,-1,33
 51 436 51 436 54 440 c 1,34,-1
 71 440 l 1,0,1
EndSplineSet
EndChar

StartChar: .0055
Encoding: 55 55 24
Width: 2
Flags: W
LayerCount: 2
Fore
SplineSet
-220 434 m 1,0,1
 -218 452 -218 452 -218 467 c 0,2,3
 -218 483 -218 483 -218.5 498.5 c 128,-1,4
 -219 514 -219 514 -219.5 530.5 c 128,-1,5
 -220 547 -220 547 -220 568 c 1,6,7
 -202 555 -202 555 -183 535.5 c 128,-1,8
 -164 516 -164 516 -146 494.5 c 128,-1,9
 -128 473 -128 473 -111 451.5 c 128,-1,10
 -94 430 -94 430 -80 412 c 1,11,12
 -80 389 -80 389 -80 371 c 0,13,14
 -80 354 -80 354 -81 339.5 c 128,-1,15
 -82 325 -82 325 -83.5 312 c 128,-1,16
 -85 299 -85 299 -88 284 c 1,17,18
 -88 284 -88 284 -101.5 300.5 c 128,-1,19
 -115 317 -115 317 -135 340.5 c 128,-1,20
 -155 364 -155 364 -178 389.5 c 128,-1,21
 -201 415 -201 415 -220 434 c 1,0,1
EndSplineSet
EndChar

StartChar: .0056
Encoding: 56 56 25
Width: 165
Flags: W
LayerCount: 2
Fore
SplineSet
119 170 m 1,0,-1
 141 174 l 1,1,2
 143 223 143 223 144 269.5 c 128,-1,3
 145 316 145 316 140.5 353 c 128,-1,4
 136 390 136 390 123 413 c 128,-1,5
 110 436 110 436 84 437 c 0,6,7
 65 438 65 438 53.5 422 c 128,-1,8
 42 406 42 406 36 379.5 c 128,-1,9
 30 353 30 353 28 320.5 c 128,-1,10
 26 288 26 288 25.5 256.5 c 128,-1,11
 25 225 25 225 25.5 197.5 c 128,-1,12
 26 170 26 170 25 155 c 1,13,-1
 44 154 l 1,14,15
 45 176 45 176 44.5 210 c 128,-1,16
 44 244 44 244 46.5 275.5 c 128,-1,17
 49 307 49 307 58 330.5 c 128,-1,18
 67 354 67 354 87 356 c 0,19,20
 104 357 104 357 112 337.5 c 128,-1,21
 120 318 120 318 122 288.5 c 128,-1,22
 124 259 124 259 122.5 226.5 c 128,-1,23
 121 194 121 194 119 170 c 1,0,-1
EndSplineSet
EndChar

StartChar: .0057
Encoding: 57 57 26
Width: 2
Flags: W
LayerCount: 2
Fore
SplineSet
-442 339 m 1,0,1
 -431 354 -431 354 -412.5 368 c 128,-1,2
 -394 382 -394 382 -374.5 393.5 c 128,-1,3
 -355 405 -355 405 -337.5 413 c 128,-1,4
 -320 421 -320 421 -312 423 c 1,5,6
 -310 414 -310 414 -307.5 401.5 c 128,-1,7
 -305 389 -305 389 -302 375.5 c 128,-1,8
 -299 362 -299 362 -295 349 c 128,-1,9
 -291 336 -291 336 -286 326 c 1,10,11
 -314 308 -314 308 -349.5 291.5 c 128,-1,12
 -385 275 -385 275 -415 251 c 1,13,14
 -429 263 -429 263 -442 339 c 1,0,1
-275 435 m 1,15,-1
 -274 444 l 1,16,17
 -249 461 -249 461 -230.5 473 c 128,-1,18
 -212 485 -212 485 -196 493.5 c 128,-1,19
 -180 502 -180 502 -166 508.5 c 128,-1,20
 -152 515 -152 515 -135 521 c 1,21,22
 -133 503 -133 503 -127 473.5 c 128,-1,23
 -121 444 -121 444 -110 423 c 1,24,25
 -131 415 -131 415 -153 403.5 c 128,-1,26
 -175 392 -175 392 -194 381 c 128,-1,27
 -213 370 -213 370 -227.5 360.5 c 128,-1,28
 -242 351 -242 351 -249 347 c 1,29,30
 -256 353 -256 353 -263 375 c 128,-1,31
 -270 397 -270 397 -275 435 c 1,15,-1
EndSplineSet
EndChar

StartChar: .0058
Encoding: 58 58 27
Width: 10
Flags: W
LayerCount: 2
Fore
SplineSet
-509 723 m 1,0,1
 -501 735 -501 735 -485.5 749.5 c 128,-1,2
 -470 764 -470 764 -452 777.5 c 128,-1,3
 -434 791 -434 791 -417.5 802.5 c 128,-1,4
 -401 814 -401 814 -391 820 c 1,5,6
 -389 811 -389 811 -384.5 798 c 128,-1,7
 -380 785 -380 785 -374 770.5 c 128,-1,8
 -368 756 -368 756 -361 742.5 c 128,-1,9
 -354 729 -354 729 -348 720 c 1,10,11
 -386 702 -386 702 -413 678.5 c 128,-1,12
 -440 655 -440 655 -458 638 c 1,13,14
 -465 643 -465 643 -481.5 664.5 c 128,-1,15
 -498 686 -498 686 -509 723 c 1,0,1
-359 837 m 1,16,17
 -320 869 -320 869 -289 888 c 128,-1,18
 -258 907 -258 907 -226 922 c 1,19,20
 -222 904 -222 904 -212.5 875.5 c 128,-1,21
 -203 847 -203 847 -191 827 c 1,22,23
 -212 817 -212 817 -231.5 804.5 c 128,-1,24
 -251 792 -251 792 -267.5 780 c 128,-1,25
 -284 768 -284 768 -295.5 758.5 c 128,-1,26
 -307 749 -307 749 -312 745 c 1,27,28
 -320 752 -320 752 -335 777 c 128,-1,29
 -350 802 -350 802 -359 837 c 1,16,17
-653 581 m 1,30,31
 -645 603 -645 603 -614 635.5 c 128,-1,32
 -583 668 -583 668 -540 694 c 1,33,34
 -536 676 -536 676 -523.5 650 c 128,-1,35
 -511 624 -511 624 -499 604 c 1,36,37
 -535 574 -535 574 -557 552.5 c 128,-1,38
 -579 531 -579 531 -603 505 c 1,39,40
 -612 514 -612 514 -618 521.5 c 128,-1,41
 -624 529 -624 529 -629 537 c 128,-1,42
 -634 545 -634 545 -639.5 555.5 c 128,-1,43
 -645 566 -645 566 -653 581 c 1,30,31
EndSplineSet
EndChar

StartChar: .0059
Encoding: 59 59 28
Width: 2
Flags: W
LayerCount: 2
Fore
SplineSet
-646 587 m 1,0,1
 -642 598 -642 598 -633.5 613 c 128,-1,2
 -625 628 -625 628 -612.5 644 c 128,-1,3
 -600 660 -600 660 -583.5 675.5 c 128,-1,4
 -567 691 -567 691 -547 703 c 1,5,6
 -552 714 -552 714 -556.5 727.5 c 128,-1,7
 -561 741 -561 741 -564 753 c 1,8,9
 -556 757 -556 757 -553 757 c 0,10,11
 -550 746 -550 746 -543 725 c 128,-1,12
 -536 704 -536 704 -527 681 c 128,-1,13
 -518 658 -518 658 -508.5 638 c 128,-1,14
 -499 618 -499 618 -492 610 c 1,15,16
 -528 580 -528 580 -550 557.5 c 128,-1,17
 -572 535 -572 535 -596 510 c 1,18,19
 -605 519 -605 519 -611 526.5 c 128,-1,20
 -617 534 -617 534 -622 542.5 c 128,-1,21
 -627 551 -627 551 -632.5 561.5 c 128,-1,22
 -638 572 -638 572 -646 587 c 1,0,1
-502 736 m 1,23,24
 -494 749 -494 749 -478.5 763.5 c 128,-1,25
 -463 778 -463 778 -445.5 790.5 c 128,-1,26
 -428 803 -428 803 -412 812 c 128,-1,27
 -396 821 -396 821 -387 824 c 1,28,29
 -385 815 -385 815 -380 802 c 128,-1,30
 -375 789 -375 789 -368 775 c 128,-1,31
 -361 761 -361 761 -354 748 c 128,-1,32
 -347 735 -347 735 -341 726 c 1,33,34
 -379 708 -379 708 -406 684.5 c 128,-1,35
 -433 661 -433 661 -451 644 c 1,36,37
 -458 649 -458 649 -474.5 674 c 128,-1,38
 -491 699 -491 699 -502 736 c 1,23,24
-352 843 m 1,39,40
 -329 863 -329 863 -311.5 876 c 128,-1,41
 -294 889 -294 889 -279 898 c 128,-1,42
 -264 907 -264 907 -251 914 c 128,-1,43
 -238 921 -238 921 -225 928 c 1,44,45
 -223 919 -223 919 -218.5 907 c 128,-1,46
 -214 895 -214 895 -208.5 882 c 128,-1,47
 -203 869 -203 869 -196.5 856 c 128,-1,48
 -190 843 -190 843 -184 833 c 1,49,50
 -205 823 -205 823 -224.5 810.5 c 128,-1,51
 -244 798 -244 798 -260.5 786 c 128,-1,52
 -277 774 -277 774 -288.5 764.5 c 128,-1,53
 -300 755 -300 755 -305 751 c 1,54,55
 -313 758 -313 758 -328 783 c 128,-1,56
 -343 808 -343 808 -352 843 c 1,39,40
EndSplineSet
EndChar

StartChar: .0060
Encoding: 60 60 29
Width: 852
Flags: W
LayerCount: 2
Fore
SplineSet
780 724 m 1,0,1
 766 734 766 734 751 743.5 c 128,-1,2
 736 753 736 753 713 766 c 1,3,4
 653 746 653 746 590 710 c 128,-1,5
 527 674 527 674 463.5 628 c 128,-1,6
 400 582 400 582 337.5 528 c 128,-1,7
 275 474 275 474 217 418 c 128,-1,8
 159 362 159 362 107 305.5 c 128,-1,9
 55 249 55 249 12 198 c 1,10,11
 12 185 12 185 15 176 c 128,-1,12
 18 167 18 167 32 146 c 1,13,-1
 31 144 l 1,14,15
 88 202 88 202 149.5 263 c 128,-1,16
 211 324 211 324 273 381 c 128,-1,17
 335 438 335 438 394.5 488.5 c 128,-1,18
 454 539 454 539 508.5 577.5 c 128,-1,19
 563 616 563 616 610 639 c 128,-1,20
 657 662 657 662 692 664 c 0,21,22
 701 664 701 664 717.5 656.5 c 128,-1,23
 734 649 734 649 750 640.5 c 128,-1,24
 766 632 766 632 778 626.5 c 128,-1,25
 790 621 790 621 790 625 c 0,26,27
 792 643 792 643 803.5 682 c 128,-1,28
 815 721 815 721 829 799 c 1,29,-1
 807 801 l 2,30,31
 806 800 806 800 803 793 c 128,-1,32
 800 786 800 786 796 775 c 128,-1,33
 792 764 792 764 787.5 750.5 c 128,-1,34
 783 737 783 737 780 724 c 1,0,1
EndSplineSet
EndChar

StartChar: .0061
Encoding: 61 61 30
Width: 2
Flags: W
LayerCount: 2
Fore
SplineSet
-406 800 m 1,0,1
 -402 782 -402 782 -393 755.5 c 128,-1,2
 -384 729 -384 729 -371 706 c 1,3,4
 -409 688 -409 688 -439 664.5 c 128,-1,5
 -469 641 -469 641 -505 599 c 1,6,7
 -508 602 -508 602 -517 622 c 128,-1,8
 -526 642 -526 642 -536 668 c 128,-1,9
 -546 694 -546 694 -555.5 721.5 c 128,-1,10
 -565 749 -565 749 -570 767 c 1,11,-1
 -557 773 l 1,12,-1
 -531 710 l 1,13,14
 -516 730 -516 730 -497 745.5 c 128,-1,15
 -478 761 -478 761 -460 772 c 128,-1,16
 -442 783 -442 783 -427 790 c 128,-1,17
 -412 797 -412 797 -406 800 c 1,0,1
EndSplineSet
EndChar

StartChar: .0062
Encoding: 62 62 31
Width: 2
Flags: W
LayerCount: 2
Fore
SplineSet
-417 413 m 1,0,1
 -408 424 -408 424 -390.5 436.5 c 128,-1,2
 -373 449 -373 449 -353.5 460 c 128,-1,3
 -334 471 -334 471 -316 480 c 128,-1,4
 -298 489 -298 489 -287 494 c 1,5,6
 -286 485 -286 485 -283.5 471.5 c 128,-1,7
 -281 458 -281 458 -277 443 c 128,-1,8
 -273 428 -273 428 -268 413.5 c 128,-1,9
 -263 399 -263 399 -258 389 c 1,10,11
 -297 376 -297 376 -327 356 c 128,-1,12
 -357 336 -357 336 -377 322 c 1,13,14
 -383 328 -383 328 -397 351.5 c 128,-1,15
 -411 375 -411 375 -417 413 c 1,0,1
-253 507 m 1,16,17
 -210 533 -210 533 -177 548 c 128,-1,18
 -144 563 -144 563 -110 574 c 1,19,20
 -109 555 -109 555 -103 526 c 128,-1,21
 -97 497 -97 497 -88 475 c 1,22,23
 -110 467 -110 467 -131 457.5 c 128,-1,24
 -152 448 -152 448 -169.5 438.5 c 128,-1,25
 -187 429 -187 429 -200 421 c 128,-1,26
 -213 413 -213 413 -219 409 c 1,27,28
 -226 417 -226 417 -237.5 444 c 128,-1,29
 -249 471 -249 471 -253 507 c 1,16,17
-578 291 m 1,30,31
 -573 301 -573 301 -561 314 c 128,-1,32
 -549 327 -549 327 -532 340.5 c 128,-1,33
 -515 354 -515 354 -494.5 366.5 c 128,-1,34
 -474 379 -474 379 -451 389 c 1,35,36
 -450 370 -450 370 -441 343 c 128,-1,37
 -432 316 -432 316 -423 294 c 1,38,39
 -443 282 -443 282 -458.5 271.5 c 128,-1,40
 -474 261 -474 261 -487.5 251 c 128,-1,41
 -501 241 -501 241 -513.5 231 c 128,-1,42
 -526 221 -526 221 -539 209 c 1,43,44
 -546 219 -546 219 -551 227 c 128,-1,45
 -556 235 -556 235 -560 244 c 128,-1,46
 -564 253 -564 253 -568 264 c 128,-1,47
 -572 275 -572 275 -578 291 c 1,30,31
EndSplineSet
EndChar

StartChar: .0063
Encoding: 63 63 32
Width: 5
Flags: W
LayerCount: 2
Fore
SplineSet
-342 611 m 1,0,-1
 -342 612 l 1,1,-1
 -327 612 l 1,2,-1
 -354 247 l 1,3,-1
 -369 247 l 1,4,5
 -365 306 -365 306 -362 348 c 128,-1,6
 -359 390 -359 390 -356 429 c 128,-1,7
 -353 468 -353 468 -349.5 510 c 128,-1,8
 -346 552 -346 552 -342 611 c 1,0,-1
EndSplineSet
EndChar

StartChar: .0065
Encoding: 65 65 33
Width: 397
Flags: W
LayerCount: 2
Fore
SplineSet
210 809 m 0,0,1
 239 809 239 809 260.5 801 c 128,-1,2
 282 793 282 793 297 781.5 c 128,-1,3
 312 770 312 770 322 758.5 c 128,-1,4
 332 747 332 747 339 740 c 1,5,-1
 326 918 l 1,6,-1
 354 915 l 1,7,-1
 365 693 l 2,8,9
 368 669 368 669 368 618 c 0,10,11
 368 577 368 577 366.5 523 c 128,-1,12
 365 469 365 469 362 410 c 128,-1,13
 359 351 359 351 355 290.5 c 128,-1,14
 351 230 351 230 345.5 177 c 128,-1,15
 340 124 340 124 333 81.5 c 128,-1,16
 326 39 326 39 318 16 c 1,17,-1
 296 20 l 1,18,-1
 325 486 l 2,19,20
 327 524 327 524 323 559.5 c 128,-1,21
 319 595 319 595 305.5 622 c 128,-1,22
 292 649 292 649 266 664 c 128,-1,23
 240 679 240 679 198 676 c 0,24,25
 189 675 189 675 173.5 663.5 c 128,-1,26
 158 652 158 652 141.5 630.5 c 128,-1,27
 125 609 125 609 110.5 577.5 c 128,-1,28
 96 546 96 546 89 505 c 0,29,30
 75 419 75 419 66.5 353 c 128,-1,31
 58 287 58 287 53.5 230.5 c 128,-1,32
 49 174 49 174 49.5 123 c 128,-1,33
 50 72 50 72 54 16 c 0,34,35
 52 15 52 15 46 15 c 2,36,-1
 38 15 l 1,37,-1
 30 15 l 2,38,39
 24 15 24 15 22 14 c 1,40,41
 18 36 18 36 16.5 81.5 c 128,-1,42
 15 127 15 127 16.5 187 c 128,-1,43
 18 247 18 247 23.5 316 c 128,-1,44
 29 385 29 385 39 454.5 c 128,-1,45
 49 524 49 524 64 588 c 128,-1,46
 79 652 79 652 100 701 c 128,-1,47
 121 750 121 750 148 779.5 c 128,-1,48
 175 809 175 809 210 809 c 0,0,1
EndSplineSet
EndChar

StartChar: .0066
Encoding: 66 66 34
Width: 317
Flags: W
LayerCount: 2
Fore
SplineSet
14 373 m 1,0,1
 18 379 18 379 20.5 400 c 128,-1,2
 23 421 23 421 26.5 444.5 c 128,-1,3
 30 468 30 468 36 487.5 c 128,-1,4
 42 507 42 507 53 509 c 1,5,6
 66 474 66 474 82.5 429.5 c 128,-1,7
 99 385 99 385 115 344.5 c 128,-1,8
 131 304 131 304 144.5 275 c 128,-1,9
 158 246 158 246 164 243 c 1,10,11
 160 234 160 234 156 221.5 c 128,-1,12
 152 209 152 209 147 194.5 c 128,-1,13
 142 180 142 180 136 165 c 128,-1,14
 130 150 130 150 123 138 c 0,15,16
 121 135 121 135 114.5 146.5 c 128,-1,17
 108 158 108 158 99 178.5 c 128,-1,18
 90 199 90 199 79 226 c 128,-1,19
 68 253 68 253 56.5 280 c 128,-1,20
 45 307 45 307 34 332 c 128,-1,21
 23 357 23 357 14 373 c 1,0,1
164 408 m 1,22,23
 169 415 169 415 174.5 433 c 128,-1,24
 180 451 180 451 185.5 472 c 128,-1,25
 191 493 191 493 196.5 513.5 c 128,-1,26
 202 534 202 534 207 545 c 1,27,28
 212 530 212 530 221 504.5 c 128,-1,29
 230 479 230 479 240.5 450 c 128,-1,30
 251 421 251 421 262 391.5 c 128,-1,31
 273 362 273 362 282 338.5 c 128,-1,32
 291 315 291 315 296.5 300.5 c 128,-1,33
 302 286 302 286 302 287 c 1,34,35
 302 283 302 283 297.5 269 c 128,-1,36
 293 255 293 255 285.5 238.5 c 128,-1,37
 278 222 278 222 268.5 206.5 c 128,-1,38
 259 191 259 191 249 185 c 1,39,40
 248 188 248 188 242 204 c 128,-1,41
 236 220 236 220 227.5 242 c 128,-1,42
 219 264 219 264 209 289.5 c 128,-1,43
 199 315 199 315 190 339 c 128,-1,44
 181 363 181 363 174 381.5 c 128,-1,45
 167 400 167 400 164 408 c 1,22,23
EndSplineSet
EndChar

StartChar: .0067
Encoding: 67 67 35
Width: 416
Flags: W
LayerCount: 2
Fore
SplineSet
7 128 m 0,0,1
 6 136 6 136 7.5 149.5 c 128,-1,2
 9 163 9 163 12.5 178.5 c 128,-1,3
 16 194 16 194 21.5 210.5 c 128,-1,4
 27 227 27 227 34 242 c 1,5,6
 42 231 42 231 64 213 c 128,-1,7
 86 195 86 195 114.5 177 c 128,-1,8
 143 159 143 159 173.5 145.5 c 128,-1,9
 204 132 204 132 228 131 c 1,10,11
 222 105 222 105 218.5 91 c 128,-1,12
 215 77 215 77 215 66 c 256,13,14
 215 55 215 55 217.5 44 c 128,-1,15
 220 33 220 33 226 14 c 1,16,17
 204 20 204 20 168.5 32.5 c 128,-1,18
 133 45 133 45 98.5 60.5 c 128,-1,19
 64 76 64 76 37.5 93.5 c 128,-1,20
 11 111 11 111 7 128 c 0,0,1
25 304 m 0,21,22
 28 322 28 322 30 331 c 128,-1,23
 32 340 32 340 34.5 348.5 c 128,-1,24
 37 357 37 357 39 367.5 c 128,-1,25
 41 378 41 378 44 398 c 1,26,27
 48 391 48 391 73.5 375 c 128,-1,28
 99 359 99 359 131 342 c 128,-1,29
 163 325 163 325 192.5 312 c 128,-1,30
 222 299 222 299 234 299 c 1,31,32
 228 257 228 257 225.5 233.5 c 128,-1,33
 223 210 223 210 223 198 c 2,34,-1
 223 185 l 1,35,-1
 223 177 l 1,36,37
 219 177 219 177 203 184.5 c 128,-1,38
 187 192 187 192 165 203.5 c 128,-1,39
 143 215 143 215 118.5 229 c 128,-1,40
 94 243 94 243 73 257 c 128,-1,41
 52 271 52 271 38.5 283.5 c 128,-1,42
 25 296 25 296 25 304 c 0,21,22
280 452 m 0,43,44
 282 460 282 460 281.5 489.5 c 128,-1,45
 281 519 281 519 273 551.5 c 128,-1,46
 265 584 265 584 247.5 609.5 c 128,-1,47
 230 635 230 635 199 635 c 0,48,49
 154 635 154 635 126 616 c 128,-1,50
 98 597 98 597 82.5 567 c 128,-1,51
 67 537 67 537 63 499 c 128,-1,52
 59 461 59 461 62 424 c 1,53,-1
 41 424 l 1,54,55
 31 488 31 488 37.5 550.5 c 128,-1,56
 44 613 44 613 67 660 c 128,-1,57
 90 707 90 707 130.5 731.5 c 128,-1,58
 171 756 171 756 230 744 c 0,59,60
 258 742 258 742 278.5 727 c 128,-1,61
 299 712 299 712 312 689.5 c 128,-1,62
 325 667 325 667 329.5 639 c 128,-1,63
 334 611 334 611 330 584 c 2,64,-1
 303 300 l 1,65,-1
 406 339 l 1,66,67
 398 312 398 312 393 293 c 128,-1,68
 388 274 388 274 385.5 260 c 128,-1,69
 383 246 383 246 382 235 c 128,-1,70
 381 224 381 224 381 213 c 2,71,-1
 381 198 l 1,72,-1
 381 190 l 2,73,74
 381 183 381 183 382 181 c 1,75,76
 331 171 331 171 309.5 147.5 c 128,-1,77
 288 124 288 124 280 96 c 1,78,-1
 263 96 l 1,79,80
 275 208 275 208 279 275.5 c 128,-1,81
 283 343 283 343 283.5 380 c 128,-1,82
 284 417 284 417 282 431.5 c 128,-1,83
 280 446 280 446 280 452 c 0,43,44
EndSplineSet
EndChar

StartChar: .0068
Encoding: 68 68 36
Width: 254
Flags: W
LayerCount: 2
Fore
SplineSet
212 550 m 1,0,1
 210 584 210 584 209 616.5 c 128,-1,2
 208 649 208 649 210 683 c 1,3,-1
 228 683 l 1,4,-1
 228 531 l 2,5,6
 226 498 226 498 226.5 485 c 128,-1,7
 227 472 227 472 228 465 c 0,8,9
 229 464 229 464 229 453 c 0,10,11
 229 451 229 451 228.5 445.5 c 128,-1,12
 228 440 228 440 227 432 c 1,13,14
 189 423 189 423 161.5 410 c 128,-1,15
 134 397 134 397 116.5 385 c 128,-1,16
 99 373 99 373 91 365 c 128,-1,17
 83 357 83 357 83 357 c 2,18,19
 80 358 80 358 77 361.5 c 128,-1,20
 74 365 74 365 72 377.5 c 128,-1,21
 70 390 70 390 69.5 415.5 c 128,-1,22
 69 441 69 441 71 486 c 0,23,24
 71 487 71 487 83 499.5 c 128,-1,25
 95 512 95 512 114.5 525.5 c 128,-1,26
 134 539 134 539 159.5 547.5 c 128,-1,27
 185 556 185 556 212 550 c 1,0,1
188 178 m 1,28,29
 140 166 140 166 102.5 145.5 c 128,-1,30
 65 125 65 125 28 102 c 1,31,-1
 25 225 l 2,32,33
 25 226 25 226 40.5 240.5 c 128,-1,34
 56 255 56 255 80 270.5 c 128,-1,35
 104 286 104 286 133.5 297 c 128,-1,36
 163 308 163 308 191 303 c 1,37,38
 183 263 183 263 183.5 234 c 128,-1,39
 184 205 184 205 188 178 c 1,28,29
EndSplineSet
EndChar

StartChar: .0069
Encoding: 69 69 37
Width: 336
Flags: W
LayerCount: 2
Fore
SplineSet
11 139 m 0,0,1
 15 122 15 122 41.5 104.5 c 128,-1,2
 68 87 68 87 102.5 71.5 c 128,-1,3
 137 56 137 56 172.5 43.5 c 128,-1,4
 208 31 208 31 230 25 c 1,5,6
 224 44 224 44 221.5 55 c 128,-1,7
 219 66 219 66 219 77 c 256,8,9
 219 88 219 88 222.5 102 c 128,-1,10
 226 116 226 116 232 142 c 1,11,12
 208 143 208 143 177.5 156.5 c 128,-1,13
 147 170 147 170 118.5 188 c 128,-1,14
 90 206 90 206 68 224 c 128,-1,15
 46 242 46 242 38 253 c 1,16,17
 31 238 31 238 25.5 221.5 c 128,-1,18
 20 205 20 205 16.5 189.5 c 128,-1,19
 13 174 13 174 11.5 160.5 c 128,-1,20
 10 147 10 147 11 139 c 0,0,1
29 315 m 0,21,22
 29 307 29 307 42.5 294.5 c 128,-1,23
 56 282 56 282 77 268 c 128,-1,24
 98 254 98 254 122.5 240 c 128,-1,25
 147 226 147 226 169 214.5 c 128,-1,26
 191 203 191 203 207 195.5 c 128,-1,27
 223 188 223 188 227 188 c 1,28,-1
 227 196 l 2,29,30
 227 201 227 201 227 209 c 256,31,32
 227 217 227 217 228 230 c 128,-1,33
 229 243 229 243 231.5 262.5 c 128,-1,34
 234 282 234 282 238 310 c 1,35,36
 226 310 226 310 196.5 323 c 128,-1,37
 167 336 167 336 135 353 c 128,-1,38
 103 370 103 370 77.5 386 c 128,-1,39
 52 402 52 402 48 409 c 1,40,41
 45 389 45 389 43 378.5 c 128,-1,42
 41 368 41 368 38.5 359.5 c 128,-1,43
 36 351 36 351 34 342 c 128,-1,44
 32 333 32 333 29 315 c 0,21,22
66 435 m 1,45,46
 63 472 63 472 64 510 c 128,-1,47
 65 548 65 548 76 577 c 128,-1,48
 87 606 87 606 111.5 622 c 128,-1,49
 136 638 136 638 181 632 c 0,50,51
 208 628 208 628 227 614.5 c 128,-1,52
 246 601 246 601 258 570.5 c 128,-1,53
 270 540 270 540 276.5 489.5 c 128,-1,54
 283 439 283 439 286 361 c 1,55,-1
 303 361 l 1,56,-1
 322 598 l 2,57,58
 331 710 331 710 230 715 c 1,59,60
 172 727 172 727 132 709 c 128,-1,61
 92 691 92 691 69.5 651.5 c 128,-1,62
 47 612 47 612 41 555.5 c 128,-1,63
 35 499 35 499 45 435 c 1,64,-1
 66 435 l 1,45,46
EndSplineSet
EndChar

StartChar: .0070
Encoding: 70 70 38
Width: 320
Flags: W
LayerCount: 2
Fore
SplineSet
134 139 m 2,0,1
 148 139 148 139 149 138 c 0,2,3
 180 135 180 135 199.5 162 c 128,-1,4
 219 189 219 189 230 227.5 c 128,-1,5
 241 266 241 266 244.5 305.5 c 128,-1,6
 248 345 248 345 248 367 c 256,7,8
 248 389 248 389 232.5 409.5 c 128,-1,9
 217 430 217 430 198 456 c 128,-1,10
 179 482 179 482 161.5 517.5 c 128,-1,11
 144 553 144 553 140 604 c 1,12,13
 152 644 152 644 163.5 669 c 128,-1,14
 175 694 175 694 182 696.5 c 128,-1,15
 189 699 189 699 188 675.5 c 128,-1,16
 187 652 187 652 174 596 c 1,17,18
 171 561 171 561 185.5 532.5 c 128,-1,19
 200 504 200 504 221 480.5 c 128,-1,20
 242 457 242 457 263 437.5 c 128,-1,21
 284 418 284 418 295 401 c 1,22,23
 296 332 296 332 287.5 263.5 c 128,-1,24
 279 195 279 195 257 140.5 c 128,-1,25
 235 86 235 86 198 52 c 128,-1,26
 161 18 161 18 106 18 c 0,27,28
 78 18 78 18 59.5 38 c 128,-1,29
 41 58 41 58 30.5 89 c 128,-1,30
 20 120 20 120 17 157.5 c 128,-1,31
 14 195 14 195 16.5 230 c 128,-1,32
 19 265 19 265 26.5 292.5 c 128,-1,33
 34 320 34 320 45 332 c 1,34,-1
 67 328 l 1,35,36
 64 261 64 261 67.5 223 c 128,-1,37
 71 185 71 185 78.5 166.5 c 128,-1,38
 86 148 86 148 96 143.5 c 128,-1,39
 106 139 106 139 117 139 c 2,40,-1
 134 139 l 2,0,1
60 434 m 1,41,42
 52 410 52 410 49.5 399 c 128,-1,43
 47 388 47 388 47 382 c 256,44,45
 47 376 47 376 51 369 c 0,46,47
 64 355 64 355 89.5 344 c 128,-1,48
 115 333 115 333 140 327 c 128,-1,49
 165 321 165 321 184 320.5 c 128,-1,50
 203 320 203 320 203 326 c 2,51,-1
 200 388 l 1,52,53
 176 387 176 387 152 397 c 128,-1,54
 128 407 128 407 108 418 c 128,-1,55
 88 429 88 429 75 435.5 c 128,-1,56
 62 442 62 442 60 433 c 2,57,-1
 60 434 l 1,41,42
EndSplineSet
EndChar

StartChar: .0071
Encoding: 71 71 39
Width: 609
Flags: W
LayerCount: 2
Fore
SplineSet
341 756 m 1,0,-1
 362 755 l 1,1,-1
 325 159 l 1,2,-1
 304 160 l 1,3,4
 313 310 313 310 322.5 458 c 128,-1,5
 332 606 332 606 341 756 c 1,0,-1
221 598 m 0,6,7
 241 597 241 597 261 585.5 c 128,-1,8
 281 574 281 574 286 541 c 1,9,-1
 230 17 l 1,10,-1
 194 16 l 1,11,12
 196 111 196 111 205 187.5 c 128,-1,13
 214 264 214 264 217.5 315.5 c 128,-1,14
 221 367 221 367 212.5 392 c 128,-1,15
 204 417 204 417 172 408 c 0,16,17
 142 400 142 400 123 373.5 c 128,-1,18
 104 347 104 347 90 299.5 c 128,-1,19
 76 252 76 252 62.5 182 c 128,-1,20
 49 112 49 112 28 16 c 1,21,-1
 0 18 l 1,22,23
 1 27 1 27 5.5 57 c 128,-1,24
 10 87 10 87 17 130 c 128,-1,25
 24 173 24 173 34.5 225 c 128,-1,26
 45 277 45 277 58.5 329.5 c 128,-1,27
 72 382 72 382 88.5 431 c 128,-1,28
 105 480 105 480 125.5 518 c 128,-1,29
 146 556 146 556 169.5 578 c 128,-1,30
 193 600 193 600 221 598 c 0,6,7
600 707 m 1,31,32
 597 694 597 694 592.5 667.5 c 128,-1,33
 588 641 588 641 585 611.5 c 128,-1,34
 582 582 582 582 582.5 556.5 c 128,-1,35
 583 531 583 531 589 521 c 1,36,37
 567 525 567 525 540 517 c 128,-1,38
 513 509 513 509 485 496.5 c 128,-1,39
 457 484 457 484 430.5 469.5 c 128,-1,40
 404 455 404 455 383 445 c 1,41,42
 382 436 382 436 384 444.5 c 128,-1,43
 386 453 386 453 389 471.5 c 128,-1,44
 392 490 392 490 395 514.5 c 128,-1,45
 398 539 398 539 400 563 c 128,-1,46
 402 587 402 587 402.5 607 c 128,-1,47
 403 627 403 627 400 636 c 1,48,49
 426 651 426 651 451.5 665 c 128,-1,50
 477 679 477 679 502.5 689.5 c 128,-1,51
 528 700 528 700 552.5 705 c 128,-1,52
 577 710 577 710 600 707 c 1,31,32
EndSplineSet
EndChar

StartChar: .0072
Encoding: 72 72 40
Width: 244
Flags: W
LayerCount: 2
Fore
SplineSet
127 159 m 0,0,1
 109 159 109 159 94.5 163 c 128,-1,2
 80 167 80 167 70.5 184.5 c 128,-1,3
 61 202 61 202 58.5 238 c 128,-1,4
 56 274 56 274 64 337 c 1,5,-1
 43 340 l 1,6,7
 35 328 35 328 28 301 c 128,-1,8
 21 274 21 274 17.5 240.5 c 128,-1,9
 14 207 14 207 15.5 171.5 c 128,-1,10
 17 136 17 136 26 106.5 c 128,-1,11
 35 77 35 77 53 58 c 128,-1,12
 71 39 71 39 101 39 c 0,13,14
 153 39 153 39 188 71.5 c 128,-1,15
 223 104 223 104 244 156.5 c 128,-1,16
 265 209 265 209 273 274.5 c 128,-1,17
 281 340 281 340 280 407 c 0,18,19
 278 438 278 438 268.5 459.5 c 128,-1,20
 259 481 259 481 247.5 502 c 128,-1,21
 236 523 236 523 225.5 546.5 c 128,-1,22
 215 570 215 570 213 606 c 1,23,24
 225 660 225 660 226 683 c 128,-1,25
 227 706 227 706 220.5 703.5 c 128,-1,26
 214 701 214 701 203 677 c 128,-1,27
 192 653 192 653 181 614 c 1,28,29
 181 561 181 561 189.5 524 c 128,-1,30
 198 487 198 487 208 460 c 128,-1,31
 218 433 218 433 226.5 413 c 128,-1,32
 235 393 235 393 235 375 c 0,33,34
 235 345 235 345 231 307.5 c 128,-1,35
 227 270 227 270 215.5 237 c 128,-1,36
 204 204 204 204 182.5 181.5 c 128,-1,37
 161 159 161 159 127 159 c 0,0,1
EndSplineSet
EndChar

StartChar: .0073
Encoding: 73 73 41
Width: 313
Flags: W
LayerCount: 2
Fore
SplineSet
291 694 m 0,0,1
 291 701 291 701 284 718.5 c 128,-1,2
 277 736 277 736 252.5 756.5 c 128,-1,3
 228 777 228 777 179 796.5 c 128,-1,4
 130 816 130 816 46 826 c 1,5,-1
 25 682 l 1,6,7
 85 677 85 677 127 664 c 128,-1,8
 169 651 169 651 201 637 c 1,9,-1
 161 449 l 1,10,-1
 178 444 l 1,11,-1
 219 633 l 1,12,-1
 217 634 l 2,13,14
 235 625 235 625 242.5 608.5 c 128,-1,15
 250 592 250 592 251.5 573 c 128,-1,16
 253 554 253 554 251 534.5 c 128,-1,17
 249 515 249 515 248 500 c 2,18,-1
 217 34 l 1,19,-1
 248 34 l 1,20,21
 248 29 248 29 250.5 63.5 c 128,-1,22
 253 98 253 98 256.5 155 c 128,-1,23
 260 212 260 212 265 284 c 128,-1,24
 270 356 270 356 274.5 427 c 128,-1,25
 279 498 279 498 282.5 559 c 128,-1,26
 286 620 286 620 288.5 656 c 128,-1,27
 291 692 291 692 291 694 c 0,0,1
EndSplineSet
EndChar

StartChar: .0074
Encoding: 74 74 42
Width: 644
Flags: W
LayerCount: 2
Fore
SplineSet
11 429 m 1,0,1
 51 472 51 472 98 514.5 c 128,-1,2
 145 557 145 557 193.5 595.5 c 128,-1,3
 242 634 242 634 288 667.5 c 128,-1,4
 334 701 334 701 372.5 725.5 c 128,-1,5
 411 750 411 750 439 765 c 128,-1,6
 467 780 467 780 479 782 c 1,7,8
 489 775 489 775 508.5 761.5 c 128,-1,9
 528 748 528 748 549.5 732 c 128,-1,10
 571 716 571 716 589 700.5 c 128,-1,11
 607 685 607 685 614 674 c 1,12,13
 607 658 607 658 605.5 644.5 c 128,-1,14
 604 631 604 631 603.5 619.5 c 128,-1,15
 603 608 603 608 602 599.5 c 128,-1,16
 601 591 601 591 595 585 c 1,17,18
 588 586 588 586 574.5 596.5 c 128,-1,19
 561 607 561 607 544.5 620.5 c 128,-1,20
 528 634 528 634 509.5 646.5 c 128,-1,21
 491 659 491 659 474 664 c 1,22,23
 445 659 445 659 404 635 c 128,-1,24
 363 611 363 611 318 576.5 c 128,-1,25
 273 542 273 542 226.5 502 c 128,-1,26
 180 462 180 462 139.5 425.5 c 128,-1,27
 99 389 99 389 67.5 360 c 128,-1,28
 36 331 36 331 21 319 c 1,29,30
 21 319 21 319 19.5 320 c 128,-1,31
 18 321 18 321 16 331 c 128,-1,32
 14 341 14 341 12.5 364 c 128,-1,33
 11 387 11 387 11 429 c 1,0,1
EndSplineSet
EndChar

StartChar: .0075
Encoding: 75 75 43
Width: 659
Flags: W
LayerCount: 2
Fore
SplineSet
486 762 m 1,0,-1
 485 761 l 1,1,2
 514 749 514 749 538 733.5 c 128,-1,3
 562 718 562 718 579 705 c 128,-1,4
 596 692 596 692 605 684 c 128,-1,5
 614 676 614 676 613 678 c 2,6,-1
 621 735 l 1,7,-1
 635 731 l 1,8,-1
 628 641 l 2,9,10
 626 632 626 632 624 613.5 c 128,-1,11
 622 595 622 595 619.5 577.5 c 128,-1,12
 617 560 617 560 614.5 548.5 c 128,-1,13
 612 537 612 537 609 542 c 0,14,15
 588 563 588 563 566.5 581.5 c 128,-1,16
 545 600 545 600 526.5 613.5 c 128,-1,17
 508 627 508 627 492 634.5 c 128,-1,18
 476 642 476 642 466 642 c 1,19,20
 423 623 423 623 376.5 594 c 128,-1,21
 330 565 330 565 284.5 531.5 c 128,-1,22
 239 498 239 498 196.5 462.5 c 128,-1,23
 154 427 154 427 119 395.5 c 128,-1,24
 84 364 84 364 59.5 339 c 128,-1,25
 35 314 35 314 25 301 c 1,26,27
 25 301 25 301 23.5 302 c 128,-1,28
 22 303 22 303 20 313 c 128,-1,29
 18 323 18 323 16.5 346 c 128,-1,30
 15 369 15 369 15 411 c 1,31,32
 32 433 32 433 62.5 462 c 128,-1,33
 93 491 93 491 132.5 523 c 128,-1,34
 172 555 172 555 217.5 589 c 128,-1,35
 263 623 263 623 309.5 655 c 128,-1,36
 356 687 356 687 401.5 714.5 c 128,-1,37
 447 742 447 742 486 762 c 1,0,-1
EndSplineSet
EndChar

StartChar: .0076
Encoding: 76 76 44
Width: 813
Flags: W
LayerCount: 2
Fore
SplineSet
29 145 m 1,0,1
 86 203 86 203 147.5 264 c 128,-1,2
 209 325 209 325 270.5 382.5 c 128,-1,3
 332 440 332 440 392 491 c 128,-1,4
 452 542 452 542 506.5 580.5 c 128,-1,5
 561 619 561 619 608 641.5 c 128,-1,6
 655 664 655 664 690 665 c 0,7,8
 699 665 699 665 715 654.5 c 128,-1,9
 731 644 731 644 746.5 632.5 c 128,-1,10
 762 621 762 621 774 612.5 c 128,-1,11
 786 604 786 604 787 608 c 0,12,13
 789 626 789 626 791.5 649.5 c 128,-1,14
 794 673 794 673 796 691 c 1,15,16
 791 716 791 716 770 732.5 c 128,-1,17
 749 749 749 749 711 767 c 1,18,19
 651 747 651 747 588 711.5 c 128,-1,20
 525 676 525 676 461.5 630 c 128,-1,21
 398 584 398 584 335.5 529.5 c 128,-1,22
 273 475 273 475 215 418.5 c 128,-1,23
 157 362 157 362 105 306 c 128,-1,24
 53 250 53 250 10 199 c 1,25,26
 10 186 10 186 13 177 c 128,-1,27
 16 168 16 168 30 147 c 1,28,-1
 29 145 l 1,0,1
EndSplineSet
EndChar

StartChar: .0077
Encoding: 77 77 45
Width: 259
Flags: W
LayerCount: 2
Fore
SplineSet
200 647 m 1,0,1
 175 641 175 641 149.5 630 c 128,-1,2
 124 619 124 619 103 608 c 128,-1,3
 82 597 82 597 69 588 c 128,-1,4
 56 579 56 579 56 576 c 0,5,6
 57 568 57 568 57.5 559 c 128,-1,7
 58 550 58 550 58 541 c 0,8,9
 58 515 58 515 57 490.5 c 128,-1,10
 56 466 56 466 61 452 c 1,11,12
 96 469 96 469 136 482 c 128,-1,13
 176 495 176 495 219 507 c 1,14,15
 218 531 218 531 217 553.5 c 128,-1,16
 216 576 216 576 216 602 c 2,17,-1
 216 659 l 1,18,-1
 216 693 l 2,19,20
 216 703 216 703 216 712 c 0,21,22
 216 722 216 722 217 733 c 1,23,-1
 200 733 l 1,24,-1
 200 647 l 1,0,1
EndSplineSet
EndChar

StartChar: .0078
Encoding: 78 78 46
Width: 256
Flags: W
LayerCount: 2
Fore
SplineSet
195 662 m 1,0,-1
 195 748 l 1,1,-1
 212 748 l 1,2,-1
 212 662 l 2,3,4
 213 632 213 632 213.5 601.5 c 128,-1,5
 214 571 214 571 215 541 c 1,6,7
 190 531 190 531 165 518.5 c 128,-1,8
 140 506 140 506 119 493 c 128,-1,9
 98 480 98 480 83 468.5 c 128,-1,10
 68 457 68 457 64 450 c 1,11,12
 56 467 56 467 55.5 492.5 c 128,-1,13
 55 518 55 518 55 544 c 2,14,-1
 55 563 l 1,15,-1
 55 572 l 2,16,17
 55 578 55 578 54 581 c 0,18,19
 54 585 54 585 69.5 600 c 128,-1,20
 85 615 85 615 107 630 c 128,-1,21
 129 645 129 645 153.5 655.5 c 128,-1,22
 178 666 178 666 195 662 c 1,0,-1
186 307 m 1,23,24
 140 293 140 293 102.5 271 c 128,-1,25
 65 249 65 249 29 224 c 1,26,27
 27 255 27 255 25.5 286 c 128,-1,28
 24 317 24 317 22 348 c 0,29,30
 22 349 22 349 37 364 c 128,-1,31
 52 379 52 379 75.5 395.5 c 128,-1,32
 99 412 99 412 127.5 424 c 128,-1,33
 156 436 156 436 184 432 c 1,34,35
 179 392 179 392 180 362.5 c 128,-1,36
 181 333 181 333 186 307 c 1,23,24
EndSplineSet
EndChar

StartChar: .0079
Encoding: 79 79 47
Width: 577
Flags: W
LayerCount: 2
Fore
SplineSet
143 907 m 1,0,-1
 39 866 l 1,1,-1
 36 787 l 1,2,-1
 108 811 l 1,3,-1
 42 8 l 1,4,-1
 69 8 l 1,5,6
 95 61 95 61 118 100 c 128,-1,7
 141 139 141 139 161.5 169 c 128,-1,8
 182 199 182 199 201 222 c 128,-1,9
 220 245 220 245 238 266 c 1,10,11
 234 272 234 272 230.5 284.5 c 128,-1,12
 227 297 227 297 223.5 313 c 128,-1,13
 220 329 220 329 217 346.5 c 128,-1,14
 214 364 214 364 211 380 c 1,15,16
 184 346 184 346 166.5 323 c 128,-1,17
 149 300 149 300 135.5 281 c 128,-1,18
 122 262 122 262 110 243.5 c 128,-1,19
 98 225 98 225 82 200 c 1,20,21
 98 357 98 357 108.5 479 c 128,-1,22
 119 601 119 601 126 688.5 c 128,-1,23
 133 776 133 776 137 830 c 128,-1,24
 141 884 141 884 143 907 c 1,0,-1
257 291 m 1,25,26
 272 310 272 310 285 325 c 128,-1,27
 298 340 298 340 311 353 c 128,-1,28
 324 366 324 366 337.5 379.5 c 128,-1,29
 351 393 351 393 368 410 c 1,30,31
 363 438 363 438 359.5 456 c 128,-1,32
 356 474 356 474 353 486.5 c 128,-1,33
 350 499 350 499 348.5 506.5 c 128,-1,34
 347 514 347 514 346 521 c 1,35,36
 305 489 305 489 277 456 c 128,-1,37
 249 423 249 423 232 398 c 1,38,39
 237 363 237 363 243.5 332.5 c 128,-1,40
 250 302 250 302 257 291 c 1,25,26
386 429 m 1,41,42
 403 445 403 445 423 462.5 c 128,-1,43
 443 480 443 480 461 494 c 128,-1,44
 479 508 479 508 492.5 517.5 c 128,-1,45
 506 527 506 527 510 528 c 1,46,47
 507 531 507 531 503 547 c 128,-1,48
 499 563 499 563 496 581.5 c 128,-1,49
 493 600 493 600 490 616.5 c 128,-1,50
 487 633 487 633 485 639 c 1,51,52
 473 634 473 634 458 624 c 128,-1,53
 443 614 443 614 426.5 600.5 c 128,-1,54
 410 587 410 587 393.5 569.5 c 128,-1,55
 377 552 377 552 363 532 c 1,56,57
 368 506 368 506 373 483.5 c 128,-1,58
 378 461 378 461 386 429 c 1,41,42
EndSplineSet
EndChar

StartChar: P
Encoding: 80 80 48
Width: 543
Flags: W
LayerCount: 2
Fore
SplineSet
54 14 m 0,0,1
 51 14 51 14 38.5 12.5 c 128,-1,2
 26 11 26 11 23 13 c 0,3,4
 23 17 23 17 25.5 55 c 128,-1,5
 28 93 28 93 32.5 152.5 c 128,-1,6
 37 212 37 212 43 287.5 c 128,-1,7
 49 363 49 363 55.5 442 c 128,-1,8
 62 521 62 521 68 597 c 128,-1,9
 74 673 74 673 79.5 734 c 128,-1,10
 85 795 85 795 89.5 834.5 c 128,-1,11
 94 874 94 874 96 880 c 1,12,-1
 123 878 l 1,13,14
 116 825 116 825 109.5 750 c 128,-1,15
 103 675 103 675 96.5 588.5 c 128,-1,16
 90 502 90 502 83.5 408.5 c 128,-1,17
 77 315 77 315 70 225 c 1,18,19
 85 252 85 252 98.5 273 c 128,-1,20
 112 294 112 294 125.5 312.5 c 128,-1,21
 139 331 139 331 153.5 348.5 c 128,-1,22
 168 366 168 366 184 385 c 1,23,24
 186 349 186 349 193 318.5 c 128,-1,25
 200 288 200 288 200 270 c 1,26,27
 170 235 170 235 150.5 205.5 c 128,-1,28
 131 176 131 176 115.5 146.5 c 128,-1,29
 100 117 100 117 86 85 c 128,-1,30
 72 53 72 53 54 14 c 0,0,1
346 424 m 1,31,32
 328 409 328 409 314 394 c 128,-1,33
 300 379 300 379 286.5 363.5 c 128,-1,34
 273 348 273 348 259 332 c 128,-1,35
 245 316 245 316 228 300 c 1,36,37
 223 329 223 329 217 358.5 c 128,-1,38
 211 388 211 388 209 409 c 0,39,40
 212 417 212 417 224 431.5 c 128,-1,41
 236 446 236 446 253 463.5 c 128,-1,42
 270 481 270 481 290 500 c 128,-1,43
 310 519 310 519 330 535 c 1,44,-1
 346 424 l 1,31,32
361 558 m 1,45,46
 396 596 396 596 430.5 620.5 c 128,-1,47
 465 645 465 645 500 662 c 1,48,-1
 514 533 l 2,49,50
 512 533 512 533 496.5 525.5 c 128,-1,51
 481 518 481 518 460 505.5 c 128,-1,52
 439 493 439 493 415.5 477.5 c 128,-1,53
 392 462 392 462 374 446 c 1,54,55
 367 489 367 489 364.5 514 c 128,-1,56
 362 539 362 539 361 558 c 1,45,46
EndSplineSet
EndChar

StartChar: .0081
Encoding: 81 81 49
Width: 274
Flags: W
LayerCount: 2
Fore
SplineSet
39 503 m 0,0,1
 40 505 40 505 49 515.5 c 128,-1,2
 58 526 58 526 82 544 c 128,-1,3
 106 562 106 562 143 576 c 1,4,-1
 166 901 l 1,5,-1
 197 902 l 1,6,-1
 174 589 l 1,7,8
 180 589 180 589 191.5 596.5 c 128,-1,9
 203 604 203 604 232 604 c 0,10,11
 239 604 239 604 243 590 c 128,-1,12
 247 576 247 576 249 555 c 128,-1,13
 251 534 251 534 250.5 509.5 c 128,-1,14
 250 485 250 485 248 463 c 128,-1,15
 246 441 246 441 242 426 c 128,-1,16
 238 411 238 411 232 409 c 2,17,18
 232 409 232 409 227 402 c 128,-1,19
 222 395 222 395 213 386 c 128,-1,20
 204 377 204 377 190.5 368 c 128,-1,21
 177 359 177 359 160 354 c 1,22,23
 153 269 153 269 147.5 184.5 c 128,-1,24
 142 100 142 100 135 15 c 1,25,-1
 102 17 l 1,26,-1
 124 344 l 1,27,-1
 44 318 l 2,28,29
 30 312 30 312 24.5 329 c 128,-1,30
 19 346 19 346 19.5 374.5 c 128,-1,31
 20 403 20 403 25.5 438 c 128,-1,32
 31 473 31 473 39 503 c 0,0,1
EndSplineSet
EndChar

StartChar: .0082
Encoding: 82 82 50
Width: 281
Flags: W
LayerCount: 2
Fore
SplineSet
259 623 m 0,0,1
 259 621 259 621 257.5 588 c 128,-1,2
 256 555 256 555 254 498.5 c 128,-1,3
 252 442 252 442 249.5 377 c 128,-1,4
 247 312 247 312 244.5 245.5 c 128,-1,5
 242 179 242 179 240 126.5 c 128,-1,6
 238 74 238 74 236.5 42.5 c 128,-1,7
 235 11 235 11 235 16 c 1,8,-1
 204 16 l 1,9,-1
 220 485 l 2,10,11
 222 522 222 522 205.5 547.5 c 128,-1,12
 189 573 189 573 160.5 588.5 c 128,-1,13
 132 604 132 604 94 610.5 c 128,-1,14
 56 617 56 617 15 616 c 1,15,-1
 14 755 l 1,16,17
 102 756 102 756 152 740 c 128,-1,18
 202 724 202 724 226.5 702 c 128,-1,19
 251 680 251 680 256 657.5 c 128,-1,20
 261 635 261 635 259 623 c 0,0,1
EndSplineSet
EndChar

StartChar: .0083
Encoding: 83 83 51
Width: 242
Flags: W
LayerCount: 2
Fore
SplineSet
43 340 m 1,0,1
 54 351 54 351 72 363.5 c 128,-1,2
 90 376 90 376 112 388 c 128,-1,3
 134 400 134 400 157.5 411 c 128,-1,4
 181 422 181 422 204 431 c 1,5,6
 200 457 200 457 198 487 c 128,-1,7
 196 517 196 517 202 557 c 1,8,9
 154 551 154 551 110.5 528 c 128,-1,10
 67 505 67 505 36 472 c 1,11,12
 37 455 37 455 36 441 c 128,-1,13
 35 427 35 427 34.5 412.5 c 128,-1,14
 34 398 34 398 35.5 381 c 128,-1,15
 37 364 37 364 43 340 c 1,0,1
185 185 m 1,16,17
 185 211 185 211 184 243 c 128,-1,18
 183 275 183 275 185 317 c 1,19,20
 158 316 158 316 127.5 302.5 c 128,-1,21
 97 289 97 289 71.5 273.5 c 128,-1,22
 46 258 46 258 29 244 c 128,-1,23
 12 230 12 230 12 229 c 2,24,-1
 9 99 l 1,25,26
 45 124 45 124 92 147.5 c 128,-1,27
 139 171 139 171 185 185 c 1,16,17
EndSplineSet
EndChar

StartChar: .0084
Encoding: 84 84 52
Width: 475
Flags: W
LayerCount: 2
Fore
SplineSet
183 193 m 1,0,-1
 182 193 l 1,1,2
 164 179 164 179 144 158 c 128,-1,3
 124 137 124 137 104.5 115 c 128,-1,4
 85 93 85 93 67.5 72 c 128,-1,5
 50 51 50 51 36 36 c 1,6,7
 33 51 33 51 32 61.5 c 128,-1,8
 31 72 31 72 31 82 c 0,9,10
 31 93 31 93 32 107.5 c 128,-1,11
 33 122 33 122 35 146 c 0,12,13
 40 162 40 162 54.5 182.5 c 128,-1,14
 69 203 69 203 89.5 225.5 c 128,-1,15
 110 248 110 248 135.5 271.5 c 128,-1,16
 161 295 161 295 188 317 c 1,17,18
 186 303 186 303 185.5 294 c 128,-1,19
 185 285 185 285 184 277 c 128,-1,20
 183 269 183 269 183 259 c 0,21,22
 183 250 183 250 183 237 c 2,23,-1
 183 193 l 1,0,-1
294 187 m 1,24,25
 291 211 291 211 291 245 c 0,26,27
 291 262 291 262 290.5 280 c 128,-1,28
 290 298 290 298 289 317 c 1,29,30
 361 280 361 280 404 248.5 c 128,-1,31
 447 217 447 217 467 178 c 0,32,33
 467 177 467 177 465.5 166.5 c 128,-1,34
 464 156 464 156 462.5 139.5 c 128,-1,35
 461 123 461 123 460 103 c 128,-1,36
 459 83 459 83 459 63 c 1,37,38
 447 79 447 79 428.5 95.5 c 128,-1,39
 410 112 410 112 387.5 128 c 128,-1,40
 365 144 365 144 341 159 c 128,-1,41
 317 174 317 174 294 187 c 1,24,25
213 512 m 1,42,43
 213 486 213 486 213.5 470.5 c 128,-1,44
 214 455 214 455 214 443 c 0,45,46
 214 432 214 432 214 422 c 0,47,48
 214 413 214 413 213 400 c 1,49,50
 196 396 196 396 178 382 c 128,-1,51
 160 368 160 368 141.5 349 c 128,-1,52
 123 330 123 330 104.5 309 c 128,-1,53
 86 288 86 288 67 270 c 1,54,55
 65 305 65 305 62.5 359.5 c 128,-1,56
 60 414 60 414 56 472 c 1,57,-1
 69 474 l 1,58,-1
 74 396 l 1,59,60
 84 413 84 413 96 426.5 c 128,-1,61
 108 440 108 440 124.5 453 c 128,-1,62
 141 466 141 466 162.5 480 c 128,-1,63
 184 494 184 494 213 512 c 1,42,43
267 390 m 1,64,65
 262 425 262 425 261.5 452.5 c 128,-1,66
 261 480 261 480 269 515 c 1,67,68
 322 495 322 495 361.5 463.5 c 128,-1,69
 401 432 401 432 421 409 c 1,70,71
 417 374 417 374 413 349 c 128,-1,72
 409 324 409 324 403 297 c 1,73,74
 383 320 383 320 366.5 334 c 128,-1,75
 350 348 350 348 334 357.5 c 128,-1,76
 318 367 318 367 302 374 c 128,-1,77
 286 381 286 381 267 390 c 1,64,65
142 525 m 1,78,79
 142 543 142 543 143.5 564 c 128,-1,80
 145 585 145 585 146.5 604.5 c 128,-1,81
 148 624 148 624 150 640 c 128,-1,82
 152 656 152 656 153 665 c 1,83,84
 180 691 180 691 211 698 c 128,-1,85
 242 705 242 705 269.5 698 c 128,-1,86
 297 691 297 691 316.5 672 c 128,-1,87
 336 653 336 653 339 627 c 1,88,89
 335 595 335 595 333.5 572.5 c 128,-1,90
 332 550 332 550 324 524 c 1,91,92
 318 546 318 546 299.5 567 c 128,-1,93
 281 588 281 588 255.5 595 c 128,-1,94
 230 602 230 602 200 587.5 c 128,-1,95
 170 573 170 573 142 525 c 1,78,79
EndSplineSet
EndChar

StartChar: .0085
Encoding: 85 85 53
Width: 303
Flags: W
LayerCount: 2
Fore
SplineSet
262 663 m 1,0,1
 263 692 263 692 264.5 730 c 128,-1,2
 266 768 266 768 268 800 c 1,3,-1
 283 799 l 1,4,5
 283 799 283 799 282 764.5 c 128,-1,6
 281 730 281 730 280 673 c 128,-1,7
 279 616 279 616 277.5 544 c 128,-1,8
 276 472 276 472 274.5 397 c 128,-1,9
 273 322 273 322 272 251 c 128,-1,10
 271 180 271 180 269.5 125 c 128,-1,11
 268 70 268 70 267 38.5 c 128,-1,12
 266 7 266 7 266 12 c 1,13,-1
 235 12 l 1,14,-1
 249 481 l 2,15,16
 249 518 249 518 228 549 c 128,-1,17
 207 580 207 580 173.5 602.5 c 128,-1,18
 140 625 140 625 99 637.5 c 128,-1,19
 58 650 58 650 19 650 c 1,20,21
 20 669 20 669 20.5 686.5 c 128,-1,22
 21 704 21 704 21 721 c 0,23,24
 21 740 21 740 19.5 757.5 c 128,-1,25
 18 775 18 775 14 791 c 1,26,27
 61 793 61 793 98 783.5 c 128,-1,28
 135 774 135 774 164.5 757 c 128,-1,29
 194 740 194 740 218 715.5 c 128,-1,30
 242 691 242 691 262 663 c 1,0,1
EndSplineSet
EndChar

StartChar: .0086
Encoding: 86 86 54
Width: 202
Flags: W
LayerCount: 2
Fore
SplineSet
23 335 m 0,0,1
 28 342 28 342 44.5 350.5 c 128,-1,2
 61 359 61 359 83.5 368 c 128,-1,3
 106 377 106 377 133 385.5 c 128,-1,4
 160 394 160 394 186 400 c 1,5,6
 186 413 186 413 184.5 425 c 128,-1,7
 183 437 183 437 183 449 c 256,8,9
 183 461 183 461 184.5 475.5 c 128,-1,10
 186 490 186 490 192 509 c 1,11,12
 165 518 165 518 136 513 c 128,-1,13
 107 508 107 508 83 498.5 c 128,-1,14
 59 489 59 489 43.5 479 c 128,-1,15
 28 469 28 469 28 468 c 0,16,17
 21 423 21 423 18 397.5 c 128,-1,18
 15 372 15 372 15 358 c 0,19,20
 15 345 15 345 17.5 340.5 c 128,-1,21
 20 336 20 336 23 335 c 0,0,1
EndSplineSet
EndChar

StartChar: .0087
Encoding: 87 87 55
Width: 225
Flags: W
LayerCount: 2
Fore
SplineSet
19 86 m 1,0,1
 41 112 41 112 81 135 c 128,-1,2
 121 158 121 158 167 178 c 1,3,4
 163 204 163 204 164 239.5 c 128,-1,5
 165 275 165 275 171 315 c 1,6,7
 146 315 146 315 118.5 303 c 128,-1,8
 91 291 91 291 68.5 276 c 128,-1,9
 46 261 46 261 31 248 c 128,-1,10
 16 235 16 235 16 233 c 0,11,12
 11 184 11 184 10 145.5 c 128,-1,13
 9 107 9 107 19 86 c 1,0,1
207 535 m 1,14,15
 174 533 174 533 146 521 c 128,-1,16
 118 509 118 509 98.5 495.5 c 128,-1,17
 79 482 79 482 70 472.5 c 128,-1,18
 61 463 61 463 66 466 c 1,19,-1
 66 601 l 1,20,-1
 54 601 l 1,21,-1
 54 446 l 2,22,23
 54 440 54 440 53.5 420.5 c 128,-1,24
 53 401 53 401 53 380 c 256,25,26
 53 359 53 359 53.5 343 c 128,-1,27
 54 327 54 327 56 327 c 0,28,29
 60 334 60 334 75 345 c 128,-1,30
 90 356 90 356 111 368 c 128,-1,31
 132 380 132 380 157.5 393 c 128,-1,32
 183 406 183 406 207 417 c 1,33,34
 203 443 203 443 202 469 c 128,-1,35
 201 495 201 495 207 535 c 1,14,15
EndSplineSet
EndChar

StartChar: .0088
Encoding: 88 88 56
Width: 371
Flags: W
LayerCount: 2
Fore
SplineSet
57 14 m 0,0,1
 56 13 56 13 49 13 c 2,2,-1
 41 13 l 1,3,-1
 33 13 l 2,4,5
 26 13 26 13 25 12 c 1,6,7
 21 34 21 34 19.5 79.5 c 128,-1,8
 18 125 18 125 19.5 185 c 128,-1,9
 21 245 21 245 26.5 314 c 128,-1,10
 32 383 32 383 42 452.5 c 128,-1,11
 52 522 52 522 67 586 c 128,-1,12
 82 650 82 650 103 699 c 128,-1,13
 124 748 124 748 151 777.5 c 128,-1,14
 178 807 178 807 213 807 c 0,15,16
 247 807 247 807 272 795.5 c 128,-1,17
 297 784 297 784 313.5 765 c 128,-1,18
 330 746 330 746 339.5 722 c 128,-1,19
 349 698 349 698 352 673 c 0,20,21
 354 655 354 655 353.5 606 c 128,-1,22
 353 557 353 557 350.5 492 c 128,-1,23
 348 427 348 427 344 353.5 c 128,-1,24
 340 280 340 280 336 212.5 c 128,-1,25
 332 145 332 145 328 91.5 c 128,-1,26
 324 38 324 38 321 14 c 1,27,-1
 299 18 l 1,28,-1
 315 498 l 2,29,30
 316 535 316 535 314 568.5 c 128,-1,31
 312 602 312 602 301 626.5 c 128,-1,32
 290 651 290 651 266.5 664 c 128,-1,33
 243 677 243 677 201 674 c 0,34,35
 192 673 192 673 176.5 661.5 c 128,-1,36
 161 650 161 650 144.5 628.5 c 128,-1,37
 128 607 128 607 113.5 575.5 c 128,-1,38
 99 544 99 544 92 503 c 0,39,40
 78 417 78 417 69.5 351 c 128,-1,41
 61 285 61 285 56.5 228.5 c 128,-1,42
 52 172 52 172 52.5 121 c 128,-1,43
 53 70 53 70 57 14 c 0,0,1
EndSplineSet
EndChar

StartChar: .0089
Encoding: 89 89 57
Width: 300
Flags: W
LayerCount: 2
Fore
SplineSet
31 863 m 1,0,-1
 15 616 l 1,1,2
 56 617 56 617 93.5 610.5 c 128,-1,3
 131 604 131 604 159.5 588.5 c 128,-1,4
 188 573 188 573 204 547.5 c 128,-1,5
 220 522 220 522 218 485 c 2,6,-1
 202 16 l 1,7,-1
 233 16 l 1,8,9
 233 11 233 11 234.5 42 c 128,-1,10
 236 73 236 73 238.5 125 c 128,-1,11
 241 177 241 177 244.5 243 c 128,-1,12
 248 309 248 309 251 374 c 128,-1,13
 254 439 254 439 256.5 495 c 128,-1,14
 259 551 259 551 260.5 583.5 c 128,-1,15
 262 616 262 616 262 618 c 0,16,17
 263 626 263 626 264 640.5 c 128,-1,18
 265 655 265 655 260.5 673 c 128,-1,19
 256 691 256 691 244.5 709 c 128,-1,20
 233 727 233 727 208.5 742 c 128,-1,21
 184 757 184 757 145 766 c 128,-1,22
 106 775 106 775 47 774 c 1,23,-1
 52 860 l 1,24,-1
 31 863 l 1,0,-1
EndSplineSet
EndChar

StartChar: .0090
Encoding: 90 90 58
Width: 436
Flags: W
LayerCount: 2
Fore
SplineSet
58 23 m 0,0,1
 54 79 54 79 53.5 130 c 128,-1,2
 53 181 53 181 57.5 237.5 c 128,-1,3
 62 294 62 294 70.5 360 c 128,-1,4
 79 426 79 426 93 512 c 0,5,6
 100 553 100 553 114.5 584.5 c 128,-1,7
 129 616 129 616 145.5 637.5 c 128,-1,8
 162 659 162 659 177.5 670.5 c 128,-1,9
 193 682 193 682 202 683 c 0,10,11
 244 686 244 686 267.5 673 c 128,-1,12
 291 660 291 660 302 635.5 c 128,-1,13
 313 611 313 611 315 577.5 c 128,-1,14
 317 544 317 544 316 507 c 2,15,-1
 300 27 l 2,16,17
 300 25 300 25 309 32 c 128,-1,18
 318 39 318 39 332.5 49 c 128,-1,19
 347 59 347 59 364.5 69 c 128,-1,20
 382 79 382 79 399 83 c 1,21,22
 399 80 399 80 400.5 88.5 c 128,-1,23
 402 97 402 97 404 112 c 128,-1,24
 406 127 406 127 409 145 c 128,-1,25
 412 163 412 163 414 178.5 c 128,-1,26
 416 194 416 194 417.5 204.5 c 128,-1,27
 419 215 419 215 419 214 c 0,28,29
 405 209 405 209 386 201 c 128,-1,30
 367 193 367 193 339 170 c 1,31,32
 340 200 340 200 342 244 c 128,-1,33
 344 288 344 288 346 338 c 128,-1,34
 348 388 348 388 349.5 439.5 c 128,-1,35
 351 491 351 491 352.5 537 c 128,-1,36
 354 583 354 583 354.5 619 c 128,-1,37
 355 655 355 655 354 674 c 0,38,39
 353 700 353 700 344.5 725.5 c 128,-1,40
 336 751 336 751 319 771 c 128,-1,41
 302 791 302 791 276 803.5 c 128,-1,42
 250 816 250 816 214 816 c 0,43,44
 179 816 179 816 152 786.5 c 128,-1,45
 125 757 125 757 104 708 c 128,-1,46
 83 659 83 659 68 595 c 128,-1,47
 53 531 53 531 43 461.5 c 128,-1,48
 33 392 33 392 27.5 323 c 128,-1,49
 22 254 22 254 20.5 194 c 128,-1,50
 19 134 19 134 20.5 88.5 c 128,-1,51
 22 43 22 43 26 21 c 1,52,53
 27 22 27 22 34 22 c 2,54,-1
 42 22 l 1,55,-1
 50 22 l 2,56,57
 57 22 57 22 58 23 c 0,0,1
EndSplineSet
EndChar

StartChar: .0091
Encoding: 91 91 59
Width: 770
Flags: W
LayerCount: 2
Fore
SplineSet
642 711 m 1,0,1
 658 711 658 711 667.5 709 c 128,-1,2
 677 707 677 707 685.5 702.5 c 128,-1,3
 694 698 694 698 704 692 c 128,-1,4
 714 686 714 686 731 678 c 1,5,6
 734 690 734 690 735.5 700 c 128,-1,7
 737 710 737 710 738.5 719 c 128,-1,8
 740 728 740 728 742 738 c 128,-1,9
 744 748 744 748 747 761 c 1,10,11
 753 760 753 760 755 759 c 128,-1,12
 757 758 757 758 765 758 c 1,13,14
 750 654 750 654 737.5 612.5 c 128,-1,15
 725 571 725 571 720 576 c 0,16,17
 701 583 701 583 682 593 c 128,-1,18
 663 603 663 603 645 611 c 1,19,20
 603 600 603 600 553 568.5 c 128,-1,21
 503 537 503 537 451 492.5 c 128,-1,22
 399 448 399 448 346.5 395 c 128,-1,23
 294 342 294 342 246.5 289 c 128,-1,24
 199 236 199 236 158.5 186 c 128,-1,25
 118 136 118 136 90 97.5 c 128,-1,26
 62 59 62 59 48.5 36.5 c 128,-1,27
 35 14 35 14 41 15 c 2,28,-1
 20 17 l 1,29,30
 24 80 24 80 29.5 155 c 128,-1,31
 35 230 35 230 41.5 307.5 c 128,-1,32
 48 385 48 385 55.5 459.5 c 128,-1,33
 63 534 63 534 71 597 c 1,34,-1
 31 558 l 1,35,-1
 48 700 l 1,36,-1
 84 734 l 1,37,-1
 95 901 l 1,38,-1
 229 951 l 1,39,-1
 217 851 l 1,40,41
 191 845 191 845 178 842 c 128,-1,42
 165 839 165 839 156.5 836 c 128,-1,43
 148 833 148 833 139.5 829.5 c 128,-1,44
 131 826 131 826 113 820 c 1,45,46
 103 671 103 671 86.5 511 c 128,-1,47
 70 351 70 351 59 200 c 1,48,49
 84 231 84 231 125.5 276.5 c 128,-1,50
 167 322 167 322 218 374 c 128,-1,51
 269 426 269 426 326 479.5 c 128,-1,52
 383 533 383 533 439.5 579.5 c 128,-1,53
 496 626 496 626 548.5 661 c 128,-1,54
 601 696 601 696 642 711 c 1,0,1
EndSplineSet
EndChar

StartChar: .0092
Encoding: 92 92 60
Width: 10
Flags: W
LayerCount: 2
Fore
SplineSet
-448 791 m 2,0,1
 -451 752 -451 752 -453 726 c 128,-1,2
 -455 700 -455 700 -457 681 c 128,-1,3
 -459 662 -459 662 -460.5 646 c 128,-1,4
 -462 630 -462 630 -464 611 c 128,-1,5
 -466 592 -466 592 -468 566 c 128,-1,6
 -470 540 -470 540 -473 501 c 1,7,-1
 -458 501 l 1,8,-1
 -433 792 l 1,9,-1
 -448 792 l 1,10,-1
 -448 791 l 2,0,1
EndSplineSet
EndChar

StartChar: .0093
Encoding: 93 93 61
Width: 6
Flags: W
LayerCount: 2
Fore
SplineSet
-223 885 m 0,0,1
 -220 880 -220 880 -219.5 884.5 c 128,-1,2
 -219 889 -219 889 -219 899 c 256,3,4
 -219 909 -219 909 -220 922.5 c 128,-1,5
 -221 936 -221 936 -222 950 c 1,6,7
 -234 962 -234 962 -265 959.5 c 128,-1,8
 -296 957 -296 957 -336 943.5 c 128,-1,9
 -376 930 -376 930 -420 906 c 128,-1,10
 -464 882 -464 882 -502.5 850.5 c 128,-1,11
 -541 819 -541 819 -568 781 c 128,-1,12
 -595 743 -595 743 -601 701 c 0,13,14
 -601 695 -601 695 -598 685 c 128,-1,15
 -595 675 -595 675 -591 667 c 128,-1,16
 -587 659 -587 659 -583 655.5 c 128,-1,17
 -579 652 -579 652 -578 659 c 0,18,19
 -576 685 -576 685 -554.5 717 c 128,-1,20
 -533 749 -533 749 -500 780 c 128,-1,21
 -467 811 -467 811 -427 838 c 128,-1,22
 -387 865 -387 865 -348.5 881.5 c 128,-1,23
 -310 898 -310 898 -276.5 900.5 c 128,-1,24
 -243 903 -243 903 -223 885 c 0,0,1
EndSplineSet
EndChar

StartChar: .0094
Encoding: 94 94 62
Width: 2
Flags: W
LayerCount: 2
Fore
SplineSet
-314 439 m 1,0,1
 -338 455 -338 455 -371 471 c 128,-1,2
 -404 487 -404 487 -435 500 c 1,3,-1
 -435 620 l 1,4,-1
 -448 620 l 1,5,-1
 -452 509 l 1,6,-1
 -561 565 l 1,7,-1
 -561 482 l 1,8,9
 -534 472 -534 472 -518.5 465.5 c 128,-1,10
 -503 459 -503 459 -492.5 454 c 128,-1,11
 -482 449 -482 449 -473.5 444.5 c 128,-1,12
 -465 440 -465 440 -453 434 c 1,13,-1
 -462 300 l 1,14,-1
 -445 300 l 1,15,-1
 -440 426 l 1,16,-1
 -346 367 l 1,17,18
 -350 376 -350 376 -347.5 385.5 c 128,-1,19
 -345 395 -345 395 -339.5 404.5 c 128,-1,20
 -334 414 -334 414 -327 422.5 c 128,-1,21
 -320 431 -320 431 -314 439 c 1,0,1
EndSplineSet
EndChar

StartChar: .0095
Encoding: 95 95 63
Width: 2
Flags: W
LayerCount: 2
Fore
SplineSet
-412 811 m 1,0,1
 -409 802 -409 802 -405.5 790 c 128,-1,2
 -402 778 -402 778 -397.5 764.5 c 128,-1,3
 -393 751 -393 751 -388 738.5 c 128,-1,4
 -383 726 -383 726 -377 717 c 1,5,6
 -396 707 -396 707 -416 689 c 128,-1,7
 -436 671 -436 671 -454.5 652.5 c 128,-1,8
 -473 634 -473 634 -488.5 619 c 128,-1,9
 -504 604 -504 604 -513 600 c 0,10,11
 -516 603 -516 603 -522 626 c 128,-1,12
 -528 649 -528 649 -535.5 679.5 c 128,-1,13
 -543 710 -543 710 -550.5 741 c 128,-1,14
 -558 772 -558 772 -563 790 c 1,15,-1
 -543 795 l 1,16,-1
 -525 720 l 1,17,18
 -515 733 -515 733 -499.5 748.5 c 128,-1,19
 -484 764 -484 764 -467.5 777 c 128,-1,20
 -451 790 -451 790 -436 799.5 c 128,-1,21
 -421 809 -421 809 -412 811 c 1,0,1
-377 827 m 1,22,-1
 -379 832 l 1,23,24
 -362 850 -362 850 -346 862.5 c 128,-1,25
 -330 875 -330 875 -314 885 c 128,-1,26
 -298 895 -298 895 -281 903 c 128,-1,27
 -264 911 -264 911 -246 919 c 1,28,29
 -242 901 -242 901 -232.5 872.5 c 128,-1,30
 -223 844 -223 844 -211 824 c 1,31,32
 -235 815 -235 815 -257 803 c 128,-1,33
 -279 791 -279 791 -297 779 c 128,-1,34
 -315 767 -315 767 -327 757 c 128,-1,35
 -339 747 -339 747 -342 742 c 1,36,37
 -359 756 -359 756 -377 827 c 1,22,-1
EndSplineSet
EndChar

StartChar: .0096
Encoding: 96 96 64
Width: 206
Flags: W
LayerCount: 2
Fore
SplineSet
164 325 m 1,0,1
 150 332 150 332 130 341.5 c 128,-1,2
 110 351 110 351 88.5 362.5 c 128,-1,3
 67 374 67 374 47 387 c 128,-1,4
 27 400 27 400 13 414 c 1,5,6
 8 440 8 440 10.5 469.5 c 128,-1,7
 13 499 13 499 15 537 c 1,8,9
 53 517 53 517 91 491.5 c 128,-1,10
 129 466 129 466 171 454 c 1,11,12
 164 436 164 436 162.5 422 c 128,-1,13
 161 408 161 408 161.5 393.5 c 128,-1,14
 162 379 162 379 163 363 c 128,-1,15
 164 347 164 347 164 325 c 1,0,1
31 174 m 1,16,17
 26 206 26 206 27.5 236.5 c 128,-1,18
 29 267 29 267 31 303 c 1,19,20
 49 291 49 291 75 274.5 c 128,-1,21
 101 258 101 258 125.5 243 c 128,-1,22
 150 228 150 228 168.5 218.5 c 128,-1,23
 187 209 187 209 190 212 c 1,24,25
 182 200 182 200 180.5 185 c 128,-1,26
 179 170 179 170 180 153.5 c 128,-1,27
 181 137 181 137 183.5 120.5 c 128,-1,28
 186 104 186 104 186 90 c 1,29,30
 128 103 128 103 90 126 c 128,-1,31
 52 149 52 149 31 174 c 1,16,17
EndSplineSet
EndChar

StartChar: .0097
Encoding: 97 97 65
Width: 237
Flags: W
LayerCount: 2
Fore
SplineSet
34 454 m 1,0,1
 91 483 91 483 130 493 c 128,-1,2
 169 503 169 503 189 508 c 1,3,4
 184 540 184 540 182.5 570.5 c 128,-1,5
 181 601 181 601 183 636 c 1,6,7
 129 625 129 625 93 610.5 c 128,-1,8
 57 596 57 596 30 579 c 1,9,10
 28 545 28 545 28.5 516.5 c 128,-1,11
 29 488 29 488 34 454 c 1,0,1
EndSplineSet
EndChar

StartChar: .0098
Encoding: 98 98 66
Width: 492
Flags: W
LayerCount: 2
Fore
SplineSet
205 179 m 1,0,1
 188 181 188 181 164 166.5 c 128,-1,2
 140 152 140 152 115 131 c 128,-1,3
 90 110 90 110 67.5 87.5 c 128,-1,4
 45 65 45 65 30 52 c 1,5,6
 25 74 25 74 23 89 c 128,-1,7
 21 104 21 104 21 127 c 0,8,9
 21 135 21 135 21.5 145 c 128,-1,10
 22 155 22 155 23 167 c 1,11,12
 28 173 28 173 47 193 c 128,-1,13
 66 213 66 213 93 236 c 128,-1,14
 120 259 120 259 151 279 c 128,-1,15
 182 299 182 299 211 304 c 1,16,17
 209 286 209 286 208 275 c 128,-1,18
 207 264 207 264 206 252 c 128,-1,19
 205 240 205 240 205 223 c 0,20,21
 205 207 205 207 205 179 c 1,0,1
303 150 m 1,22,23
 300 174 300 174 300 208 c 0,24,25
 300 225 300 225 299.5 243 c 128,-1,26
 299 261 299 261 298 280 c 1,27,28
 355 238 355 238 392 203.5 c 128,-1,29
 429 169 429 169 462 135 c 0,30,31
 462 134 462 134 461 123.5 c 128,-1,32
 460 113 460 113 458.5 96.5 c 128,-1,33
 457 80 457 80 456 59.5 c 128,-1,34
 455 39 455 39 455 19 c 1,35,36
 439 35 439 35 419 52 c 128,-1,37
 399 69 399 69 379 85.5 c 128,-1,38
 359 102 359 102 339 118.5 c 128,-1,39
 319 135 319 135 303 150 c 1,22,23
89 418 m 1,40,41
 103 430 103 430 118 444.5 c 128,-1,42
 133 459 133 459 149.5 472.5 c 128,-1,43
 166 486 166 486 184 496.5 c 128,-1,44
 202 507 202 507 222 510 c 1,45,46
 222 481 222 481 221.5 467 c 128,-1,47
 221 453 221 453 220 443 c 128,-1,48
 219 433 219 433 218.5 422 c 128,-1,49
 218 411 218 411 218 388 c 1,50,51
 201 378 201 378 186.5 369 c 128,-1,52
 172 360 172 360 158.5 349 c 128,-1,53
 145 338 145 338 132 324.5 c 128,-1,54
 119 311 119 311 106 293 c 1,55,56
 100 314 100 314 97.5 330 c 128,-1,57
 95 346 95 346 94.5 360 c 128,-1,58
 94 374 94 374 93 387.5 c 128,-1,59
 92 401 92 401 89 418 c 1,40,41
274 396 m 1,60,61
 276 431 276 431 274 458.5 c 128,-1,62
 272 486 272 486 276 521 c 1,63,64
 297 511 297 511 315.5 494.5 c 128,-1,65
 334 478 334 478 350.5 460 c 128,-1,66
 367 442 367 442 382 424.5 c 128,-1,67
 397 407 397 407 411 395 c 1,68,69
 406 375 406 375 402.5 361.5 c 128,-1,70
 399 348 399 348 397 336 c 128,-1,71
 395 324 395 324 394 311.5 c 128,-1,72
 393 299 393 299 393 281 c 1,73,74
 372 304 372 304 356.5 320.5 c 128,-1,75
 341 337 341 337 327.5 349.5 c 128,-1,76
 314 362 314 362 301.5 373 c 128,-1,77
 289 384 289 384 274 396 c 1,60,61
150 532 m 1,78,79
 150 551 150 551 151.5 572 c 128,-1,80
 153 593 153 593 154.5 612.5 c 128,-1,81
 156 632 156 632 158 648.5 c 128,-1,82
 160 665 160 665 161 674 c 1,83,84
 188 700 188 700 218.5 707 c 128,-1,85
 249 714 249 714 276.5 706.5 c 128,-1,86
 304 699 304 699 323.5 680 c 128,-1,87
 343 661 343 661 347 635 c 1,88,89
 342 602 342 602 340 579 c 128,-1,90
 338 556 338 556 331 531 c 1,91,92
 325 553 325 553 306.5 574.5 c 128,-1,93
 288 596 288 596 262.5 602.5 c 128,-1,94
 237 609 237 609 207.5 595 c 128,-1,95
 178 581 178 581 150 532 c 1,78,79
EndSplineSet
EndChar

StartChar: c
Encoding: 99 99 67
Width: 244
Flags: W
LayerCount: 2
Fore
SplineSet
144 800 m 1,0,-1
 68 237 l 1,1,2
 78 247 78 247 101.5 260 c 128,-1,3
 125 273 125 273 151 285.5 c 128,-1,4
 177 298 177 298 198.5 307 c 128,-1,5
 220 316 220 316 225 317 c 1,6,7
 224 309 224 309 223.5 298.5 c 128,-1,8
 223 288 223 288 223 274 c 0,9,10
 223 247 223 247 223.5 220 c 128,-1,11
 224 193 224 193 224 172 c 256,12,13
 224 151 224 151 223 150 c 0,14,15
 212 145 212 145 190.5 133 c 128,-1,16
 169 121 169 121 141.5 104.5 c 128,-1,17
 114 88 114 88 83 68.5 c 128,-1,18
 52 49 52 49 23 30 c 1,19,-1
 117 801 l 1,20,-1
 144 800 l 1,0,-1
EndSplineSet
EndChar

StartChar: .0100
Encoding: 100 100 68
Width: 494
Flags: W
LayerCount: 2
Fore
SplineSet
325 682 m 1,0,1
 330 704 330 704 332 717.5 c 128,-1,2
 334 731 334 731 336 744 c 1,3,-1
 350 742 l 1,4,-1
 329 542 l 1,5,6
 318 553 318 553 300.5 564.5 c 128,-1,7
 283 576 283 576 260 581 c 128,-1,8
 237 586 237 586 210 582.5 c 128,-1,9
 183 579 183 579 152 560 c 1,10,11
 152 599 152 599 154 628 c 128,-1,12
 156 657 156 657 158 676 c 1,13,14
 182 689 182 689 206 694 c 128,-1,15
 230 699 230 699 252 699 c 256,16,17
 274 699 274 699 292.5 694 c 128,-1,18
 311 689 311 689 325 682 c 1,0,1
203 169 m 1,19,-1
 202 169 l 2,20,21
 185 172 185 172 162 157.5 c 128,-1,22
 139 143 139 143 114.5 121.5 c 128,-1,23
 90 100 90 100 67.5 77 c 128,-1,24
 45 54 45 54 30 40 c 1,25,26
 27 64 27 64 25 79 c 128,-1,27
 23 94 23 94 23 118 c 0,28,29
 23 126 23 126 23.5 136 c 128,-1,30
 24 146 24 146 25 159 c 1,31,32
 30 166 30 166 49 186 c 128,-1,33
 68 206 68 206 94 229 c 128,-1,34
 120 252 120 252 150.5 272 c 128,-1,35
 181 292 181 292 210 298 c 1,36,37
 208 279 208 279 206.5 267.5 c 128,-1,38
 205 256 205 256 204.5 244 c 128,-1,39
 204 232 204 232 203.5 215.5 c 128,-1,40
 203 199 203 199 203 169 c 1,19,-1
297 139 m 1,41,42
 295 163 295 163 295.5 199 c 128,-1,43
 296 235 296 235 294 273 c 1,44,45
 349 230 349 230 384.5 193.5 c 128,-1,46
 420 157 420 157 452 122 c 0,47,48
 452 121 452 121 450.5 110 c 128,-1,49
 449 99 449 99 447.5 82 c 128,-1,50
 446 65 446 65 445 44.5 c 128,-1,51
 444 24 444 24 444 3 c 1,52,53
 429 19 429 19 410 36.5 c 128,-1,54
 391 54 391 54 371 72 c 128,-1,55
 351 90 351 90 332 107 c 128,-1,56
 313 124 313 124 297 139 c 1,41,42
91 415 m 1,57,58
 105 427 105 427 120 442 c 128,-1,59
 135 457 135 457 151.5 471 c 128,-1,60
 168 485 168 485 185.5 495.5 c 128,-1,61
 203 506 203 506 222 509 c 1,62,63
 221 479 221 479 220.5 464.5 c 128,-1,64
 220 450 220 450 219 440 c 128,-1,65
 218 430 218 430 217.5 418.5 c 128,-1,66
 217 407 217 407 216 383 c 1,67,68
 184 364 184 364 159 344 c 128,-1,69
 134 324 134 324 107 287 c 1,70,71
 101 308 101 308 99 324.5 c 128,-1,72
 97 341 97 341 96 355 c 128,-1,73
 95 369 95 369 94.5 383.5 c 128,-1,74
 94 398 94 398 91 415 c 1,57,58
271 391 m 1,75,76
 273 426 273 426 271.5 456 c 128,-1,77
 270 486 270 486 275 521 c 1,78,79
 299 504 299 504 324 485 c 128,-1,80
 349 466 349 466 371 448 c 128,-1,81
 393 430 393 430 409 414.5 c 128,-1,82
 425 399 425 399 430 387 c 1,83,84
 428 367 428 367 426.5 352.5 c 128,-1,85
 425 338 425 338 423.5 325 c 128,-1,86
 422 312 422 312 419 299.5 c 128,-1,87
 416 287 416 287 411 271 c 1,88,89
 394 294 394 294 377.5 311 c 128,-1,90
 361 328 361 328 344.5 341.5 c 128,-1,91
 328 355 328 355 310 366.5 c 128,-1,92
 292 378 292 378 271 391 c 1,75,76
EndSplineSet
EndChar

StartChar: .0101
Encoding: 101 101 69
Width: 338
Flags: W
LayerCount: 2
Fore
SplineSet
17 130 m 0,0,1
 21 113 21 113 47.5 95.5 c 128,-1,2
 74 78 74 78 108.5 62.5 c 128,-1,3
 143 47 143 47 178.5 34.5 c 128,-1,4
 214 22 214 22 236 16 c 1,5,6
 230 35 230 35 227.5 46 c 128,-1,7
 225 57 225 57 225 68 c 256,8,9
 225 79 225 79 228.5 93 c 128,-1,10
 232 107 232 107 238 133 c 1,11,12
 214 134 214 134 183.5 147.5 c 128,-1,13
 153 161 153 161 124.5 179 c 128,-1,14
 96 197 96 197 74 215 c 128,-1,15
 52 233 52 233 44 244 c 1,16,17
 37 229 37 229 31.5 212.5 c 128,-1,18
 26 196 26 196 22.5 180.5 c 128,-1,19
 19 165 19 165 17.5 151.5 c 128,-1,20
 16 138 16 138 17 130 c 0,0,1
35 306 m 0,21,22
 35 298 35 298 48.5 285.5 c 128,-1,23
 62 273 62 273 83 259 c 128,-1,24
 104 245 104 245 128.5 231 c 128,-1,25
 153 217 153 217 175 205.5 c 128,-1,26
 197 194 197 194 213 186.5 c 128,-1,27
 229 179 229 179 233 179 c 1,28,-1
 233 187 l 2,29,30
 233 192 233 192 233 200 c 256,31,32
 233 208 233 208 234 221 c 128,-1,33
 235 234 235 234 237.5 253.5 c 128,-1,34
 240 273 240 273 244 301 c 1,35,36
 232 301 232 301 202.5 314 c 128,-1,37
 173 327 173 327 141 344 c 128,-1,38
 109 361 109 361 83.5 377 c 128,-1,39
 58 393 58 393 54 400 c 1,40,41
 51 380 51 380 49 369.5 c 128,-1,42
 47 359 47 359 44.5 350.5 c 128,-1,43
 42 342 42 342 40 333 c 128,-1,44
 38 324 38 324 35 306 c 0,21,22
187 623 m 0,45,46
 214 619 214 619 233 605.5 c 128,-1,47
 252 592 252 592 264 561.5 c 128,-1,48
 276 531 276 531 282.5 480.5 c 128,-1,49
 289 430 289 430 292 352 c 1,50,-1
 309 352 l 1,51,-1
 328 589 l 2,52,53
 337 701 337 701 236 706 c 1,54,55
 166 715 166 715 121.5 682.5 c 128,-1,56
 77 650 77 650 75 581 c 2,57,-1
 77 741 l 1,58,-1
 59 741 l 2,59,60
 58 742 58 742 58 721 c 0,61,62
 58 703 58 703 59 673.5 c 128,-1,63
 60 644 60 644 61 610.5 c 128,-1,64
 62 577 62 577 63.5 542.5 c 128,-1,65
 65 508 65 508 66.5 481.5 c 128,-1,66
 68 455 68 455 69.5 439 c 128,-1,67
 71 423 71 423 72 426 c 2,68,-1
 88 424 l 2,69,70
 87 428 87 428 86 445 c 128,-1,71
 85 462 85 462 86 485.5 c 128,-1,72
 87 509 87 509 92 535 c 128,-1,73
 97 561 97 561 108 582 c 128,-1,74
 119 603 119 603 138.5 615 c 128,-1,75
 158 627 158 627 187 623 c 0,45,46
EndSplineSet
EndChar

StartChar: .0102
Encoding: 102 102 70
Width: 307
Flags: W
LayerCount: 2
Fore
SplineSet
144 834 m 1,0,1
 113 820 113 820 91 775.5 c 128,-1,2
 69 731 69 731 56 673.5 c 128,-1,3
 43 616 43 616 38.5 554.5 c 128,-1,4
 34 493 34 493 38 444 c 0,5,6
 40 410 40 410 50.5 366 c 128,-1,7
 61 322 61 322 75.5 274.5 c 128,-1,8
 90 227 90 227 107 181.5 c 128,-1,9
 124 136 124 136 140 99.5 c 128,-1,10
 156 63 156 63 169 41 c 128,-1,11
 182 19 182 19 188 18 c 1,12,13
 189 51 189 51 199 76.5 c 128,-1,14
 209 102 209 102 220 130 c 0,15,16
 230 157 230 157 243.5 194.5 c 128,-1,17
 257 232 257 232 267 273.5 c 128,-1,18
 277 315 277 315 279.5 357 c 128,-1,19
 282 399 282 399 271 436 c 0,20,21
 258 477 258 477 245.5 509 c 128,-1,22
 233 541 233 541 222 570 c 128,-1,23
 211 599 211 599 202.5 630 c 128,-1,24
 194 661 194 661 189 700 c 0,25,26
 187 715 187 715 183 733 c 128,-1,27
 179 751 179 751 173 769 c 128,-1,28
 167 787 167 787 159.5 804 c 128,-1,29
 152 821 152 821 144 834 c 1,0,1
169 130 m 0,30,31
 169 129 169 129 159.5 150.5 c 128,-1,32
 150 172 150 172 138 208.5 c 128,-1,33
 126 245 126 245 115.5 293 c 128,-1,34
 105 341 105 341 103 394 c 1,35,36
 132 400 132 400 159.5 402.5 c 128,-1,37
 187 405 187 405 216 407 c 1,38,39
 228 360 228 360 226.5 315.5 c 128,-1,40
 225 271 225 271 216 234 c 128,-1,41
 207 197 207 197 194 170 c 128,-1,42
 181 143 181 143 169 130 c 0,30,31
135 718 m 1,43,44
 133 713 133 713 139 686.5 c 128,-1,45
 145 660 145 660 156.5 624 c 128,-1,46
 168 588 168 588 182 547.5 c 128,-1,47
 196 507 196 507 209 474 c 1,48,49
 177 472 177 472 150.5 470.5 c 128,-1,50
 124 469 124 469 91 461 c 1,51,52
 81 510 81 510 81 555 c 0,53,54
 81 601 81 601 87.5 636.5 c 128,-1,55
 94 672 94 672 107 694 c 128,-1,56
 120 716 120 716 135 718 c 1,43,44
EndSplineSet
EndChar

StartChar: .0103
Encoding: 103 103 71
Width: 489
Flags: W
LayerCount: 2
Fore
SplineSet
229 11 m 1,0,1
 234 56 234 56 238.5 106 c 128,-1,2
 243 156 243 156 244.5 205 c 128,-1,3
 246 254 246 254 244.5 298.5 c 128,-1,4
 243 343 243 343 236.5 378 c 128,-1,5
 230 413 230 413 217 434.5 c 128,-1,6
 204 456 204 456 184 459 c 0,7,8
 146 462 146 462 121 443 c 128,-1,9
 96 424 96 424 81 391 c 128,-1,10
 66 358 66 358 59.5 314 c 128,-1,11
 53 270 53 270 51 223 c 128,-1,12
 49 176 49 176 50 129.5 c 128,-1,13
 51 83 51 83 52 44 c 1,14,15
 46 45 46 45 39.5 46 c 128,-1,16
 33 47 33 47 27 48 c 1,17,18
 23 94 23 94 19 148.5 c 128,-1,19
 15 203 15 203 16.5 258.5 c 128,-1,20
 18 314 18 314 26.5 366 c 128,-1,21
 35 418 35 418 55.5 457.5 c 128,-1,22
 76 497 76 497 111.5 520.5 c 128,-1,23
 147 544 147 544 201 542 c 0,24,25
 247 540 247 540 264 520 c 128,-1,26
 281 500 281 500 288 463 c 0,27,28
 291 443 291 443 290 402 c 128,-1,29
 289 361 289 361 285.5 311 c 128,-1,30
 282 261 282 261 276.5 207.5 c 128,-1,31
 271 154 271 154 265 110 c 0,32,33
 259 65 259 65 255 36 c 128,-1,34
 251 7 251 7 248 7 c 2,35,-1
 229 11 l 1,0,1
464 361 m 1,36,37
 444 377 444 377 428 386.5 c 128,-1,38
 412 396 412 396 397.5 402 c 128,-1,39
 383 408 383 408 368 413 c 128,-1,40
 353 418 353 418 334 426 c 1,41,42
 332 457 332 457 333.5 485.5 c 128,-1,43
 335 514 335 514 336 552 c 1,44,45
 363 544 363 544 382 536.5 c 128,-1,46
 401 529 401 529 416.5 521.5 c 128,-1,47
 432 514 432 514 445.5 506.5 c 128,-1,48
 459 499 459 499 476 490 c 1,49,50
 474 452 474 452 472 424.5 c 128,-1,51
 470 397 470 397 464 361 c 1,36,37
310 572 m 0,52,53
 294 582 294 582 281 590 c 128,-1,54
 268 598 268 598 253.5 604.5 c 128,-1,55
 239 611 239 611 220 616.5 c 128,-1,56
 201 622 201 622 174 628 c 0,57,58
 174 632 174 632 174.5 647 c 128,-1,59
 175 662 175 662 175 679 c 256,60,61
 175 696 175 696 175.5 712.5 c 128,-1,62
 176 729 176 729 176 738 c 1,63,64
 186 743 186 743 203.5 739.5 c 128,-1,65
 221 736 221 736 241.5 728.5 c 128,-1,66
 262 721 262 721 281.5 711.5 c 128,-1,67
 301 702 301 702 315 695 c 1,68,69
 314 687 314 687 315 667.5 c 128,-1,70
 316 648 316 648 316.5 627 c 128,-1,71
 317 606 317 606 316 589.5 c 128,-1,72
 315 573 315 573 310 572 c 0,52,53
EndSplineSet
EndChar

StartChar: .0104
Encoding: 104 104 72
Width: 583
Flags: W
LayerCount: 2
Fore
SplineSet
312 18 m 1,0,1
 316 61 316 61 318 107.5 c 128,-1,2
 320 154 320 154 319 199 c 128,-1,3
 318 244 318 244 313 286 c 128,-1,4
 308 328 308 328 298 363 c 0,5,6
 293 393 293 393 284.5 401.5 c 128,-1,7
 276 410 276 410 267 402.5 c 128,-1,8
 258 395 258 395 249.5 374.5 c 128,-1,9
 241 354 241 354 237 327 c 0,10,11
 235 320 235 320 232.5 298.5 c 128,-1,12
 230 277 230 277 227 246.5 c 128,-1,13
 224 216 224 216 221.5 181.5 c 128,-1,14
 219 147 219 147 217 114.5 c 128,-1,15
 215 82 215 82 214.5 56 c 128,-1,16
 214 30 214 30 216 18 c 1,17,-1
 193 23 l 1,18,19
 193 49 193 49 194 91 c 128,-1,20
 195 133 195 133 196.5 181 c 128,-1,21
 198 229 198 229 201 279 c 128,-1,22
 204 329 204 329 207.5 371 c 128,-1,23
 211 413 211 413 215.5 442.5 c 128,-1,24
 220 472 220 472 226 479 c 0,25,26
 241 504 241 504 249.5 511.5 c 128,-1,27
 258 519 258 519 273 519 c 0,28,29
 278 520 278 520 280.5 521 c 128,-1,30
 283 522 283 522 282 522 c 2,31,-1
 295 522 l 2,32,33
 307 521 307 521 315 485 c 128,-1,34
 323 449 323 449 328.5 395.5 c 128,-1,35
 334 342 334 342 337 279 c 128,-1,36
 340 216 340 216 340.5 160.5 c 128,-1,37
 341 105 341 105 339 65.5 c 128,-1,38
 337 26 337 26 334 19 c 1,39,-1
 312 18 l 1,0,1
120 19 m 1,40,41
 125 64 125 64 128 113.5 c 128,-1,42
 131 163 131 163 131 211 c 0,43,44
 131 261 131 261 128.5 306 c 128,-1,45
 126 351 126 351 118 387 c 0,46,47
 114 417 114 417 105 426 c 128,-1,48
 96 435 96 435 86.5 428.5 c 128,-1,49
 77 422 77 422 67.5 403 c 128,-1,50
 58 384 58 384 53 358 c 0,51,52
 52 351 52 351 51 327 c 128,-1,53
 50 303 50 303 49 269.5 c 128,-1,54
 48 236 48 236 47 197.5 c 128,-1,55
 46 159 46 159 45 123.5 c 128,-1,56
 44 88 44 88 43.5 59.5 c 128,-1,57
 43 31 43 31 43 18 c 1,58,-1
 23 24 l 1,59,60
 20 50 20 50 18.5 92.5 c 128,-1,61
 17 135 17 135 16.5 185 c 128,-1,62
 16 235 16 235 16.5 287 c 128,-1,63
 17 339 17 339 19.5 384 c 128,-1,64
 22 429 22 429 26.5 462 c 128,-1,65
 31 495 31 495 38 506 c 0,66,67
 49 529 49 529 66.5 540.5 c 128,-1,68
 84 552 84 552 99 550 c 0,69,70
 120 546 120 546 132.5 510 c 128,-1,71
 145 474 145 474 150.5 421 c 128,-1,72
 156 368 156 368 156 305 c 0,73,74
 156 243 156 243 153.5 185.5 c 128,-1,75
 151 128 151 128 147.5 83.5 c 128,-1,76
 144 39 144 39 142 23 c 1,77,-1
 120 19 l 1,40,41
552 230 m 1,78,79
 536 270 536 270 520.5 314 c 128,-1,80
 505 358 505 358 493 404 c 128,-1,81
 481 450 481 450 474 498.5 c 128,-1,82
 467 547 467 547 467 598 c 1,83,84
 450 604 450 604 446 602.5 c 128,-1,85
 442 601 442 601 437 594 c 1,86,87
 437 507 437 507 451 434 c 128,-1,88
 465 361 465 361 479 303.5 c 128,-1,89
 493 246 493 246 499.5 205 c 128,-1,90
 506 164 506 164 492 140 c 0,91,92
 491 140 491 140 481 136.5 c 128,-1,93
 471 133 471 133 455 131.5 c 128,-1,94
 439 130 439 130 423.5 135.5 c 128,-1,95
 408 141 408 141 396.5 158 c 128,-1,96
 385 175 385 175 384 208 c 2,97,-1
 381 482 l 1,98,-1
 360 485 l 1,99,100
 359 475 359 475 359 463 c 256,101,102
 359 451 359 451 359 437 c 0,103,104
 359 396 359 396 360 348.5 c 128,-1,105
 361 301 361 301 361 266 c 2,106,-1
 361 238 l 2,107,108
 361 226 361 226 360 222 c 0,109,110
 360 204 360 204 362 172 c 128,-1,111
 364 140 364 140 371.5 109 c 128,-1,112
 379 78 379 78 392.5 55.5 c 128,-1,113
 406 33 406 33 430 33 c 0,114,115
 439 33 439 33 454.5 35 c 128,-1,116
 470 37 470 37 487.5 44.5 c 128,-1,117
 505 52 505 52 521.5 65 c 128,-1,118
 538 78 538 78 548.5 100 c 128,-1,119
 559 122 559 122 561 154 c 128,-1,120
 563 186 563 186 552 230 c 1,78,79
EndSplineSet
EndChar

StartChar: .0105
Encoding: 105 105 73
Width: 2
Flags: W
LayerCount: 2
Fore
SplineSet
-294 618 m 1,0,-1
 -282 618 l 1,1,-1
 -282 551 l 1,2,-1
 -139 476 l 1,3,-1
 -139 611 l 1,4,-1
 -126 611 l 1,5,-1
 -126 35 l 1,6,-1
 -139 35 l 1,7,-1
 -139 74 l 1,8,-1
 -282 147 l 1,9,-1
 -284 18 l 1,10,-1
 -296 18 l 1,11,-1
 -294 618 l 1,0,-1
-279 434 m 1,12,-1
 -279 296 l 1,13,-1
 -142 214 l 1,14,-1
 -142 356 l 1,15,-1
 -279 434 l 1,12,-1
EndSplineSet
EndChar

StartChar: .0106
Encoding: 106 106 74
Width: 782
Flags: W
LayerCount: 2
Fore
SplineSet
62 200 m 1,0,1
 68 213 68 213 92.5 242 c 128,-1,2
 117 271 117 271 154 309.5 c 128,-1,3
 191 348 191 348 237 393 c 128,-1,4
 283 438 283 438 331.5 482.5 c 128,-1,5
 380 527 380 527 428.5 569 c 128,-1,6
 477 611 477 611 518.5 643 c 128,-1,7
 560 675 560 675 592 694 c 128,-1,8
 624 713 624 713 640 713 c 0,9,10
 661 708 661 708 677 703 c 128,-1,11
 693 698 693 698 706.5 692.5 c 128,-1,12
 720 687 720 687 733.5 680 c 128,-1,13
 747 673 747 673 764 664 c 1,14,15
 764 651 764 651 764.5 634 c 128,-1,16
 765 617 765 617 764.5 602.5 c 128,-1,17
 764 588 764 588 763 579.5 c 128,-1,18
 762 571 762 571 759 576 c 2,19,-1
 651 612 l 2,20,21
 647 614 647 614 623 600.5 c 128,-1,22
 599 587 599 587 561 561.5 c 128,-1,23
 523 536 523 536 475 500 c 128,-1,24
 427 464 427 464 376 420 c 128,-1,25
 325 376 325 376 274 326.5 c 128,-1,26
 223 277 223 277 178.5 225 c 128,-1,27
 134 173 134 173 100 119.5 c 128,-1,28
 66 66 66 66 49 15 c 1,29,-1
 28 17 l 1,30,-1
 74 569 l 1,31,-1
 42 546 l 1,32,-1
 56 725 l 1,33,-1
 91 746 l 1,34,-1
 104 884 l 1,35,-1
 121 878 l 1,36,37
 103 710 103 710 89.5 539 c 128,-1,38
 76 368 76 368 62 200 c 1,0,1
EndSplineSet
EndChar

StartChar: .0107
Encoding: 107 107 75
Width: 767
Flags: W
LayerCount: 2
Fore
SplineSet
34 33 m 2,0,-1
 33 34 l 1,1,-1
 90 874 l 1,2,-1
 106 873 l 1,3,-1
 57 200 l 1,4,-1
 65 199 l 1,5,6
 70 221 70 221 95.5 257.5 c 128,-1,7
 121 294 121 294 161.5 339.5 c 128,-1,8
 202 385 202 385 254.5 436.5 c 128,-1,9
 307 488 307 488 366.5 540.5 c 128,-1,10
 426 593 426 593 490 642.5 c 128,-1,11
 554 692 554 692 616 733 c 1,12,-1
 751 667 l 1,13,-1
 742 571 l 1,14,15
 725 578 725 578 716 583.5 c 128,-1,16
 707 589 707 589 699 594 c 128,-1,17
 691 599 691 599 680 604 c 128,-1,18
 669 609 669 609 649 615 c 1,19,20
 638 626 638 626 607 614 c 128,-1,21
 576 602 576 602 533 572.5 c 128,-1,22
 490 543 490 543 439 500.5 c 128,-1,23
 388 458 388 458 336 408.5 c 128,-1,24
 284 359 284 359 235 305.5 c 128,-1,25
 186 252 186 252 147.5 202 c 128,-1,26
 109 152 109 152 85 108 c 128,-1,27
 61 64 61 64 59 33 c 0,28,29
 55 15 55 15 47.5 19 c 128,-1,30
 40 23 40 23 34 33 c 2,0,-1
EndSplineSet
EndChar

StartChar: .0108
Encoding: 108 108 76
Width: 775
Flags: W
LayerCount: 2
Fore
SplineSet
85 62 m 0,0,1
 84 60 84 60 80.5 50 c 128,-1,2
 77 40 77 40 70.5 28.5 c 128,-1,3
 64 17 64 17 59 17 c 0,4,5
 56 17 56 17 54 26.5 c 128,-1,6
 52 36 52 36 53 62 c 1,7,-1
 56 62 l 1,8,-1
 115 803 l 1,9,-1
 33 777 l 1,10,-1
 46 855 l 1,11,-1
 142 875 l 1,12,-1
 85 200 l 1,13,14
 126 266 126 266 163 318 c 128,-1,15
 200 370 200 370 238 412.5 c 128,-1,16
 276 455 276 455 317 491.5 c 128,-1,17
 358 528 358 528 408 563.5 c 128,-1,18
 458 599 458 599 519 636 c 128,-1,19
 580 673 580 673 657 717 c 1,20,-1
 761 684 l 1,21,-1
 756 590 l 1,22,-1
 656 633 l 2,23,24
 651 635 651 635 617.5 621.5 c 128,-1,25
 584 608 584 608 533.5 577.5 c 128,-1,26
 483 547 483 547 421.5 500.5 c 128,-1,27
 360 454 360 454 298 389.5 c 128,-1,28
 236 325 236 325 180 243.5 c 128,-1,29
 124 162 124 162 85 62 c 0,0,1
EndSplineSet
EndChar

StartChar: .0109
Encoding: 109 109 77
Width: 96
Flags: W
LayerCount: 2
Fore
SplineSet
41 86 m 1,0,-1
 52 86 l 1,1,2
 57 116 57 116 61 150.5 c 128,-1,3
 65 185 65 185 67.5 220 c 128,-1,4
 70 255 70 255 70 287 c 256,5,6
 70 319 70 319 65.5 344 c 128,-1,7
 61 369 61 369 52.5 384 c 128,-1,8
 44 399 44 399 29 399 c 0,9,10
 8 399 8 399 -5 390 c 128,-1,11
 -18 381 -18 381 -24.5 366.5 c 128,-1,12
 -31 352 -31 352 -33.5 333.5 c 128,-1,13
 -36 315 -36 315 -36 295 c 0,14,15
 -36 281 -36 281 -36 268 c 0,16,17
 -36 256 -36 256 -37 245 c 1,18,-1
 -27 244 l 1,19,20
 -25 298 -25 298 -13.5 320.5 c 128,-1,21
 -2 343 -2 343 22 338 c 0,22,23
 38 335 38 335 44 305 c 128,-1,24
 50 275 50 275 50 233 c 0,25,26
 50 193 50 193 46.5 151.5 c 128,-1,27
 43 110 43 110 41 86 c 1,0,-1
EndSplineSet
EndChar

StartChar: .0110
Encoding: 110 110 78
Width: 346
Flags: W
LayerCount: 2
Fore
SplineSet
197 592 m 0,0,1
 166 596 166 596 146 589.5 c 128,-1,2
 126 583 126 583 113.5 569 c 128,-1,3
 101 555 101 555 95.5 536 c 128,-1,4
 90 517 90 517 88 498.5 c 128,-1,5
 86 480 86 480 86 463 c 256,6,7
 86 446 86 446 86 436 c 1,8,-1
 69 438 l 1,9,10
 61 535 61 535 65.5 589.5 c 128,-1,11
 70 644 70 644 86.5 670.5 c 128,-1,12
 103 697 103 697 132 703 c 128,-1,13
 161 709 161 709 202 709 c 0,14,15
 239 709 239 709 259.5 692 c 128,-1,16
 280 675 280 675 290.5 651.5 c 128,-1,17
 301 628 301 628 304 602.5 c 128,-1,18
 307 577 307 577 308 560 c 2,19,-1
 316 686 l 1,20,-1
 340 686 l 1,21,-1
 314 292 l 1,22,-1
 296 292 l 1,23,24
 293 373 293 373 288 428.5 c 128,-1,25
 283 484 283 484 272.5 519 c 128,-1,26
 262 554 262 554 244 571 c 128,-1,27
 226 588 226 588 197 592 c 0,0,1
16 146 m 0,28,29
 15 155 15 155 16.5 168.5 c 128,-1,30
 18 182 18 182 22 198.5 c 128,-1,31
 26 215 26 215 31.5 232 c 128,-1,32
 37 249 37 249 45 265 c 1,33,34
 53 254 53 254 77 235 c 128,-1,35
 101 216 101 216 131.5 197 c 128,-1,36
 162 178 162 178 194 164 c 128,-1,37
 226 150 226 150 252 149 c 1,38,39
 246 122 246 122 242 107.5 c 128,-1,40
 238 93 238 93 238 81 c 0,41,42
 238 70 238 70 241 58.5 c 128,-1,43
 244 47 244 47 250 27 c 1,44,45
 226 33 226 33 188 46 c 128,-1,46
 150 59 150 59 113.5 75.5 c 128,-1,47
 77 92 77 92 48.5 110.5 c 128,-1,48
 20 129 20 129 16 146 c 0,28,29
35 330 m 0,49,50
 38 348 38 348 40.5 358 c 128,-1,51
 43 368 43 368 45.5 376.5 c 128,-1,52
 48 385 48 385 50.5 396 c 128,-1,53
 53 407 53 407 56 428 c 1,54,55
 58 423 58 423 72 413.5 c 128,-1,56
 86 404 86 404 106 392.5 c 128,-1,57
 126 381 126 381 149 369 c 128,-1,58
 172 357 172 357 194 347 c 128,-1,59
 216 337 216 337 233.5 330.5 c 128,-1,60
 251 324 251 324 259 324 c 1,61,62
 252 280 252 280 249.5 256 c 128,-1,63
 247 232 247 232 247 219 c 2,64,-1
 247 205 l 1,65,-1
 247 197 l 1,66,67
 243 197 243 197 225.5 204.5 c 128,-1,68
 208 212 208 212 184.5 224 c 128,-1,69
 161 236 161 236 135 251 c 128,-1,70
 109 266 109 266 86.5 281 c 128,-1,71
 64 296 64 296 49.5 309 c 128,-1,72
 35 322 35 322 35 330 c 0,49,50
EndSplineSet
EndChar

StartChar: .0111
Encoding: 111 111 79
Width: 738
Flags: W
LayerCount: 2
Fore
SplineSet
615 630 m 1,0,1
 636 623 636 623 656 615 c 128,-1,2
 676 607 676 607 700 589 c 1,3,-1
 708 676 l 1,4,-1
 627 720 l 1,5,6
 616 720 616 720 591 705.5 c 128,-1,7
 566 691 566 691 533.5 667.5 c 128,-1,8
 501 644 501 644 465.5 615.5 c 128,-1,9
 430 587 430 587 397.5 559 c 128,-1,10
 365 531 365 531 340.5 507 c 128,-1,11
 316 483 316 483 306 469 c 1,12,-1
 323 700 l 1,13,-1
 310 700 l 1,14,-1
 292 454 l 1,15,16
 261 417 261 417 227 378 c 128,-1,17
 193 339 193 339 160.5 301.5 c 128,-1,18
 128 264 128 264 100 228.5 c 128,-1,19
 72 193 72 193 52 163 c 1,20,21
 58 236 58 236 64 303.5 c 128,-1,22
 70 371 70 371 76 437.5 c 128,-1,23
 82 504 82 504 88 572.5 c 128,-1,24
 94 641 94 641 100 718 c 1,25,-1
 164 753 l 1,26,-1
 173 844 l 1,27,-1
 90 800 l 1,28,-1
 78 648 l 1,29,-1
 41 622 l 1,30,-1
 25 491 l 1,31,-1
 65 525 l 1,32,-1
 22 11 l 1,33,-1
 39 10 l 1,34,35
 76 78 76 78 126.5 150.5 c 128,-1,36
 177 223 177 223 233.5 292 c 128,-1,37
 290 361 290 361 348 422.5 c 128,-1,38
 406 484 406 484 457.5 530 c 128,-1,39
 509 576 509 576 550.5 603 c 128,-1,40
 592 630 592 630 615 630 c 1,0,1
EndSplineSet
EndChar

StartChar: .0112
Encoding: 112 112 80
Width: 767
Flags: W
LayerCount: 2
Fore
SplineSet
647 768 m 1,0,1
 672 756 672 756 697 744 c 128,-1,2
 722 732 722 732 747 720 c 1,3,-1
 741 638 l 1,4,5
 724 644 724 644 701 655 c 128,-1,6
 678 666 678 666 658 671 c 1,7,8
 612 669 612 669 560.5 642 c 128,-1,9
 509 615 509 615 456 572 c 128,-1,10
 403 529 403 529 350.5 474 c 128,-1,11
 298 419 298 419 250.5 360.5 c 128,-1,12
 203 302 203 302 162.5 244.5 c 128,-1,13
 122 187 122 187 92.5 139 c 128,-1,14
 63 91 63 91 47.5 56.5 c 128,-1,15
 32 22 32 22 34 10 c 1,16,-1
 7 11 l 1,17,18
 11 74 11 74 16 143 c 128,-1,19
 21 212 21 212 27 281.5 c 128,-1,20
 33 351 33 351 39.5 419.5 c 128,-1,21
 46 488 46 488 54 551 c 1,22,-1
 14 512 l 1,23,-1
 26 695 l 1,24,-1
 71 728 l 1,25,-1
 82 895 l 1,26,-1
 216 945 l 1,27,-1
 204 838 l 1,28,29
 175 834 175 834 157 825.5 c 128,-1,30
 139 817 139 817 129 809 c 128,-1,31
 119 801 119 801 115 796 c 128,-1,32
 111 791 111 791 109 795 c 1,33,34
 104 722 104 722 97 654.5 c 128,-1,35
 90 587 90 587 82.5 519.5 c 128,-1,36
 75 452 75 452 68.5 383 c 128,-1,37
 62 314 62 314 58 238 c 1,38,39
 78 275 78 275 116.5 326.5 c 128,-1,40
 155 378 155 378 205 434.5 c 128,-1,41
 255 491 255 491 312.5 547 c 128,-1,42
 370 603 370 603 429 649.5 c 128,-1,43
 488 696 488 696 544 728 c 128,-1,44
 600 760 600 760 647 768 c 1,0,1
EndSplineSet
EndChar

StartChar: .0113
Encoding: 113 113 81
Width: 2
Flags: W
LayerCount: 2
Fore
SplineSet
-24 252 m 0,0,1
 -24 223 -24 223 -28 186 c 128,-1,2
 -32 149 -32 149 -39 113.5 c 128,-1,3
 -46 78 -46 78 -57 49 c 128,-1,4
 -68 20 -68 20 -81 8 c 1,5,6
 -88 9 -88 9 -95.5 34 c 128,-1,7
 -103 59 -103 59 -109.5 96.5 c 128,-1,8
 -116 134 -116 134 -120 178 c 128,-1,9
 -124 222 -124 222 -124 261 c 0,10,11
 -127 297 -127 297 -122.5 336.5 c 128,-1,12
 -118 376 -118 376 -109.5 411 c 128,-1,13
 -101 446 -101 446 -90 473 c 128,-1,14
 -79 500 -79 500 -69 511 c 1,15,16
 -65 503 -65 503 -57 491.5 c 128,-1,17
 -49 480 -49 480 -41.5 453 c 128,-1,18
 -34 426 -34 426 -28.5 378.5 c 128,-1,19
 -23 331 -23 331 -24 252 c 0,0,1
-80 399 m 1,20,21
 -85 384 -85 384 -87.5 373.5 c 128,-1,22
 -90 363 -90 363 -91.5 348.5 c 128,-1,23
 -93 334 -93 334 -93.5 311 c 128,-1,24
 -94 288 -94 288 -95 249 c 0,25,26
 -97 205 -97 205 -94.5 176 c 128,-1,27
 -92 147 -92 147 -88.5 129.5 c 128,-1,28
 -85 112 -85 112 -82 105.5 c 128,-1,29
 -79 99 -79 99 -79 99 c 1,30,31
 -75 112 -75 112 -71 123.5 c 128,-1,32
 -67 135 -67 135 -64 151.5 c 128,-1,33
 -61 168 -61 168 -59.5 192 c 128,-1,34
 -58 216 -58 216 -59 252 c 0,35,36
 -61 324 -61 324 -65 358.5 c 128,-1,37
 -69 393 -69 393 -80 399 c 1,20,21
EndSplineSet
EndChar

StartChar: .0114
Encoding: 114 114 82
Width: 318
Flags: W
LayerCount: 2
Fore
SplineSet
142 356 m 1,0,1
 129 296 129 296 126.5 247.5 c 128,-1,2
 124 199 124 199 135 171.5 c 128,-1,3
 146 144 146 144 171 142 c 128,-1,4
 196 140 196 140 237 172 c 1,5,6
 241 187 241 187 244.5 209 c 128,-1,7
 248 231 248 231 252.5 251.5 c 128,-1,8
 257 272 257 272 264 286.5 c 128,-1,9
 271 301 271 301 282 300 c 0,10,11
 288 303 288 303 289.5 284.5 c 128,-1,12
 291 266 291 266 290.5 239.5 c 128,-1,13
 290 213 290 213 287.5 185 c 128,-1,14
 285 157 285 157 282 141 c 0,15,16
 276 110 276 110 261 85 c 128,-1,17
 246 60 246 60 206 34 c 0,18,19
 188 23 188 23 165.5 21 c 128,-1,20
 143 19 143 19 123.5 26.5 c 128,-1,21
 104 34 104 34 92 51 c 128,-1,22
 80 68 80 68 83 95 c 1,23,24
 81 127 81 127 82 158 c 128,-1,25
 83 189 83 189 86 221.5 c 128,-1,26
 89 254 89 254 93.5 289.5 c 128,-1,27
 98 325 98 325 102 367 c 1,28,-1
 12 379 l 1,29,-1
 26 469 l 1,30,-1
 105 459 l 1,31,-1
 140 717 l 1,32,33
 122 741 122 741 108 746 c 128,-1,34
 94 751 94 751 83 743.5 c 128,-1,35
 72 736 72 736 64 719.5 c 128,-1,36
 56 703 56 703 51 683 c 128,-1,37
 46 663 46 663 44 643 c 128,-1,38
 42 623 42 623 43 610 c 1,39,40
 40 624 40 624 36 642 c 128,-1,41
 32 660 32 660 31.5 679.5 c 128,-1,42
 31 699 31 699 35.5 718.5 c 128,-1,43
 40 738 40 738 53 756 c 0,44,45
 70 779 70 779 95.5 787.5 c 128,-1,46
 121 796 121 796 144 789 c 128,-1,47
 167 782 167 782 182 761 c 128,-1,48
 197 740 197 740 193 705 c 0,49,50
 188 667 188 667 180 636.5 c 128,-1,51
 172 606 172 606 164.5 577 c 128,-1,52
 157 548 157 548 151 517.5 c 128,-1,53
 145 487 145 487 144 449 c 1,54,-1
 242 432 l 1,55,-1
 236 339 l 1,56,57
 216 340 216 340 187.5 344 c 128,-1,58
 159 348 159 348 142 356 c 1,0,1
EndSplineSet
EndChar

StartChar: .0115
Encoding: 115 115 83
Width: 299
Flags: W
LayerCount: 2
Fore
SplineSet
67 437 m 1,0,1
 63 469 63 469 62.5 509 c 128,-1,2
 62 549 62 549 64 582 c 1,3,4
 96 614 96 614 144 630.5 c 128,-1,5
 192 647 192 647 244 661 c 1,6,7
 241 615 241 615 242 584.5 c 128,-1,8
 243 554 243 554 247 523 c 1,9,10
 222 516 222 516 192.5 505 c 128,-1,11
 163 494 163 494 136.5 482 c 128,-1,12
 110 470 110 470 90.5 458 c 128,-1,13
 71 446 71 446 67 437 c 1,0,1
220 292 m 1,14,15
 174 278 174 278 126.5 253 c 128,-1,16
 79 228 79 228 43 203 c 1,17,18
 38 267 38 267 46 335 c 1,19,20
 76 371 76 371 123 391.5 c 128,-1,21
 170 412 170 412 218 417 c 1,22,23
 213 377 213 377 214 347.5 c 128,-1,24
 215 318 215 318 220 292 c 1,14,15
EndSplineSet
EndChar

StartChar: .0116
Encoding: 116 116 84
Width: 545
Flags: W
LayerCount: 2
Fore
SplineSet
219 198 m 1,0,1
 219 229 219 229 219.5 246.5 c 128,-1,2
 220 264 220 264 220.5 276.5 c 128,-1,3
 221 289 221 289 222 301 c 128,-1,4
 223 313 223 313 226 332 c 1,5,6
 195 327 195 327 161.5 306 c 128,-1,7
 128 285 128 285 98.5 260 c 128,-1,8
 69 235 69 235 48 213.5 c 128,-1,9
 27 192 27 192 22 185 c 1,10,11
 20 159 20 159 20 143 c 256,12,13
 20 127 20 127 21 114 c 128,-1,14
 22 101 22 101 24 89.5 c 128,-1,15
 26 78 26 78 29 61 c 1,16,17
 45 76 45 76 69.5 100.5 c 128,-1,18
 94 125 94 125 121 147.5 c 128,-1,19
 148 170 148 170 174 185 c 128,-1,20
 200 200 200 200 218 198 c 2,21,-1
 219 198 l 1,0,1
324 167 m 1,22,23
 342 151 342 151 363.5 133.5 c 128,-1,24
 385 116 385 116 407 98 c 128,-1,25
 429 80 429 80 450 61.5 c 128,-1,26
 471 43 471 43 488 27 c 1,27,28
 488 48 488 48 489 70 c 128,-1,29
 490 92 490 92 491.5 109.5 c 128,-1,30
 493 127 493 127 494.5 138.5 c 128,-1,31
 496 150 496 150 496 151 c 0,32,33
 460 187 460 187 420 225 c 128,-1,34
 380 263 380 263 319 307 c 1,35,36
 321 267 321 267 321 230 c 256,37,38
 321 193 321 193 324 167 c 1,22,23
94 454 m 1,39,40
 97 436 97 436 97.5 421 c 128,-1,41
 98 406 98 406 99 391 c 128,-1,42
 100 376 100 376 102.5 359 c 128,-1,43
 105 342 105 342 112 320 c 1,44,45
 127 340 127 340 140.5 354.5 c 128,-1,46
 154 369 154 369 168.5 381 c 128,-1,47
 183 393 183 393 198.5 402.5 c 128,-1,48
 214 412 214 412 232 423 c 1,49,50
 233 448 233 448 233.5 459.5 c 128,-1,51
 234 471 234 471 235 481.5 c 128,-1,52
 236 492 236 492 236.5 507 c 128,-1,53
 237 522 237 522 237 554 c 1,54,55
 216 550 216 550 196.5 539 c 128,-1,56
 177 528 177 528 159.5 513.5 c 128,-1,57
 142 499 142 499 125.5 483 c 128,-1,58
 109 467 109 467 94 454 c 1,39,40
293 431 m 1,59,60
 309 418 309 418 323 406 c 128,-1,61
 337 394 337 394 351.5 380.5 c 128,-1,62
 366 367 366 367 383 349.5 c 128,-1,63
 400 332 400 332 422 308 c 1,64,65
 422 327 422 327 423 340.5 c 128,-1,66
 424 354 424 354 426 367 c 128,-1,67
 428 380 428 380 432 394.5 c 128,-1,68
 436 409 436 409 441 430 c 1,69,70
 427 443 427 443 411 461.5 c 128,-1,71
 395 480 395 480 377 500 c 128,-1,72
 359 520 359 520 339 538 c 128,-1,73
 319 556 319 556 296 567 c 1,74,75
 291 529 291 529 293 498.5 c 128,-1,76
 295 468 295 468 293 431 c 1,59,60
372 688 m 1,77,78
 367 715 367 715 344.5 731.5 c 128,-1,79
 322 748 322 748 291.5 753 c 128,-1,80
 261 758 261 758 225.5 752.5 c 128,-1,81
 190 747 190 747 158 731 c 1,82,-1
 155 809 l 1,83,-1
 138 809 l 1,84,85
 140 773 140 773 141.5 745 c 128,-1,86
 143 717 143 717 145.5 691 c 128,-1,87
 148 665 148 665 151 638 c 128,-1,88
 154 611 154 611 159 577 c 1,89,90
 181 611 181 611 212 624.5 c 128,-1,91
 243 638 243 638 273 635.5 c 128,-1,92
 303 633 303 633 326 617 c 128,-1,93
 349 601 349 601 355 576 c 1,94,95
 359 590 359 590 361.5 603 c 128,-1,96
 364 616 364 616 365.5 629 c 128,-1,97
 367 642 367 642 368.5 656.5 c 128,-1,98
 370 671 370 671 372 688 c 1,77,78
EndSplineSet
EndChar

StartChar: .0117
Encoding: 117 117 85
Width: 282
Flags: W
LayerCount: 2
Fore
SplineSet
106 243 m 1,0,-1
 172 833 l 1,1,-1
 80 900 l 1,2,-1
 71 794 l 1,3,-1
 126 751 l 1,4,-1
 43 23 l 1,5,6
 68 41 68 41 98.5 59 c 128,-1,7
 129 77 129 77 158.5 93.5 c 128,-1,8
 188 110 188 110 213.5 124.5 c 128,-1,9
 239 139 239 139 256 149 c 1,10,11
 255 156 255 156 255.5 179.5 c 128,-1,12
 256 203 256 203 256 230 c 256,13,14
 256 257 256 257 256.5 281 c 128,-1,15
 257 305 257 305 256 314 c 1,16,17
 219 300 219 300 179 280 c 128,-1,18
 139 260 139 260 106 243 c 1,0,-1
EndSplineSet
EndChar

StartChar: .0118
Encoding: 118 118 86
Width: 317
Flags: W
LayerCount: 2
Fore
SplineSet
150 242 m 1,0,1
 183 259 183 259 223 279 c 128,-1,2
 263 299 263 299 300 313 c 1,3,4
 301 304 301 304 300.5 280 c 128,-1,5
 300 256 300 256 300 229 c 256,6,7
 300 202 300 202 299.5 178.5 c 128,-1,8
 299 155 299 155 300 148 c 1,9,10
 283 138 283 138 257 124 c 128,-1,11
 231 110 231 110 201.5 93.5 c 128,-1,12
 172 77 172 77 142 58.5 c 128,-1,13
 112 40 112 40 87 22 c 1,14,-1
 175 745 l 1,15,-1
 81 720 l 1,16,-1
 86 824 l 1,17,-1
 229 854 l 1,18,-1
 150 242 l 1,0,1
EndSplineSet
EndChar

StartChar: .0119
Encoding: 119 119 87
Width: 267
Flags: W
LayerCount: 2
Fore
SplineSet
252 324 m 1,0,-1
 244 163 l 1,1,2
 212 143 212 143 189.5 129 c 128,-1,3
 167 115 167 115 145.5 100 c 128,-1,4
 124 85 124 85 99.5 65.5 c 128,-1,5
 75 46 75 46 40 15 c 1,6,-1
 89 521 l 1,7,-1
 43 492 l 1,8,-1
 59 659 l 1,9,-1
 104 684 l 1,10,-1
 124 819 l 1,11,-1
 157 820 l 1,12,-1
 94 242 l 1,13,14
 104 246 104 246 124 258.5 c 128,-1,15
 144 271 144 271 167 285 c 128,-1,16
 190 299 190 299 212.5 310.5 c 128,-1,17
 235 322 235 322 252 324 c 1,0,-1
EndSplineSet
EndChar

StartChar: x
Encoding: 120 120 88
Width: 250
Flags: W
LayerCount: 2
Fore
SplineSet
233 325 m 1,0,1
 216 323 216 323 193.5 311.5 c 128,-1,2
 171 300 171 300 148 286 c 128,-1,3
 125 272 125 272 105 259.5 c 128,-1,4
 85 247 85 247 75 243 c 1,5,-1
 138 821 l 1,6,-1
 105 820 l 1,7,-1
 85 685 l 1,8,-1
 57 731 l 1,9,-1
 41 564 l 1,10,-1
 70 522 l 1,11,-1
 21 16 l 1,12,13
 56 47 56 47 80.5 66.5 c 128,-1,14
 105 86 105 86 126.5 101 c 128,-1,15
 148 116 148 116 170.5 130 c 128,-1,16
 193 144 193 144 225 164 c 1,17,-1
 233 325 l 1,0,1
EndSplineSet
EndChar

StartChar: .0121
Encoding: 121 121 89
Width: 2
Flags: W
LayerCount: 2
Fore
SplineSet
-207 252 m 1,0,1
 -186 227 -186 227 -144.5 200.5 c 128,-1,2
 -103 174 -103 174 -45 161 c 1,3,4
 -41 193 -41 193 -41 222 c 256,5,6
 -41 251 -41 251 -41 283 c 1,7,8
 -58 286 -58 286 -80 297 c 128,-1,9
 -102 308 -102 308 -124.5 322 c 128,-1,10
 -147 336 -147 336 -169 352 c 128,-1,11
 -191 368 -191 368 -207 381 c 1,12,13
 -209 345 -209 345 -210.5 314.5 c 128,-1,14
 -212 284 -212 284 -207 252 c 1,0,1
EndSplineSet
EndChar

StartChar: .0122
Encoding: 122 122 90
Width: 371
Flags: W
LayerCount: 2
Fore
SplineSet
105 889 m 1,0,-1
 72 889 l 1,1,2
 72 889 72 889 70.5 859 c 128,-1,3
 69 829 69 829 66 777.5 c 128,-1,4
 63 726 63 726 59 659 c 128,-1,5
 55 592 55 592 50.5 518 c 128,-1,6
 46 444 46 444 41.5 368 c 128,-1,7
 37 292 37 292 33 223.5 c 128,-1,8
 29 155 29 155 25 99 c 128,-1,9
 21 43 21 43 19 9 c 1,10,-1
 51 10 l 1,11,12
 64 197 64 197 73 328 c 128,-1,13
 82 459 82 459 95.5 541 c 128,-1,14
 109 623 109 623 131.5 658.5 c 128,-1,15
 154 694 154 694 194 691 c 0,16,17
 226 688 226 688 252.5 657.5 c 128,-1,18
 279 627 279 627 295.5 551 c 128,-1,19
 312 475 312 475 315.5 344.5 c 128,-1,20
 319 214 319 214 306 12 c 1,21,-1
 332 12 l 2,22,23
 333 12 333 12 334.5 38 c 128,-1,24
 336 64 336 64 337.5 104 c 128,-1,25
 339 144 339 144 340.5 192 c 128,-1,26
 342 240 342 240 343 285 c 128,-1,27
 344 330 344 330 345 365.5 c 128,-1,28
 346 401 346 401 346 415 c 0,29,30
 346 425 346 425 344.5 457.5 c 128,-1,31
 343 490 343 490 337.5 533.5 c 128,-1,32
 332 577 332 577 321.5 625 c 128,-1,33
 311 673 311 673 293.5 712.5 c 128,-1,34
 276 752 276 752 250.5 777 c 128,-1,35
 225 802 225 802 189 800 c 0,36,37
 166 798 166 798 141.5 786.5 c 128,-1,38
 117 775 117 775 100 749 c 1,39,-1
 105 889 l 1,0,-1
EndSplineSet
EndChar

StartChar: .0123
Encoding: 123 123 91
Width: 2
Flags: W
LayerCount: 2
Fore
SplineSet
-476 647 m 1,0,1
 -487 670 -487 670 -496 692 c 128,-1,2
 -505 714 -505 714 -513 737 c 1,3,4
 -475 771 -475 771 -443.5 788.5 c 128,-1,5
 -412 806 -412 806 -380 824 c 1,6,7
 -377 815 -377 815 -372.5 802.5 c 128,-1,8
 -368 790 -368 790 -362.5 776.5 c 128,-1,9
 -357 763 -357 763 -352.5 750.5 c 128,-1,10
 -348 738 -348 738 -345 729 c 1,11,12
 -366 720 -366 720 -386 708.5 c 128,-1,13
 -406 697 -406 697 -423 686 c 128,-1,14
 -440 675 -440 675 -453.5 664.5 c 128,-1,15
 -467 654 -467 654 -476 647 c 1,0,1
EndSplineSet
EndChar

StartChar: .0124
Encoding: 124 124 92
Width: 2
Flags: W
LayerCount: 2
Fore
SplineSet
-191 89 m 2,0,-1
 -171 272 l 1,1,-1
 -181 273 l 1,2,3
 -187 235 -187 235 -192 208.5 c 128,-1,4
 -197 182 -197 182 -202 164 c 128,-1,5
 -207 146 -207 146 -213 135 c 128,-1,6
 -219 124 -219 124 -227 118 c 0,7,8
 -239 109 -239 109 -253.5 110 c 128,-1,9
 -268 111 -268 111 -273 137 c 0,10,11
 -279 168 -279 168 -279 196 c 0,12,13
 -279 211 -279 211 -278.5 229.5 c 128,-1,14
 -278 248 -278 248 -276 272 c 1,15,-1
 -286 272 l 1,16,17
 -292 231 -292 231 -295.5 196 c 128,-1,18
 -299 161 -299 161 -299.5 134 c 128,-1,19
 -300 107 -300 107 -296 88.5 c 128,-1,20
 -292 70 -292 70 -283 63 c 0,21,22
 -270 53 -270 53 -256 49.5 c 128,-1,23
 -242 46 -242 46 -229 49 c 128,-1,24
 -216 52 -216 52 -206 62 c 128,-1,25
 -196 72 -196 72 -191 89 c 2,0,-1
EndSplineSet
EndChar

StartChar: .0125
Encoding: 125 125 93
Width: 2
Flags: W
LayerCount: 2
Fore
SplineSet
-314 800 m 0,0,1
 -337 833 -337 833 -373.5 841.5 c 128,-1,2
 -410 850 -410 850 -445.5 836.5 c 128,-1,3
 -481 823 -481 823 -508.5 789.5 c 128,-1,4
 -536 756 -536 756 -541 705 c 1,5,6
 -549 705 -549 705 -557.5 712 c 128,-1,7
 -566 719 -566 719 -572.5 728.5 c 128,-1,8
 -579 738 -579 738 -582 748 c 128,-1,9
 -585 758 -585 758 -582 763 c 0,10,11
 -571 807 -571 807 -548 840 c 128,-1,12
 -525 873 -525 873 -496 894.5 c 128,-1,13
 -467 916 -467 916 -435.5 926.5 c 128,-1,14
 -404 937 -404 937 -376 937.5 c 128,-1,15
 -348 938 -348 938 -327 928.5 c 128,-1,16
 -306 919 -306 919 -298 900 c 0,17,18
 -296 886 -296 886 -297 867 c 128,-1,19
 -298 848 -298 848 -300.5 831.5 c 128,-1,20
 -303 815 -303 815 -307 805 c 128,-1,21
 -311 795 -311 795 -314 800 c 0,0,1
EndSplineSet
EndChar

StartChar: .0126
Encoding: 126 126 94
Width: 7
Flags: W
LayerCount: 2
Fore
SplineSet
-116 666 m 1,0,1
 -116 679 -116 679 -116.5 701 c 128,-1,2
 -117 723 -117 723 -126 744 c 128,-1,3
 -135 765 -135 765 -155.5 780 c 128,-1,4
 -176 795 -176 795 -215 795 c 0,5,6
 -246 795 -246 795 -267.5 778 c 128,-1,7
 -289 761 -289 761 -303.5 733.5 c 128,-1,8
 -318 706 -318 706 -327.5 670.5 c 128,-1,9
 -337 635 -337 635 -344 598 c 1,10,11
 -314 639 -314 639 -285.5 669 c 128,-1,12
 -257 699 -257 699 -229 711 c 128,-1,13
 -201 723 -201 723 -173 713.5 c 128,-1,14
 -145 704 -145 704 -116 666 c 1,0,1
EndSplineSet
EndChar

StartChar: .0192
Encoding: 192 192 95
Width: 774
Flags: W
LayerCount: 2
Fore
SplineSet
635 702 m 1,0,1
 594 687 594 687 541.5 652 c 128,-1,2
 489 617 489 617 432.5 570.5 c 128,-1,3
 376 524 376 524 319 470.5 c 128,-1,4
 262 417 262 417 211 365 c 128,-1,5
 160 313 160 313 118.5 267.5 c 128,-1,6
 77 222 77 222 52 191 c 1,7,-1
 104 789 l 1,8,-1
 185 740 l 1,9,-1
 188 836 l 1,10,-1
 88 892 l 1,11,12
 71 715 71 715 59 578.5 c 128,-1,13
 47 442 47 442 38 336.5 c 128,-1,14
 29 231 29 231 23 151 c 128,-1,15
 17 71 17 71 13 8 c 1,16,-1
 34 6 l 2,17,18
 28 5 28 5 41.5 27 c 128,-1,19
 55 49 55 49 83.5 87 c 128,-1,20
 112 125 112 125 152.5 174.5 c 128,-1,21
 193 224 193 224 240.5 277 c 128,-1,22
 288 330 288 330 340 384 c 128,-1,23
 392 438 392 438 443 484 c 128,-1,24
 494 530 494 530 542.5 565.5 c 128,-1,25
 591 601 591 601 631 617 c 1,26,27
 649 609 649 609 672.5 594 c 128,-1,28
 696 579 696 579 715 572 c 1,29,30
 723 594 723 594 728.5 610.5 c 128,-1,31
 734 627 734 627 738.5 645.5 c 128,-1,32
 743 664 743 664 747.5 687.5 c 128,-1,33
 752 711 752 711 758 749 c 1,34,35
 750 749 750 749 748 750 c 128,-1,36
 746 751 746 751 740 752 c 1,37,38
 734 726 734 726 730 703.5 c 128,-1,39
 726 681 726 681 720 656 c 1,40,41
 709 666 709 666 691 675.5 c 128,-1,42
 673 685 673 685 635 702 c 1,0,1
EndSplineSet
EndChar

StartChar: Acircumflex
Encoding: 194 194 96
Width: 516
Flags: W
LayerCount: 2
Fore
SplineSet
51 652 m 1,0,1
 51 634 51 634 60 629 c 128,-1,2
 69 624 69 624 81 625 c 128,-1,3
 93 626 93 626 104 630 c 128,-1,4
 115 634 115 634 120 635 c 0,5,6
 155 644 155 644 194 655 c 128,-1,7
 233 666 233 666 277.5 674.5 c 128,-1,8
 322 683 322 683 372.5 686.5 c 128,-1,9
 423 690 423 690 481 684 c 0,10,11
 487 683 487 683 488.5 686.5 c 128,-1,12
 490 690 490 690 489 695 c 128,-1,13
 488 700 488 700 485.5 704.5 c 128,-1,14
 483 709 483 709 481 709 c 0,15,16
 480 710 480 710 473 710 c 2,17,-1
 465 710 l 1,18,-1
 450 710 l 1,19,-1
 427 710 l 2,20,21
 404 710 404 710 396 709 c 128,-1,22
 388 708 388 708 382 708 c 256,23,24
 376 708 376 708 375 709 c 0,25,26
 364 711 364 711 363 723.5 c 128,-1,27
 362 736 362 736 365.5 751.5 c 128,-1,28
 369 767 369 767 374 780.5 c 128,-1,29
 379 794 379 794 381 799 c 1,30,31
 408 807 408 807 421 807 c 0,32,33
 436 807 436 807 449.5 805 c 128,-1,34
 463 803 463 803 474.5 801.5 c 128,-1,35
 486 800 486 800 493.5 799 c 128,-1,36
 501 798 501 798 503 800 c 0,37,38
 511 805 511 805 510 813.5 c 128,-1,39
 509 822 509 822 501 824 c 0,40,41
 472 832 472 832 427 832.5 c 128,-1,42
 382 833 382 833 330.5 828.5 c 128,-1,43
 279 824 279 824 226 816 c 128,-1,44
 173 808 173 808 129.5 800 c 128,-1,45
 86 792 86 792 56 784.5 c 128,-1,46
 26 777 26 777 21 774 c 0,47,48
 7 764 7 764 9 752.5 c 128,-1,49
 11 741 11 741 29 744 c 0,50,51
 33 745 33 745 51 750.5 c 128,-1,52
 69 756 69 756 91 761 c 128,-1,53
 113 766 113 766 135.5 768 c 128,-1,54
 158 770 158 770 171 764 c 0,55,56
 177 761 177 761 180 755 c 128,-1,57
 183 749 183 749 183.5 741.5 c 128,-1,58
 184 734 184 734 183.5 726.5 c 128,-1,59
 183 719 183 719 181 714 c 0,60,61
 175 701 175 701 156 692.5 c 128,-1,62
 137 684 137 684 116 677.5 c 128,-1,63
 95 671 95 671 76 665.5 c 128,-1,64
 57 660 57 660 51 652 c 1,0,1
289 778 m 0,65,66
 300 779 300 779 306.5 774.5 c 128,-1,67
 313 770 313 770 315.5 762 c 128,-1,68
 318 754 318 754 317 744.5 c 128,-1,69
 316 735 316 735 313 726 c 1,70,71
 305 720 305 720 293.5 716 c 128,-1,72
 282 712 282 712 270 710.5 c 128,-1,73
 258 709 258 709 248 711 c 128,-1,74
 238 713 238 713 234 719 c 0,75,76
 231 722 231 722 230.5 730 c 128,-1,77
 230 738 230 738 232 746.5 c 128,-1,78
 234 755 234 755 239 763 c 128,-1,79
 244 771 244 771 253 774 c 0,80,81
 264 778 264 778 269.5 779 c 128,-1,82
 275 780 275 780 289 778 c 0,65,66
259 909 m 1,83,84
 233 908 233 908 229 902 c 128,-1,85
 225 896 225 896 229 876 c 0,86,87
 231 865 231 865 239 862.5 c 128,-1,88
 247 860 247 860 255 862 c 128,-1,89
 263 864 263 864 269.5 869.5 c 128,-1,90
 276 875 276 875 275 880 c 0,91,92
 274 884 274 884 272 893.5 c 128,-1,93
 270 903 270 903 259 909 c 1,83,84
EndSplineSet
EndChar

StartChar: Atilde
Encoding: 195 195 97
Width: 390
Flags: W
LayerCount: 2
Fore
SplineSet
120 676 m 0,0,1
 120 669 120 669 126.5 658.5 c 128,-1,2
 133 648 133 648 139.5 637.5 c 128,-1,3
 146 627 146 627 149.5 618 c 128,-1,4
 153 609 153 609 146 604 c 0,5,6
 138 598 138 598 133.5 606 c 128,-1,7
 129 614 129 614 123.5 625 c 128,-1,8
 118 636 118 636 109.5 645.5 c 128,-1,9
 101 655 101 655 85 653 c 0,10,11
 71 651 71 651 60.5 642.5 c 128,-1,12
 50 634 50 634 31 620 c 1,13,14
 13 617 13 617 12.5 621 c 128,-1,15
 12 625 12 625 20.5 634 c 128,-1,16
 29 643 29 643 41 655 c 128,-1,17
 53 667 53 667 61 680 c 0,18,19
 64 686 64 686 59 696.5 c 128,-1,20
 54 707 54 707 47.5 718 c 128,-1,21
 41 729 41 729 37 738.5 c 128,-1,22
 33 748 33 748 38 752 c 0,23,24
 44 756 44 756 50.5 748.5 c 128,-1,25
 57 741 57 741 64 730.5 c 128,-1,26
 71 720 71 720 78 710.5 c 128,-1,27
 85 701 85 701 91 701 c 0,28,29
 103 701 103 701 111 709 c 128,-1,30
 119 717 119 717 126 725.5 c 128,-1,31
 133 734 133 734 140 740.5 c 128,-1,32
 147 747 147 747 157 744 c 0,33,34
 164 742 164 742 159 735.5 c 128,-1,35
 154 729 154 729 145.5 720 c 128,-1,36
 137 711 137 711 128.5 699.5 c 128,-1,37
 120 688 120 688 120 676 c 0,0,1
201 686 m 0,38,39
 198 691 198 691 196 714.5 c 128,-1,40
 194 738 194 738 191.5 764.5 c 128,-1,41
 189 791 189 791 185.5 813 c 128,-1,42
 182 835 182 835 175 838 c 2,43,-1
 149 846 l 2,44,45
 144 848 144 848 145.5 858.5 c 128,-1,46
 147 869 147 869 147 874 c 1,47,48
 190 874 190 874 215.5 876 c 128,-1,49
 241 878 241 878 262.5 880 c 128,-1,50
 284 882 284 882 308 884 c 128,-1,51
 332 886 332 886 373 886 c 0,52,53
 376 885 376 885 374 876.5 c 128,-1,54
 372 868 372 868 367.5 857 c 128,-1,55
 363 846 363 846 357 835.5 c 128,-1,56
 351 825 351 825 345.5 819.5 c 128,-1,57
 340 814 340 814 336 817 c 128,-1,58
 332 820 332 820 332 836 c 1,59,60
 318 835 318 835 309 833.5 c 128,-1,61
 300 832 300 832 291.5 831 c 128,-1,62
 283 830 283 830 273.5 828.5 c 128,-1,63
 264 827 264 827 251 826 c 1,64,-1
 251 696 l 2,65,66
 250 691 250 691 243 687.5 c 128,-1,67
 236 684 236 684 227.5 683 c 128,-1,68
 219 682 219 682 211.5 682.5 c 128,-1,69
 204 683 204 683 201 686 c 0,38,39
EndSplineSet
EndChar

StartChar: .0199
Encoding: 199 199 98
Width: 355
Flags: W
LayerCount: 2
Fore
SplineSet
83 139 m 1,0,1
 82 151 82 151 83.5 171.5 c 128,-1,2
 85 192 85 192 85.5 215 c 128,-1,3
 86 238 86 238 84.5 262 c 128,-1,4
 83 286 83 286 76 305 c 1,5,6
 136 288 136 288 172 267 c 128,-1,7
 208 246 208 246 233 217 c 0,8,9
 239 214 239 214 243.5 198 c 128,-1,10
 248 182 248 182 249.5 159 c 128,-1,11
 251 136 251 136 249.5 110 c 128,-1,12
 248 84 248 84 241 61 c 1,13,14
 196 99 196 99 155 116 c 128,-1,15
 114 133 114 133 83 139 c 1,0,1
74 384 m 1,16,17
 79 420 79 420 73 453.5 c 128,-1,18
 67 487 67 487 63 529 c 1,19,20
 92 523 92 523 117.5 513 c 128,-1,21
 143 503 143 503 163.5 490.5 c 128,-1,22
 184 478 184 478 197 464.5 c 128,-1,23
 210 451 210 451 214 439 c 0,24,25
 226 407 226 407 224.5 376 c 128,-1,26
 223 345 223 345 217 300 c 1,27,28
 189 325 189 325 164.5 340 c 128,-1,29
 140 355 140 355 121 363.5 c 128,-1,30
 102 372 102 372 89.5 376.5 c 128,-1,31
 77 381 77 381 73 385 c 2,32,-1
 74 384 l 1,16,17
220 511 m 1,33,34
 199 526 199 526 178 540 c 128,-1,35
 157 554 157 554 135 563.5 c 128,-1,36
 113 573 113 573 90 577 c 128,-1,37
 67 581 67 581 42 576 c 1,38,39
 44 593 44 593 37.5 624.5 c 128,-1,40
 31 656 31 656 28 698 c 1,41,42
 57 698 57 698 81.5 696.5 c 128,-1,43
 106 695 106 695 129 688.5 c 128,-1,44
 152 682 152 682 176 669 c 128,-1,45
 200 656 200 656 228 632 c 1,46,47
 237 599 237 599 235.5 567.5 c 128,-1,48
 234 536 234 536 220 511 c 1,33,34
EndSplineSet
EndChar

StartChar: Iacute
Encoding: 205 205 99
Width: 399
Flags: W
LayerCount: 2
Fore
SplineSet
231 632 m 0,0,1
 231 644 231 644 239.5 655.5 c 128,-1,2
 248 667 248 667 256.5 676 c 128,-1,3
 265 685 265 685 270 691.5 c 128,-1,4
 275 698 275 698 268 700 c 0,5,6
 258 703 258 703 251 696.5 c 128,-1,7
 244 690 244 690 237 681.5 c 128,-1,8
 230 673 230 673 222 665 c 128,-1,9
 214 657 214 657 202 657 c 0,10,11
 196 657 196 657 189 666.5 c 128,-1,12
 182 676 182 676 175 686.5 c 128,-1,13
 168 697 168 697 161.5 704.5 c 128,-1,14
 155 712 155 712 149 708 c 0,15,16
 144 704 144 704 148 694.5 c 128,-1,17
 152 685 152 685 158.5 674 c 128,-1,18
 165 663 165 663 170 652.5 c 128,-1,19
 175 642 175 642 172 636 c 0,20,21
 164 623 164 623 152 611 c 128,-1,22
 140 599 140 599 131.5 590 c 128,-1,23
 123 581 123 581 123.5 577 c 128,-1,24
 124 573 124 573 142 576 c 1,25,26
 161 590 161 590 171.5 598.5 c 128,-1,27
 182 607 182 607 196 609 c 0,28,29
 212 611 212 611 220.5 601.5 c 128,-1,30
 229 592 229 592 234.5 581 c 128,-1,31
 240 570 240 570 244.5 562 c 128,-1,32
 249 554 249 554 257 560 c 0,33,34
 264 565 264 565 260.5 574 c 128,-1,35
 257 583 257 583 250.5 593.5 c 128,-1,36
 244 604 244 604 237.5 614.5 c 128,-1,37
 231 625 231 625 231 632 c 0,0,1
256 877 m 0,38,39
 261 845 261 845 264.5 835 c 128,-1,40
 268 825 268 825 278 825 c 2,41,-1
 298 825 l 2,42,43
 314 825 314 825 320 838 c 128,-1,44
 326 851 326 851 329.5 864 c 128,-1,45
 333 877 333 877 338.5 884 c 128,-1,46
 344 891 344 891 359 879 c 0,47,48
 363 876 363 876 363 853 c 0,49,50
 363 837 363 837 361.5 816.5 c 128,-1,51
 360 796 360 796 358 778 c 128,-1,52
 356 760 356 760 354 747 c 128,-1,53
 352 734 352 734 351 733 c 0,54,55
 336 725 336 725 331 731.5 c 128,-1,56
 326 738 326 738 322 749.5 c 128,-1,57
 318 761 318 761 310.5 771.5 c 128,-1,58
 303 782 303 782 284 782 c 0,59,60
 261 782 261 782 253 773 c 128,-1,61
 245 764 245 764 242.5 754.5 c 128,-1,62
 240 745 240 745 236.5 737.5 c 128,-1,63
 233 730 233 730 219 733 c 0,64,65
 212 734 212 734 210 752.5 c 128,-1,66
 208 771 208 771 208.5 794.5 c 128,-1,67
 209 818 209 818 213 840.5 c 128,-1,68
 217 863 217 863 222 871 c 0,69,70
 230 885 230 885 243.5 887 c 128,-1,71
 257 889 257 889 256 877 c 0,38,39
EndSplineSet
EndChar

StartChar: Icircumflex
Encoding: 206 206 100
Width: 434
Flags: W
LayerCount: 2
Fore
SplineSet
9 579 m 0,0,1
 5 572 5 572 7 567.5 c 128,-1,2
 9 563 9 563 14 563 c 0,3,4
 16 563 16 563 29 573 c 128,-1,5
 42 583 42 583 60.5 598 c 128,-1,6
 79 613 79 613 100.5 630 c 128,-1,7
 122 647 122 647 142 660.5 c 128,-1,8
 162 674 162 674 177.5 681 c 128,-1,9
 193 688 193 688 199 684 c 0,10,11
 207 678 207 678 208.5 668.5 c 128,-1,12
 210 659 210 659 211 650 c 128,-1,13
 212 641 212 641 215 634 c 128,-1,14
 218 627 218 627 230 625 c 0,15,16
 240 623 240 623 253 634 c 128,-1,17
 266 645 266 645 279.5 659 c 128,-1,18
 293 673 293 673 305.5 685 c 128,-1,19
 318 697 318 697 327 697 c 0,20,21
 339 697 339 697 345 689.5 c 128,-1,22
 351 682 351 682 356 672 c 128,-1,23
 361 662 361 662 367 652 c 128,-1,24
 373 642 373 642 385 637 c 0,25,26
 396 632 396 632 408 637.5 c 128,-1,27
 420 643 420 643 420 658 c 0,28,29
 420 674 420 674 411.5 694 c 128,-1,30
 403 714 403 714 390.5 731.5 c 128,-1,31
 378 749 378 749 362.5 760.5 c 128,-1,32
 347 772 347 772 334 771 c 0,33,34
 326 771 326 771 315 761 c 128,-1,35
 304 751 304 751 292 739 c 128,-1,36
 280 727 280 727 268.5 717.5 c 128,-1,37
 257 708 257 708 250 710 c 0,38,39
 247 711 247 711 242.5 717.5 c 128,-1,40
 238 724 238 724 232.5 732 c 128,-1,41
 227 740 227 740 221 746.5 c 128,-1,42
 215 753 215 753 209 753 c 0,43,44
 182 753 182 753 153 735 c 128,-1,45
 124 717 124 717 99 692 c 128,-1,46
 74 667 74 667 53 640.5 c 128,-1,47
 32 614 32 614 21 597 c 128,-1,48
 10 580 10 580 9 579 c 0,0,1
306 835 m 1,49,50
 317 829 317 829 319 819.5 c 128,-1,51
 321 810 321 810 322 806 c 0,52,53
 323 801 323 801 316.5 795.5 c 128,-1,54
 310 790 310 790 302 788 c 128,-1,55
 294 786 294 786 286 788.5 c 128,-1,56
 278 791 278 791 276 802 c 0,57,58
 272 822 272 822 276 828 c 128,-1,59
 280 834 280 834 306 835 c 1,49,50
EndSplineSet
EndChar

StartChar: Idieresis
Encoding: 207 207 101
Width: 400
Flags: W
LayerCount: 2
Fore
SplineSet
269 746 m 0,0,1
 273 713 273 713 278 691.5 c 128,-1,2
 283 670 283 670 288.5 658 c 128,-1,3
 294 646 294 646 300 641.5 c 128,-1,4
 306 637 306 637 312 637 c 0,5,6
 321 637 321 637 323 646.5 c 128,-1,7
 325 656 325 656 323 670.5 c 128,-1,8
 321 685 321 685 318 701.5 c 128,-1,9
 315 718 315 718 315.5 732.5 c 128,-1,10
 316 747 316 747 321.5 756.5 c 128,-1,11
 327 766 327 766 343 766 c 0,12,13
 377 765 377 765 386 768.5 c 128,-1,14
 395 772 395 772 385 777.5 c 128,-1,15
 375 783 375 783 350 788.5 c 128,-1,16
 325 794 325 794 291 796.5 c 128,-1,17
 257 799 257 799 217 796.5 c 128,-1,18
 177 794 177 794 138 784 c 0,19,20
 134 784 134 784 126.5 782.5 c 128,-1,21
 119 781 119 781 111.5 778 c 128,-1,22
 104 775 104 775 98 770 c 128,-1,23
 92 765 92 765 92 758 c 1,24,25
 97 757 97 757 100 756.5 c 128,-1,26
 103 756 103 756 105 756 c 0,27,28
 116 756 116 756 125.5 753.5 c 128,-1,29
 135 751 135 751 137 738 c 0,30,31
 142 694 142 694 148.5 671.5 c 128,-1,32
 155 649 155 649 162 641 c 128,-1,33
 169 633 169 633 174.5 636 c 128,-1,34
 180 639 180 639 183 647 c 0,35,36
 186 654 186 654 184 669 c 128,-1,37
 182 684 182 684 181 699.5 c 128,-1,38
 180 715 180 715 183.5 728 c 128,-1,39
 187 741 187 741 202 745 c 0,40,41
 210 748 210 748 220.5 750.5 c 128,-1,42
 231 753 231 753 241 753 c 0,43,44
 265 753 265 753 269 746 c 0,0,1
210 871 m 0,45,46
 184 870 184 870 177.5 863 c 128,-1,47
 171 856 171 856 180 838 c 0,48,49
 184 829 184 829 192 826.5 c 128,-1,50
 200 824 200 824 207.5 826 c 128,-1,51
 215 828 215 828 220.5 832.5 c 128,-1,52
 226 837 226 837 226 842 c 0,53,54
 226 853 226 853 224 862 c 128,-1,55
 222 871 222 871 210 871 c 0,45,46
EndSplineSet
EndChar

StartChar: .0208
Encoding: 208 208 102
Width: 2
Flags: W
LayerCount: 2
Fore
SplineSet
111 839 m 1,0,1
 129 840 129 840 142.5 841.5 c 128,-1,2
 156 843 156 843 165.5 849 c 128,-1,3
 175 855 175 855 181 866.5 c 128,-1,4
 187 878 187 878 189 899 c 0,5,6
 190 912 190 912 182.5 929 c 128,-1,7
 175 946 175 946 161 955.5 c 128,-1,8
 147 965 147 965 127 961.5 c 128,-1,9
 107 958 107 958 84 931 c 1,10,11
 81 918 81 918 79 907.5 c 128,-1,12
 77 897 77 897 74.5 871.5 c 128,-1,13
 72 846 72 846 68 796.5 c 128,-1,14
 64 747 64 747 57 657 c 1,15,-1
 95 656 l 1,16,-1
 111 839 l 1,0,1
112 868 m 1,17,18
 111 878 111 878 113 893 c 128,-1,19
 115 908 115 908 118 916 c 0,20,21
 126 932 126 932 136.5 930 c 128,-1,22
 147 928 147 928 152 915 c 0,23,24
 156 907 156 907 155 898 c 128,-1,25
 154 889 154 889 154 883 c 0,26,27
 154 875 154 875 146 872.5 c 128,-1,28
 138 870 138 870 112 868 c 1,17,18
EndSplineSet
EndChar

StartChar: .0209
Encoding: 209 209 103
Width: 12
Flags: W
LayerCount: 2
Fore
SplineSet
-257 900 m 0,0,1
 -267 900 -267 900 -274.5 883 c 128,-1,2
 -282 866 -282 866 -287.5 843 c 128,-1,3
 -293 820 -293 820 -295.5 795.5 c 128,-1,4
 -298 771 -298 771 -298 755 c 0,5,6
 -298 740 -298 740 -297.5 716.5 c 128,-1,7
 -297 693 -297 693 -292.5 670 c 128,-1,8
 -288 647 -288 647 -279 629 c 128,-1,9
 -270 611 -270 611 -252 608 c 0,10,11
 -240 605 -240 605 -223.5 611 c 128,-1,12
 -207 617 -207 617 -191.5 638 c 128,-1,13
 -176 659 -176 659 -165.5 699 c 128,-1,14
 -155 739 -155 739 -155 805 c 0,15,16
 -155 815 -155 815 -154 825.5 c 128,-1,17
 -153 836 -153 836 -153 844 c 0,18,19
 -151 853 -151 853 -156.5 856.5 c 128,-1,20
 -162 860 -162 860 -169 856.5 c 128,-1,21
 -176 853 -176 853 -182 842.5 c 128,-1,22
 -188 832 -188 832 -188 813 c 0,23,24
 -189 797 -189 797 -189.5 778.5 c 128,-1,25
 -190 760 -190 760 -192 744 c 128,-1,26
 -194 728 -194 728 -199 716.5 c 128,-1,27
 -204 705 -204 705 -214 703 c 1,28,29
 -220 710 -220 710 -219 731.5 c 128,-1,30
 -218 753 -218 753 -215 777.5 c 128,-1,31
 -212 802 -212 802 -208 825 c 128,-1,32
 -204 848 -204 848 -204 857 c 1,33,34
 -204 854 -204 854 -201.5 861.5 c 128,-1,35
 -199 869 -199 869 -199 877 c 0,36,37
 -199 886 -199 886 -203.5 890.5 c 128,-1,38
 -208 895 -208 895 -221 885 c 1,39,40
 -235 856 -235 856 -238.5 825 c 128,-1,41
 -242 794 -242 794 -242 762 c 2,42,-1
 -242 740 l 1,43,-1
 -242 729 l 2,44,45
 -242 719 -242 719 -243 717 c 0,46,47
 -253 703 -253 703 -259.5 701 c 128,-1,48
 -266 699 -266 699 -270 704 c 128,-1,49
 -274 709 -274 709 -275.5 718 c 128,-1,50
 -277 727 -277 727 -277 735 c 0,51,52
 -277 757 -277 757 -272 786 c 128,-1,53
 -267 815 -267 815 -262 840.5 c 128,-1,54
 -257 866 -257 866 -254.5 883.5 c 128,-1,55
 -252 901 -252 901 -257 900 c 0,0,1
EndSplineSet
EndChar

StartChar: Odieresis
Encoding: 214 214 104
Width: 401
Flags: W
LayerCount: 2
Fore
SplineSet
266 577 m 0,0,1
 265 585 265 585 269 602 c 128,-1,2
 273 619 273 619 279.5 638.5 c 128,-1,3
 286 658 286 658 292 678 c 128,-1,4
 298 698 298 698 301 714 c 128,-1,5
 304 730 304 730 301.5 738.5 c 128,-1,6
 299 747 299 747 289 744 c 0,7,8
 247 730 247 730 220.5 731 c 128,-1,9
 194 732 194 732 167 748 c 0,10,11
 160 755 160 755 159 774.5 c 128,-1,12
 158 794 158 794 162.5 815 c 128,-1,13
 167 836 167 836 176 852 c 128,-1,14
 185 868 185 868 199 868 c 0,15,16
 209 868 209 868 207 854 c 128,-1,17
 205 840 205 840 202 822 c 128,-1,18
 199 804 199 804 199.5 788.5 c 128,-1,19
 200 773 200 773 216 770 c 1,20,21
 233 760 233 760 245 766 c 128,-1,22
 257 772 257 772 266 786.5 c 128,-1,23
 275 801 275 801 282 820 c 128,-1,24
 289 839 289 839 295 853.5 c 128,-1,25
 301 868 301 868 307 875 c 128,-1,26
 313 882 313 882 321 873 c 0,27,28
 325 869 325 869 323.5 858.5 c 128,-1,29
 322 848 322 848 319 835 c 128,-1,30
 316 822 316 822 313 808.5 c 128,-1,31
 310 795 310 795 311.5 785 c 128,-1,32
 313 775 313 775 320 770.5 c 128,-1,33
 327 766 327 766 344 771 c 0,34,35
 354 774 354 774 354.5 763 c 128,-1,36
 355 752 355 752 350 733.5 c 128,-1,37
 345 715 345 715 337 691 c 128,-1,38
 329 667 329 667 321 644 c 128,-1,39
 313 621 313 621 307 601.5 c 128,-1,40
 301 582 301 582 301 572 c 0,41,42
 301 565 301 565 297 562.5 c 128,-1,43
 293 560 293 560 287.5 561.5 c 128,-1,44
 282 563 282 563 276 567 c 128,-1,45
 270 571 270 571 266 577 c 0,0,1
EndSplineSet
EndChar

StartChar: .0224
Encoding: 224 224 105
Width: 656
Flags: W
LayerCount: 2
Fore
SplineSet
557 675 m 1,0,1
 516 660 516 660 469.5 626.5 c 128,-1,2
 423 593 423 593 375 549 c 128,-1,3
 327 505 327 505 280 455 c 128,-1,4
 233 405 233 405 190.5 355.5 c 128,-1,5
 148 306 148 306 112.5 262 c 128,-1,6
 77 218 77 218 52 187 c 1,7,-1
 106 801 l 1,8,-1
 178 754 l 1,9,-1
 179 834 l 1,10,-1
 88 888 l 1,11,12
 71 711 71 711 59 574.5 c 128,-1,13
 47 438 47 438 38 332.5 c 128,-1,14
 29 227 29 227 23 147 c 128,-1,15
 17 67 17 67 13 4 c 1,16,-1
 34 2 l 2,17,18
 28 1 28 1 38.5 22 c 128,-1,19
 49 43 49 43 71.5 79.5 c 128,-1,20
 94 116 94 116 127.5 163 c 128,-1,21
 161 210 161 210 201 261.5 c 128,-1,22
 241 313 241 313 286 364.5 c 128,-1,23
 331 416 331 416 377 460.5 c 128,-1,24
 423 505 423 505 468 539.5 c 128,-1,25
 513 574 513 574 553 590 c 1,26,27
 571 582 571 582 594.5 567 c 128,-1,28
 618 552 618 552 637 545 c 1,29,-1
 642 629 l 1,30,31
 631 639 631 639 613 648.5 c 128,-1,32
 595 658 595 658 557 675 c 1,0,1
EndSplineSet
EndChar

StartChar: aacute
Encoding: 225 225 106
Width: 1
Flags: W
LayerCount: 2
Fore
SplineSet
-399 201 m 1,0,1
 -404 171 -404 171 -398 157.5 c 128,-1,2
 -392 144 -392 144 -383 144.5 c 128,-1,3
 -374 145 -374 145 -365.5 159 c 128,-1,4
 -357 173 -357 173 -357 197 c 0,5,6
 -357 229 -357 229 -351.5 254 c 128,-1,7
 -346 279 -346 279 -335.5 298.5 c 128,-1,8
 -325 318 -325 318 -309 334 c 128,-1,9
 -293 350 -293 350 -272 365 c 0,10,11
 -259 375 -259 375 -246 375 c 0,12,13
 -228 375 -228 375 -218 359 c 128,-1,14
 -208 343 -208 343 -222 315 c 0,15,16
 -231 295 -231 295 -241.5 278 c 128,-1,17
 -252 261 -252 261 -261.5 243.5 c 128,-1,18
 -271 226 -271 226 -277 207 c 128,-1,19
 -283 188 -283 188 -283 166 c 0,20,21
 -283 159 -283 159 -281 148.5 c 128,-1,22
 -279 138 -279 138 -274.5 128.5 c 128,-1,23
 -270 119 -270 119 -262 112 c 128,-1,24
 -254 105 -254 105 -242 105 c 0,25,26
 -222 102 -222 102 -205.5 108 c 128,-1,27
 -189 114 -189 114 -177.5 126 c 128,-1,28
 -166 138 -166 138 -159.5 155 c 128,-1,29
 -153 172 -153 172 -153 191 c 0,30,31
 -153 207 -153 207 -160 216.5 c 128,-1,32
 -167 226 -167 226 -176 230.5 c 128,-1,33
 -185 235 -185 235 -194 236.5 c 128,-1,34
 -203 238 -203 238 -207 239 c 0,35,36
 -218 241 -218 241 -214.5 252.5 c 128,-1,37
 -211 264 -211 264 -203 281.5 c 128,-1,38
 -195 299 -195 299 -187.5 320.5 c 128,-1,39
 -180 342 -180 342 -183 363 c 0,40,41
 -187 388 -187 388 -193.5 401 c 128,-1,42
 -200 414 -200 414 -227 415 c 0,43,44
 -263 416 -263 416 -294 397.5 c 128,-1,45
 -325 379 -325 379 -348.5 348 c 128,-1,46
 -372 317 -372 317 -385.5 278.5 c 128,-1,47
 -399 240 -399 240 -399 201 c 1,0,1
-198 187 m 1,48,49
 -191 175 -191 175 -194.5 165 c 128,-1,50
 -198 155 -198 155 -206 151.5 c 128,-1,51
 -214 148 -214 148 -224.5 151.5 c 128,-1,52
 -235 155 -235 155 -242 169 c 0,53,54
 -248 180 -248 180 -245 187 c 128,-1,55
 -242 194 -242 194 -234.5 196 c 128,-1,56
 -227 198 -227 198 -217 196 c 128,-1,57
 -207 194 -207 194 -198 187 c 1,48,49
EndSplineSet
EndChar

StartChar: acircumflex
Encoding: 226 226 107
Width: 520
Flags: W
LayerCount: 2
Fore
SplineSet
52 669 m 1,0,1
 52 651 52 651 61 646 c 128,-1,2
 70 641 70 641 82 642 c 128,-1,3
 94 643 94 643 105 647 c 128,-1,4
 116 651 116 651 121 652 c 0,5,6
 156 661 156 661 195 672 c 128,-1,7
 234 683 234 683 278.5 691.5 c 128,-1,8
 323 700 323 700 373.5 703.5 c 128,-1,9
 424 707 424 707 482 701 c 0,10,11
 488 700 488 700 489.5 703.5 c 128,-1,12
 491 707 491 707 490 712 c 128,-1,13
 489 717 489 717 486.5 721.5 c 128,-1,14
 484 726 484 726 482 726 c 0,15,16
 479 727 479 727 474 727 c 2,17,-1
 466 727 l 1,18,-1
 451 727 l 1,19,-1
 428 727 l 2,20,21
 405 727 405 727 397 726 c 128,-1,22
 389 725 389 725 383 725 c 256,23,24
 377 725 377 725 376 726 c 0,25,26
 365 728 365 728 364 740.5 c 128,-1,27
 363 753 363 753 366.5 768.5 c 128,-1,28
 370 784 370 784 375 797.5 c 128,-1,29
 380 811 380 811 382 816 c 1,30,31
 406 824 406 824 422 824 c 0,32,33
 437 824 437 824 450.5 822 c 128,-1,34
 464 820 464 820 475.5 818.5 c 128,-1,35
 487 817 487 817 494.5 816 c 128,-1,36
 502 815 502 815 504 817 c 0,37,38
 512 822 512 822 511 830.5 c 128,-1,39
 510 839 510 839 502 841 c 0,40,41
 474 849 474 849 429 849.5 c 128,-1,42
 384 850 384 850 332 845.5 c 128,-1,43
 280 841 280 841 227 833.5 c 128,-1,44
 174 826 174 826 130 818 c 128,-1,45
 86 810 86 810 56.5 802.5 c 128,-1,46
 27 795 27 795 22 791 c 0,47,48
 8 781 8 781 10 769.5 c 128,-1,49
 12 758 12 758 30 761 c 0,50,51
 34 762 34 762 52 767.5 c 128,-1,52
 70 773 70 773 92 778 c 128,-1,53
 114 783 114 783 136.5 785 c 128,-1,54
 159 787 159 787 172 781 c 0,55,56
 178 778 178 778 181 772 c 128,-1,57
 184 766 184 766 184.5 758.5 c 128,-1,58
 185 751 185 751 184.5 743.5 c 128,-1,59
 184 736 184 736 182 731 c 0,60,61
 176 718 176 718 157 709.5 c 128,-1,62
 138 701 138 701 117 694.5 c 128,-1,63
 96 688 96 688 77 682.5 c 128,-1,64
 58 677 58 677 52 669 c 1,0,1
290 795 m 0,65,66
 301 796 301 796 307.5 791.5 c 128,-1,67
 314 787 314 787 316.5 779 c 128,-1,68
 319 771 319 771 318 761.5 c 128,-1,69
 317 752 317 752 314 743 c 1,70,71
 306 737 306 737 294.5 733 c 128,-1,72
 283 729 283 729 271 727.5 c 128,-1,73
 259 726 259 726 249 728 c 128,-1,74
 239 730 239 730 235 736 c 0,75,76
 232 739 232 739 231.5 747 c 128,-1,77
 231 755 231 755 233 763.5 c 128,-1,78
 235 772 235 772 240 780 c 128,-1,79
 245 788 245 788 254 791 c 0,80,81
 265 795 265 795 270.5 796 c 128,-1,82
 276 797 276 797 290 795 c 0,65,66
EndSplineSet
EndChar

StartChar: atilde
Encoding: 227 227 108
Width: 399
Flags: W
LayerCount: 2
Fore
SplineSet
199 659 m 0,0,1
 196 664 196 664 194 687.5 c 128,-1,2
 192 711 192 711 189.5 737.5 c 128,-1,3
 187 764 187 764 183.5 786 c 128,-1,4
 180 808 180 808 173 811 c 2,5,-1
 147 819 l 2,6,7
 142 821 142 821 143.5 831.5 c 128,-1,8
 145 842 145 842 145 847 c 1,9,10
 188 847 188 847 213.5 849 c 128,-1,11
 239 851 239 851 260.5 853 c 128,-1,12
 282 855 282 855 306 857 c 128,-1,13
 330 859 330 859 371 859 c 0,14,15
 374 858 374 858 370 843.5 c 128,-1,16
 366 829 366 829 360.5 816.5 c 128,-1,17
 355 804 355 804 350.5 801 c 128,-1,18
 346 798 346 798 348 821 c 1,19,20
 319 819 319 819 285 814.5 c 128,-1,21
 251 810 251 810 228 808 c 1,22,-1
 235 674 l 2,23,24
 233 666 233 666 224 661 c 128,-1,25
 215 656 215 656 207 656 c 0,26,27
 202 656 202 656 199 659 c 0,0,1
EndSplineSet
EndChar

StartChar: .0231
Encoding: 231 231 109
Width: 7
Flags: W
LayerCount: 2
Fore
SplineSet
-7 383 m 0,0,1
 -8 384 -8 384 -13 391.5 c 128,-1,2
 -18 399 -18 399 -32.5 408 c 128,-1,3
 -47 417 -47 417 -70 417 c 0,4,5
 -90 417 -90 417 -116.5 408 c 128,-1,6
 -143 399 -143 399 -178 374 c 1,7,-1
 -178 371 l 2,8,9
 -178 354 -178 354 -165 354 c 0,10,11
 -158 354 -158 354 -147 358.5 c 128,-1,12
 -136 363 -136 363 -124 368 c 128,-1,13
 -112 373 -112 373 -100 377.5 c 128,-1,14
 -88 382 -88 382 -77 382 c 0,15,16
 -60 382 -60 382 -52 366 c 0,17,18
 -50 360 -50 360 -50 358 c 0,19,20
 -50 343 -50 343 -70.5 330.5 c 128,-1,21
 -91 318 -91 318 -115.5 307.5 c 128,-1,22
 -140 297 -140 297 -160.5 289.5 c 128,-1,23
 -181 282 -181 282 -181 278 c 0,24,25
 -181 276 -181 276 -176 275 c 0,26,27
 -156 258 -156 258 -129.5 243.5 c 128,-1,28
 -103 229 -103 229 -79 214 c 128,-1,29
 -55 199 -55 199 -38.5 183 c 128,-1,30
 -22 167 -22 167 -22 146 c 0,31,32
 -22 137 -22 137 -25 130 c 0,33,34
 -30 115 -30 115 -43 105.5 c 128,-1,35
 -56 96 -56 96 -74.5 90.5 c 128,-1,36
 -93 85 -93 85 -115.5 83 c 128,-1,37
 -138 81 -138 81 -161 81 c 0,38,39
 -199 81 -199 81 -234 84.5 c 128,-1,40
 -269 88 -269 88 -286 88 c 0,41,42
 -297 88 -297 88 -297 85 c 0,43,44
 -293 79 -293 79 -277.5 72 c 128,-1,45
 -262 65 -262 65 -240.5 60 c 128,-1,46
 -219 55 -219 55 -192 51.5 c 128,-1,47
 -165 48 -165 48 -137 48 c 0,48,49
 -107 48 -107 48 -78 52.5 c 128,-1,50
 -49 57 -49 57 -25.5 68 c 128,-1,51
 -2 79 -2 79 13 97 c 128,-1,52
 28 115 28 115 31 141 c 0,53,54
 31 144 31 144 31.5 147 c 128,-1,55
 32 150 32 150 32 153 c 0,56,57
 32 199 32 199 -3 226 c 128,-1,58
 -38 253 -38 253 -98 276 c 1,59,60
 -78 277 -78 277 -60 285 c 128,-1,61
 -42 293 -42 293 -28.5 305 c 128,-1,62
 -15 317 -15 317 -7.5 331.5 c 128,-1,63
 0 346 0 346 0 360 c 0,64,65
 0 371 0 371 -7 383 c 0,0,1
EndSplineSet
EndChar

StartChar: .0234
Encoding: 234 234 110
Width: 1
Flags: W
LayerCount: 2
Fore
SplineSet
-207 275 m 0,0,1
 -209 281 -209 281 -206.5 293.5 c 128,-1,2
 -204 306 -204 306 -199 319 c 128,-1,3
 -194 332 -194 332 -188.5 344 c 128,-1,4
 -183 356 -183 356 -180 361 c 0,5,6
 -180 362 -180 362 -172 371 c 128,-1,7
 -164 380 -164 380 -153 388 c 128,-1,8
 -142 396 -142 396 -131 399 c 128,-1,9
 -120 402 -120 402 -114 392 c 0,10,11
 -110 380 -110 380 -115.5 363 c 128,-1,12
 -121 346 -121 346 -128.5 328 c 128,-1,13
 -136 310 -136 310 -142 294 c 128,-1,14
 -148 278 -148 278 -144 268 c 0,15,16
 -144 258 -144 258 -140.5 241.5 c 128,-1,17
 -137 225 -137 225 -137 211 c 256,18,19
 -137 197 -137 197 -143.5 189 c 128,-1,20
 -150 181 -150 181 -170 187 c 1,21,22
 -181 185 -181 185 -189 194.5 c 128,-1,23
 -197 204 -197 204 -201.5 218.5 c 128,-1,24
 -206 233 -206 233 -207.5 248.5 c 128,-1,25
 -209 264 -209 264 -207 275 c 0,0,1
-114 281 m 0,26,27
 -112 296 -112 296 -103 310 c 128,-1,28
 -94 324 -94 324 -84 334 c 0,29,30
 -83 335 -83 335 -74 343.5 c 128,-1,31
 -65 352 -65 352 -54.5 359 c 128,-1,32
 -44 366 -44 366 -34 368 c 128,-1,33
 -24 370 -24 370 -21 359 c 0,34,35
 -20 358 -20 358 -20 347 c 2,36,-1
 -20 339 l 2,37,38
 -20 328 -20 328 -26.5 320.5 c 128,-1,39
 -33 313 -33 313 -47 296 c 0,40,41
 -53 290 -53 290 -53 278 c 0,42,43
 -53 264 -53 264 -50.5 247.5 c 128,-1,44
 -48 231 -48 231 -50 216 c 128,-1,45
 -52 201 -52 201 -62 191.5 c 128,-1,46
 -72 182 -72 182 -97 183 c 0,47,48
 -109 184 -109 184 -114.5 196 c 128,-1,49
 -120 208 -120 208 -120.5 223.5 c 128,-1,50
 -121 239 -121 239 -119 255 c 128,-1,51
 -117 271 -117 271 -114 281 c 0,26,27
EndSplineSet
EndChar

StartChar: edieresis
Encoding: 235 235 111
Width: -1
Flags: W
LayerCount: 2
Fore
SplineSet
-256 362 m 0,0,1
 -248 361 -248 361 -244 359.5 c 128,-1,2
 -240 358 -240 358 -237.5 354.5 c 128,-1,3
 -235 351 -235 351 -233.5 344.5 c 128,-1,4
 -232 338 -232 338 -229 327 c 0,5,6
 -227 310 -227 310 -225.5 302 c 128,-1,7
 -224 294 -224 294 -224 286 c 2,8,-1
 -224 273 l 1,9,-1
 -224 260 l 1,10,-1
 -224 251 l 2,11,12
 -224 244 -224 244 -223 242 c 0,13,14
 -221 220 -221 220 -223.5 208.5 c 128,-1,15
 -226 197 -226 197 -230.5 194 c 128,-1,16
 -235 191 -235 191 -240.5 195.5 c 128,-1,17
 -246 200 -246 200 -251 211 c 0,18,19
 -258 226 -258 226 -260 236.5 c 128,-1,20
 -262 247 -262 247 -263 256 c 128,-1,21
 -264 265 -264 265 -265.5 273 c 128,-1,22
 -267 281 -267 281 -273 291 c 0,23,24
 -276 297 -276 297 -281 295 c 128,-1,25
 -286 293 -286 293 -291.5 287.5 c 128,-1,26
 -297 282 -297 282 -302.5 274.5 c 128,-1,27
 -308 267 -308 267 -313 261 c 0,28,29
 -320 252 -320 252 -334 238 c 128,-1,30
 -348 224 -348 224 -362.5 213 c 128,-1,31
 -377 202 -377 202 -388 197.5 c 128,-1,32
 -399 193 -399 193 -400 202 c 0,33,34
 -400 223 -400 223 -385 250.5 c 128,-1,35
 -370 278 -370 278 -348 303 c 128,-1,36
 -326 328 -326 328 -301 345 c 128,-1,37
 -276 362 -276 362 -256 362 c 0,0,1
-198 277 m 0,38,39
 -198 328 -198 328 -180.5 354.5 c 128,-1,40
 -163 381 -163 381 -112 381 c 0,41,42
 -88 381 -88 381 -67.5 369.5 c 128,-1,43
 -47 358 -47 358 -47 333 c 0,44,45
 -47 313 -47 313 -53.5 292 c 128,-1,46
 -60 271 -60 271 -72 254 c 128,-1,47
 -84 237 -84 237 -101.5 226.5 c 128,-1,48
 -119 216 -119 216 -141 216 c 0,49,50
 -155 216 -155 216 -167.5 219 c 128,-1,51
 -180 222 -180 222 -187 236 c 1,52,53
 -195 243 -195 243 -196 255 c 128,-1,54
 -197 267 -197 267 -198 277 c 0,38,39
-145 329 m 0,55,56
 -153 319 -153 319 -155 307 c 128,-1,57
 -157 295 -157 295 -155 284.5 c 128,-1,58
 -153 274 -153 274 -147.5 268 c 128,-1,59
 -142 262 -142 262 -136 264 c 0,60,61
 -124 264 -124 264 -117 271 c 128,-1,62
 -110 278 -110 278 -106.5 288 c 128,-1,63
 -103 298 -103 298 -101.5 308.5 c 128,-1,64
 -100 319 -100 319 -100 327 c 0,65,66
 -100 331 -100 331 -105 333.5 c 128,-1,67
 -110 336 -110 336 -117.5 336.5 c 128,-1,68
 -125 337 -125 337 -132.5 335.5 c 128,-1,69
 -140 334 -140 334 -145 329 c 0,55,56
EndSplineSet
EndChar

StartChar: igrave
Encoding: 236 236 112
Width: 408
Flags: W
LayerCount: 2
Fore
SplineSet
31 657 m 1,0,1
 28 644 28 644 35 644 c 0,2,3
 37 644 37 644 48.5 653 c 128,-1,4
 60 662 60 662 76.5 675.5 c 128,-1,5
 93 689 93 689 112.5 704 c 128,-1,6
 132 719 132 719 149.5 731 c 128,-1,7
 167 743 167 743 181 749.5 c 128,-1,8
 195 756 195 756 201 752 c 0,9,10
 207 746 207 746 208.5 737.5 c 128,-1,11
 210 729 210 729 211.5 720.5 c 128,-1,12
 213 712 213 712 216 706 c 128,-1,13
 219 700 219 700 229 699 c 0,14,15
 238 697 238 697 250 707 c 128,-1,16
 262 717 262 717 274 729.5 c 128,-1,17
 286 742 286 742 297 752.5 c 128,-1,18
 308 763 308 763 316 763 c 0,19,20
 327 763 327 763 332.5 756.5 c 128,-1,21
 338 750 338 750 342.5 741 c 128,-1,22
 347 732 347 732 352 723 c 128,-1,23
 357 714 357 714 368 710 c 0,24,25
 379 705 379 705 389.5 710 c 128,-1,26
 400 715 400 715 400 728 c 0,27,28
 400 743 400 743 392.5 761 c 128,-1,29
 385 779 385 779 373.5 794.5 c 128,-1,30
 362 810 362 810 348.5 820 c 128,-1,31
 335 830 335 830 323 829 c 0,32,33
 317 829 317 829 306.5 820 c 128,-1,34
 296 811 296 811 284.5 800.5 c 128,-1,35
 273 790 273 790 263 781.5 c 128,-1,36
 253 773 253 773 247 775 c 0,37,38
 245 776 245 776 241 782 c 128,-1,39
 237 788 237 788 231.5 795 c 128,-1,40
 226 802 226 802 220 808 c 128,-1,41
 214 814 214 814 210 814 c 0,42,43
 179 814 179 814 147.5 789.5 c 128,-1,44
 116 765 116 765 90 735.5 c 128,-1,45
 64 706 64 706 47.5 681.5 c 128,-1,46
 31 657 31 657 31 657 c 1,0,1
EndSplineSet
EndChar

StartChar: iacute
Encoding: 237 237 113
Width: 399
Flags: W
LayerCount: 2
Fore
SplineSet
268 852 m 0,0,1
 269 864 269 864 255.5 862 c 128,-1,2
 242 860 242 860 234 846 c 0,3,4
 229 838 229 838 225 815.5 c 128,-1,5
 221 793 221 793 220.5 769.5 c 128,-1,6
 220 746 220 746 222 727.5 c 128,-1,7
 224 709 224 709 231 708 c 0,8,9
 245 705 245 705 248.5 712.5 c 128,-1,10
 252 720 252 720 254.5 729.5 c 128,-1,11
 257 739 257 739 265 748 c 128,-1,12
 273 757 273 757 296 757 c 0,13,14
 315 757 315 757 322.5 746.5 c 128,-1,15
 330 736 330 736 334 724.5 c 128,-1,16
 338 713 338 713 343 706.5 c 128,-1,17
 348 700 348 700 363 708 c 0,18,19
 364 709 364 709 366 722 c 128,-1,20
 368 735 368 735 370 753 c 128,-1,21
 372 771 372 771 373.5 791.5 c 128,-1,22
 375 812 375 812 375 828 c 0,23,24
 375 851 375 851 371 854 c 0,25,26
 356 866 356 866 350.5 859 c 128,-1,27
 345 852 345 852 341.5 839 c 128,-1,28
 338 826 338 826 332 813 c 128,-1,29
 326 800 326 800 310 800 c 2,30,-1
 290 800 l 2,31,32
 280 800 280 800 276.5 810 c 128,-1,33
 273 820 273 820 268 852 c 0,0,1
EndSplineSet
EndChar

StartChar: .0238
Encoding: 238 238 114
Width: 101
Flags: W
LayerCount: 2
Fore
SplineSet
67 599 m 2,0,-1
 14 402 l 2,1,2
 12 397 12 397 17 395 c 128,-1,3
 22 393 22 393 24 390 c 0,4,5
 69 413 69 413 121 417.5 c 128,-1,6
 173 422 173 422 217 419 c 1,7,8
 217 422 217 422 217 426 c 256,9,10
 217 430 217 430 218 432 c 1,11,12
 183 434 183 434 156 433.5 c 128,-1,13
 129 433 129 433 107 429.5 c 128,-1,14
 85 426 85 426 67 419.5 c 128,-1,15
 49 413 49 413 31 404 c 1,16,-1
 84 599 l 2,17,18
 82 603 82 603 75 602.5 c 128,-1,19
 68 602 68 602 67 599 c 2,0,-1
EndSplineSet
EndChar

StartChar: idieresis
Encoding: 239 239 115
Width: 403
Flags: W
LayerCount: 2
Fore
SplineSet
124 795 m 0,0,1
 125 790 125 790 127 778.5 c 128,-1,2
 129 767 129 767 130.5 753.5 c 128,-1,3
 132 740 132 740 133 726.5 c 128,-1,4
 134 713 134 713 134 705 c 1,5,6
 138 700 138 700 147.5 697.5 c 128,-1,7
 157 695 157 695 167 695.5 c 128,-1,8
 177 696 177 696 184 700.5 c 128,-1,9
 191 705 191 705 190 715 c 0,10,11
 190 738 190 738 186 760 c 128,-1,12
 182 782 182 782 190 805 c 0,13,14
 195 809 195 809 203 811 c 128,-1,15
 211 813 211 813 218.5 813.5 c 128,-1,16
 226 814 226 814 232 813.5 c 128,-1,17
 238 813 238 813 239 813 c 0,18,19
 246 801 246 801 245 787 c 128,-1,20
 244 773 244 773 241 759.5 c 128,-1,21
 238 746 238 746 237 733.5 c 128,-1,22
 236 721 236 721 244 712 c 1,23,24
 256 712 256 712 270 709.5 c 128,-1,25
 284 707 284 707 288 718 c 0,26,27
 294 774 294 774 296 796.5 c 128,-1,28
 298 819 298 819 305.5 825.5 c 128,-1,29
 313 832 313 832 330.5 832.5 c 128,-1,30
 348 833 348 833 384 845 c 0,31,32
 386 847 386 847 386 849 c 0,33,34
 386 854 386 854 364 855 c 0,35,36
 349 855 349 855 316.5 853 c 128,-1,37
 284 851 284 851 244.5 847 c 128,-1,38
 205 843 205 843 163.5 837.5 c 128,-1,39
 122 832 122 832 87.5 825.5 c 128,-1,40
 53 819 53 819 31 810.5 c 128,-1,41
 9 802 9 802 9 793 c 1,42,43
 33 793 33 793 55 799.5 c 128,-1,44
 77 806 77 806 100 806 c 0,45,46
 107 806 107 806 114.5 805 c 128,-1,47
 122 804 122 804 124 795 c 0,0,1
EndSplineSet
EndChar

StartChar: eth
Encoding: 240 240 116
Width: 399
Flags: W
LayerCount: 2
Fore
SplineSet
312 760 m 1,0,1
 330 761 330 761 343.5 762.5 c 128,-1,2
 357 764 357 764 366.5 770 c 128,-1,3
 376 776 376 776 382 787.5 c 128,-1,4
 388 799 388 799 390 820 c 0,5,6
 391 833 391 833 383.5 850 c 128,-1,7
 376 867 376 867 362 876.5 c 128,-1,8
 348 886 348 886 328 882.5 c 128,-1,9
 308 879 308 879 285 852 c 1,10,11
 282 839 282 839 280 828.5 c 128,-1,12
 278 818 278 818 275.5 792.5 c 128,-1,13
 273 767 273 767 269 717.5 c 128,-1,14
 265 668 265 668 258 578 c 1,15,-1
 296 577 l 1,16,-1
 312 760 l 1,0,1
313 789 m 1,17,18
 312 799 312 799 314 814 c 128,-1,19
 316 829 316 829 319 837 c 0,20,21
 327 853 327 853 337.5 851 c 128,-1,22
 348 849 348 849 353 836 c 0,23,24
 357 828 357 828 356 819 c 128,-1,25
 355 810 355 810 355 804 c 0,26,27
 355 796 355 796 347 793.5 c 128,-1,28
 339 791 339 791 313 789 c 1,17,18
EndSplineSet
EndChar

StartChar: .0241
Encoding: 241 241 117
Width: 232
Flags: W
LayerCount: 2
Fore
SplineSet
93 665 m 0,0,1
 100 665 100 665 106.5 690 c 128,-1,2
 113 715 113 715 119 748 c 128,-1,3
 125 781 125 781 129.5 814 c 128,-1,4
 134 847 134 847 138 864 c 1,5,6
 145 873 145 873 149 870.5 c 128,-1,7
 153 868 153 868 156 863 c 0,8,9
 154 839 154 839 149.5 805 c 128,-1,10
 145 771 145 771 141.5 739.5 c 128,-1,11
 138 708 138 708 137 685 c 128,-1,12
 136 662 136 662 142 661 c 0,13,14
 149 659 149 659 156.5 681 c 128,-1,15
 164 703 164 703 169.5 734 c 128,-1,16
 175 765 175 765 178.5 796.5 c 128,-1,17
 182 828 182 828 182 845 c 0,18,19
 183 860 183 860 187.5 865 c 128,-1,20
 192 870 192 870 196.5 867.5 c 128,-1,21
 201 865 201 865 204 857 c 128,-1,22
 207 849 207 849 205 839 c 0,23,24
 206 786 206 786 199 737.5 c 128,-1,25
 192 689 192 689 178.5 653 c 128,-1,26
 165 617 165 617 146.5 598.5 c 128,-1,27
 128 580 128 580 107 587 c 0,28,29
 90 593 90 593 80 610.5 c 128,-1,30
 70 628 70 628 65 649 c 128,-1,31
 60 670 60 670 58.5 692 c 128,-1,32
 57 714 57 714 57 729 c 0,33,34
 57 745 57 745 60.5 771.5 c 128,-1,35
 64 798 64 798 70 823 c 128,-1,36
 76 848 76 848 84 865 c 128,-1,37
 92 882 92 882 102 879 c 0,38,39
 104 878 104 878 101.5 862 c 128,-1,40
 99 846 99 846 94.5 822 c 128,-1,41
 90 798 90 798 86 770.5 c 128,-1,42
 82 743 82 743 80.5 719.5 c 128,-1,43
 79 696 79 696 81.5 680.5 c 128,-1,44
 84 665 84 665 93 665 c 0,0,1
EndSplineSet
EndChar

StartChar: .0242
Encoding: 242 242 118
Width: 2
Flags: W
LayerCount: 2
Fore
SplineSet
238 672 m 1,0,-1
 211 673 l 1,1,-1
 170 106 l 1,2,3
 220 155 220 155 253 186 c 128,-1,4
 286 217 286 217 308 236.5 c 128,-1,5
 330 256 330 256 344 268 c 128,-1,6
 358 280 358 280 370 291 c 1,7,8
 373 333 373 333 368.5 358.5 c 128,-1,9
 364 384 364 384 363 407 c 1,10,11
 358 406 358 406 337.5 387.5 c 128,-1,12
 317 369 317 369 292 346 c 128,-1,13
 267 323 267 323 244 300.5 c 128,-1,14
 221 278 221 278 211 268 c 1,15,-1
 238 672 l 1,0,-1
EndSplineSet
EndChar

StartChar: oacute
Encoding: 243 243 119
Width: 1
Flags: W
LayerCount: 2
Fore
SplineSet
-293 39 m 0,0,1
 -301 25 -301 25 -295.5 22.5 c 128,-1,2
 -290 20 -290 20 -282 24 c 0,3,4
 -237 45 -237 45 -199 78.5 c 128,-1,5
 -161 112 -161 112 -129.5 151.5 c 128,-1,6
 -98 191 -98 191 -74 232.5 c 128,-1,7
 -50 274 -50 274 -33.5 311.5 c 128,-1,8
 -17 349 -17 349 -8.5 378.5 c 128,-1,9
 0 408 0 408 0 424 c 0,10,11
 -1 434 -1 434 -4 421 c 128,-1,12
 -7 408 -7 408 -16 389 c 128,-1,13
 -25 370 -25 370 -42.5 353 c 128,-1,14
 -60 336 -60 336 -90 338 c 2,15,-1
 -107 338 l 2,16,17
 -120 338 -120 338 -134 341.5 c 128,-1,18
 -148 345 -148 345 -154 356 c 0,19,20
 -158 363 -158 363 -160.5 366.5 c 128,-1,21
 -163 370 -163 370 -163.5 375 c 128,-1,22
 -164 380 -164 380 -163.5 388.5 c 128,-1,23
 -163 397 -163 397 -162 414 c 1,24,25
 -168 433 -168 433 -177 430.5 c 128,-1,26
 -186 428 -186 428 -193.5 415.5 c 128,-1,27
 -201 403 -201 403 -203.5 385.5 c 128,-1,28
 -206 368 -206 368 -199 356 c 0,29,30
 -186 334 -186 334 -166 325.5 c 128,-1,31
 -146 317 -146 317 -124.5 315.5 c 128,-1,32
 -103 314 -103 314 -83.5 316 c 128,-1,33
 -64 318 -64 318 -52 317 c 1,34,35
 -69 278 -69 278 -103 237.5 c 128,-1,36
 -137 197 -137 197 -173.5 160 c 128,-1,37
 -210 123 -210 123 -243.5 91.5 c 128,-1,38
 -277 60 -277 60 -293 39 c 0,0,1
EndSplineSet
EndChar

StartChar: .0244
Encoding: 244 244 120
Width: 11
Flags: W
LayerCount: 2
Fore
SplineSet
-127 165 m 0,0,1
 -140 165 -140 165 -152.5 177.5 c 128,-1,2
 -165 190 -165 190 -174.5 216 c 128,-1,3
 -184 242 -184 242 -188.5 283.5 c 128,-1,4
 -193 325 -193 325 -191 382 c 1,5,-1
 -206 385 l 1,6,7
 -215 375 -215 375 -219.5 348 c 128,-1,8
 -224 321 -224 321 -225 286.5 c 128,-1,9
 -226 252 -226 252 -222 214.5 c 128,-1,10
 -218 177 -218 177 -208.5 146 c 128,-1,11
 -199 115 -199 115 -183.5 94.5 c 128,-1,12
 -168 74 -168 74 -146 74 c 0,13,14
 -98 73 -98 73 -75.5 97.5 c 128,-1,15
 -53 122 -53 122 -46.5 163.5 c 128,-1,16
 -40 205 -40 205 -43 260 c 128,-1,17
 -46 315 -46 315 -47 375 c 1,18,-1
 -71 372 l 1,19,20
 -71 342 -71 342 -69.5 305 c 128,-1,21
 -68 268 -68 268 -72 236.5 c 128,-1,22
 -76 205 -76 205 -88 184 c 128,-1,23
 -100 163 -100 163 -127 165 c 0,0,1
-107 339 m 1,24,25
 -112 319 -112 319 -114 305.5 c 128,-1,26
 -116 292 -116 292 -114.5 280 c 128,-1,27
 -113 268 -113 268 -108.5 256 c 128,-1,28
 -104 244 -104 244 -98 227 c 1,29,-1
 -145 217 l 2,30,31
 -149 215 -149 215 -154.5 234.5 c 128,-1,32
 -160 254 -160 254 -163.5 281 c 128,-1,33
 -167 308 -167 308 -167 335 c 0,34,35
 -167 363 -167 363 -160 377 c 1,36,37
 -154 366 -154 366 -141.5 352.5 c 128,-1,38
 -129 339 -129 339 -107 339 c 1,24,25
EndSplineSet
EndChar

StartChar: odieresis
Encoding: 246 246 121
Width: 403
Flags: W
LayerCount: 2
Fore
SplineSet
279 790 m 0,0,1
 279 808 279 808 290 818.5 c 128,-1,2
 301 829 301 829 320 829 c 0,3,4
 340 829 340 829 345.5 815 c 128,-1,5
 351 801 351 801 351 785 c 0,6,7
 351 765 351 765 347.5 751 c 128,-1,8
 344 737 344 737 322 737 c 0,9,10
 296 737 296 737 287.5 751.5 c 128,-1,11
 279 766 279 766 279 790 c 0,0,1
EndSplineSet
EndChar

StartChar: .0247
Encoding: 247 247 122
Width: 1
Flags: W
LayerCount: 2
Fore
SplineSet
-187 165 m 0,0,1
 -184 162 -184 162 -179 162 c 0,2,3
 -171 162 -171 162 -162 167 c 128,-1,4
 -153 172 -153 172 -151 180 c 2,5,-1
 -158 314 l 1,6,7
 -135 316 -135 316 -101 320.5 c 128,-1,8
 -67 325 -67 325 -38 327 c 1,9,10
 -40 304 -40 304 -35.5 307 c 128,-1,11
 -31 310 -31 310 -25.5 322.5 c 128,-1,12
 -20 335 -20 335 -16 349.5 c 128,-1,13
 -12 364 -12 364 -15 365 c 0,14,15
 -56 365 -56 365 -80 363 c 128,-1,16
 -104 361 -104 361 -125.5 359 c 128,-1,17
 -147 357 -147 357 -172.5 355 c 128,-1,18
 -198 353 -198 353 -241 353 c 1,19,20
 -241 348 -241 348 -242.5 337.5 c 128,-1,21
 -244 327 -244 327 -239 325 c 2,22,-1
 -213 317 l 2,23,24
 -206 314 -206 314 -202.5 292 c 128,-1,25
 -199 270 -199 270 -196.5 243.5 c 128,-1,26
 -194 217 -194 217 -192 193.5 c 128,-1,27
 -190 170 -190 170 -187 165 c 0,0,1
EndSplineSet
EndChar

StartChar: .0255
Encoding: 255 255 123
Width: -1
Flags: W
LayerCount: 2
Fore
SplineSet
-153 321 m 0,0,1
 -152 333 -152 333 -165.5 331 c 128,-1,2
 -179 329 -179 329 -187 315 c 0,3,4
 -192 307 -192 307 -196 284.5 c 128,-1,5
 -200 262 -200 262 -200.5 238.5 c 128,-1,6
 -201 215 -201 215 -199 196.5 c 128,-1,7
 -197 178 -197 178 -190 177 c 0,8,9
 -176 174 -176 174 -172.5 181.5 c 128,-1,10
 -169 189 -169 189 -166.5 198.5 c 128,-1,11
 -164 208 -164 208 -156 217 c 128,-1,12
 -148 226 -148 226 -125 226 c 0,13,14
 -106 226 -106 226 -98.5 215.5 c 128,-1,15
 -91 205 -91 205 -87 193.5 c 128,-1,16
 -83 182 -83 182 -78 175.5 c 128,-1,17
 -73 169 -73 169 -58 177 c 0,18,19
 -57 178 -57 178 -55 191 c 128,-1,20
 -53 204 -53 204 -51 222 c 128,-1,21
 -49 240 -49 240 -47.5 260.5 c 128,-1,22
 -46 281 -46 281 -46 297 c 0,23,24
 -46 320 -46 320 -50 323 c 0,25,26
 -65 335 -65 335 -70.5 328 c 128,-1,27
 -76 321 -76 321 -79.5 308 c 128,-1,28
 -83 295 -83 295 -89 282 c 128,-1,29
 -95 269 -95 269 -111 269 c 2,30,-1
 -131 269 l 2,31,32
 -141 269 -141 269 -144.5 279 c 128,-1,33
 -148 289 -148 289 -153 321 c 0,0,1
EndSplineSet
EndChar

StartChar: uni0410
Encoding: 1040 1040 124
Width: 5
Flags: W
LayerCount: 2
Fore
SplineSet
-141 140 m 1,0,1
 -146 119 -146 119 -155.5 105.5 c 128,-1,2
 -165 92 -165 92 -177.5 87 c 128,-1,3
 -190 82 -190 82 -204 85 c 128,-1,4
 -218 88 -218 88 -230 100 c 0,5,6
 -247 118 -247 118 -245.5 190 c 128,-1,7
 -244 262 -244 262 -232 366 c 1,8,-1
 -223 366 l 1,9,10
 -223 339 -223 339 -224 317 c 128,-1,11
 -225 295 -225 295 -225 276 c 0,12,13
 -225 256 -225 256 -224 237.5 c 128,-1,14
 -223 219 -223 219 -220 199 c 0,15,16
 -214 167 -214 167 -199.5 164.5 c 128,-1,17
 -185 162 -185 162 -172.5 172 c 128,-1,18
 -160 182 -160 182 -152 226.5 c 128,-1,19
 -144 271 -144 271 -133 365 c 1,20,-1
 -122 366 l 1,21,-1
 -141 140 l 1,22,-1
 -141 140 l 1,0,1
EndSplineSet
EndChar

StartChar: uni0411
Encoding: 1041 1041 125
Width: 782
Flags: W
LayerCount: 2
Fore
SplineSet
62 200 m 1,0,1
 68 213 68 213 92.5 242 c 128,-1,2
 117 271 117 271 154 309.5 c 128,-1,3
 191 348 191 348 237 393 c 128,-1,4
 283 438 283 438 331.5 482.5 c 128,-1,5
 380 527 380 527 428.5 569 c 128,-1,6
 477 611 477 611 518.5 643 c 128,-1,7
 560 675 560 675 592 694 c 128,-1,8
 624 713 624 713 640 713 c 0,9,10
 661 708 661 708 677 703 c 128,-1,11
 693 698 693 698 706.5 692.5 c 128,-1,12
 720 687 720 687 733.5 680 c 128,-1,13
 747 673 747 673 764 664 c 1,14,15
 764 651 764 651 764.5 634 c 128,-1,16
 765 617 765 617 764.5 602.5 c 128,-1,17
 764 588 764 588 763 579.5 c 128,-1,18
 762 571 762 571 759 576 c 2,19,-1
 651 612 l 2,20,21
 647 614 647 614 623 600.5 c 128,-1,22
 599 587 599 587 561 561.5 c 128,-1,23
 523 536 523 536 475 500 c 128,-1,24
 427 464 427 464 376 420 c 128,-1,25
 325 376 325 376 274 326.5 c 128,-1,26
 223 277 223 277 178.5 225 c 128,-1,27
 134 173 134 173 100 119.5 c 128,-1,28
 66 66 66 66 49 15 c 1,29,-1
 28 17 l 1,30,-1
 74 569 l 1,31,-1
 32 605 l 1,32,-1
 53 792 l 1,33,-1
 91 746 l 1,34,-1
 104 884 l 1,35,-1
 121 878 l 1,36,37
 103 710 103 710 89.5 539 c 128,-1,38
 76 368 76 368 62 200 c 1,0,1
EndSplineSet
EndChar

StartChar: uni0412
Encoding: 1042 1042 126
Width: 775
Flags: W
LayerCount: 2
Fore
SplineSet
85 62 m 0,0,1
 84 60 84 60 80.5 50 c 128,-1,2
 77 40 77 40 70.5 28.5 c 128,-1,3
 64 17 64 17 59 17 c 0,4,5
 56 17 56 17 54 26.5 c 128,-1,6
 52 36 52 36 53 62 c 1,7,-1
 56 62 l 1,8,-1
 109 732 l 1,9,-1
 33 777 l 1,10,-1
 46 855 l 1,11,-1
 136 804 l 1,12,-1
 85 200 l 1,13,14
 126 266 126 266 163 318 c 128,-1,15
 200 370 200 370 238 412.5 c 128,-1,16
 276 455 276 455 317 491.5 c 128,-1,17
 358 528 358 528 408 563.5 c 128,-1,18
 458 599 458 599 519 636 c 128,-1,19
 580 673 580 673 657 717 c 1,20,-1
 761 684 l 1,21,-1
 756 590 l 1,22,-1
 656 633 l 2,23,24
 651 635 651 635 617.5 621.5 c 128,-1,25
 584 608 584 608 533.5 577.5 c 128,-1,26
 483 547 483 547 421.5 500.5 c 128,-1,27
 360 454 360 454 298 389.5 c 128,-1,28
 236 325 236 325 180 243.5 c 128,-1,29
 124 162 124 162 85 62 c 0,0,1
EndSplineSet
EndChar

StartChar: uni0413
Encoding: 1043 1043 127
Width: 313
Flags: W
LayerCount: 2
Fore
SplineSet
291 694 m 0,0,1
 291 692 291 692 288.5 656 c 128,-1,2
 286 620 286 620 282.5 559 c 128,-1,3
 279 498 279 498 274.5 427 c 128,-1,4
 270 356 270 356 265 284 c 128,-1,5
 260 212 260 212 256.5 155 c 128,-1,6
 253 98 253 98 250.5 63.5 c 128,-1,7
 248 29 248 29 248 34 c 1,8,-1
 217 34 l 1,9,-1
 248 500 l 2,10,11
 249 515 249 515 251 534.5 c 128,-1,12
 253 554 253 554 251.5 573 c 128,-1,13
 250 592 250 592 242.5 608.5 c 128,-1,14
 235 625 235 625 217 634 c 2,15,-1
 219 633 l 1,16,-1
 178 444 l 1,17,-1
 161 449 l 1,18,-1
 201 637 l 1,19,20
 169 651 169 651 127 664 c 128,-1,21
 85 677 85 677 25 682 c 1,22,-1
 46 826 l 1,23,24
 130 816 130 816 179 796.5 c 128,-1,25
 228 777 228 777 252.5 756.5 c 128,-1,26
 277 736 277 736 284 718.5 c 128,-1,27
 291 701 291 701 291 694 c 0,0,1
199 259 m 1,28,29
 185 266 185 266 165 275.5 c 128,-1,30
 145 285 145 285 123.5 296.5 c 128,-1,31
 102 308 102 308 82 321 c 128,-1,32
 62 334 62 334 48 348 c 1,33,34
 43 374 43 374 45.5 403.5 c 128,-1,35
 48 433 48 433 50 471 c 1,36,37
 88 451 88 451 126 425.5 c 128,-1,38
 164 400 164 400 206 388 c 1,39,40
 199 370 199 370 197.5 356 c 128,-1,41
 196 342 196 342 196.5 327.5 c 128,-1,42
 197 313 197 313 198 297 c 128,-1,43
 199 281 199 281 199 259 c 1,28,29
39 163 m 1,44,45
 34 195 34 195 35.5 225.5 c 128,-1,46
 37 256 37 256 39 292 c 1,47,48
 57 280 57 280 83 263.5 c 128,-1,49
 109 247 109 247 133.5 232 c 128,-1,50
 158 217 158 217 176.5 207.5 c 128,-1,51
 195 198 195 198 198 201 c 1,52,53
 190 189 190 189 188.5 174 c 128,-1,54
 187 159 187 159 188 142.5 c 128,-1,55
 189 126 189 126 191.5 109.5 c 128,-1,56
 194 93 194 93 194 79 c 1,57,58
 136 92 136 92 98 115 c 128,-1,59
 60 138 60 138 39 163 c 1,44,45
EndSplineSet
EndChar

StartChar: uni0414
Encoding: 1044 1044 128
Width: 274
Flags: W
LayerCount: 2
Fore
SplineSet
120 566 m 1,0,1
 131 571 131 571 143 576 c 1,2,-1
 166 901 l 1,3,-1
 197 902 l 1,4,-1
 174 589 l 1,5,6
 180 589 180 589 191.5 596.5 c 128,-1,7
 203 604 203 604 232 604 c 0,8,9
 239 604 239 604 243 590 c 128,-1,10
 247 576 247 576 249 555 c 128,-1,11
 251 534 251 534 250.5 509.5 c 128,-1,12
 250 485 250 485 248 463 c 128,-1,13
 246 441 246 441 242 426 c 128,-1,14
 238 411 238 411 232 409 c 0,15,16
 222 395 222 395 213 386 c 128,-1,17
 204 377 204 377 190.5 368 c 128,-1,18
 177 359 177 359 160 354 c 1,19,20
 153 269 153 269 147.5 184.5 c 128,-1,21
 142 100 142 100 135 15 c 1,22,-1
 102 17 l 1,23,-1
 124 344 l 1,24,-1
 44 318 l 2,25,26
 30 312 30 312 24.5 329 c 128,-1,27
 19 346 19 346 19.5 374.5 c 128,-1,28
 20 403 20 403 25.5 438 c 128,-1,29
 31 473 31 473 39 503 c 0,30,31
 40 505 40 505 49 515.5 c 128,-1,32
 58 526 58 526 75.5 539 c 128,-1,33
 93 552 93 552 108 560 c 1,34,-1
 97 705 l 1,35,-1
 109 708 l 1,36,-1
 120 566 l 1,0,1
EndSplineSet
EndChar

StartChar: uni0415
Encoding: 1045 1045 129
Width: 2
Flags: W
LayerCount: 2
Fore
SplineSet
-535 693 m 1,0,1
 -524 713 -524 713 -515 724.5 c 128,-1,2
 -506 736 -506 736 -496 748 c 128,-1,3
 -486 760 -486 760 -469.5 775.5 c 128,-1,4
 -453 791 -453 791 -434 802 c 1,5,6
 -438 814 -438 814 -442.5 827.5 c 128,-1,7
 -447 841 -447 841 -452 861 c 1,8,9
 -446 863 -446 863 -442 866 c 1,10,11
 -436 846 -436 846 -429 825 c 128,-1,12
 -422 804 -422 804 -413 781 c 128,-1,13
 -404 758 -404 758 -394.5 738 c 128,-1,14
 -385 718 -385 718 -378 710 c 1,15,16
 -414 680 -414 680 -438 658.5 c 128,-1,17
 -462 637 -462 637 -488 609 c 1,18,19
 -494 617 -494 617 -499 625 c 128,-1,20
 -504 633 -504 633 -509 641.5 c 128,-1,21
 -514 650 -514 650 -519.5 660.5 c 128,-1,22
 -525 671 -525 671 -535 693 c 1,0,1
-384 827 m 1,23,24
 -367 845 -367 845 -351 857.5 c 128,-1,25
 -335 870 -335 870 -319 880 c 128,-1,26
 -303 890 -303 890 -286 898 c 128,-1,27
 -269 906 -269 906 -251 914 c 1,28,29
 -247 896 -247 896 -237 869.5 c 128,-1,30
 -227 843 -227 843 -215 823 c 1,31,32
 -239 814 -239 814 -261.5 801.5 c 128,-1,33
 -284 789 -284 789 -302 776 c 128,-1,34
 -320 763 -320 763 -332 752.5 c 128,-1,35
 -344 742 -344 742 -347 737 c 1,36,37
 -362 751 -362 751 -382 822 c 1,38,-1
 -384 827 l 1,23,24
EndSplineSet
EndChar

StartChar: uni0416
Encoding: 1046 1046 130
Width: 403
Flags: W
LayerCount: 2
Fore
SplineSet
579 790 m 0,0,1
 579 808 579 808 590 818.5 c 128,-1,2
 601 829 601 829 620 829 c 0,3,4
 640 829 640 829 645.5 815 c 128,-1,5
 651 801 651 801 651 785 c 0,6,7
 651 765 651 765 647.5 751 c 128,-1,8
 644 737 644 737 622 737 c 0,9,10
 596 737 596 737 587.5 751.5 c 128,-1,11
 579 766 579 766 579 790 c 0,0,1
EndSplineSet
EndChar

StartChar: uni0417
Encoding: 1047 1047 131
Width: 5
Flags: W
LayerCount: 2
Fore
SplineSet
-364 540 m 1,0,-1
 -364 541 l 1,1,-1
 -349 541 l 1,2,-1
 -376 176 l 1,3,-1
 -391 176 l 1,4,5
 -387 235 -387 235 -384 277 c 128,-1,6
 -381 319 -381 319 -378 358 c 128,-1,7
 -375 397 -375 397 -371.5 439 c 128,-1,8
 -368 481 -368 481 -364 540 c 1,0,-1
EndSplineSet
EndChar
